<svg width="200" height="200" viewBox="0 0 200 200" fill="none" xmlns="http://www.w3.org/2000/svg">
<g opacity="0.1">
<path opacity="0.1" d="M124.72 26.8445H77.5789L78.0579 21.791H125.199L124.72 26.8445Z" fill="#263238"/>
<path opacity="0.1" d="M124.72 33.9297H77.5789L78.0579 28.8698H125.199L124.72 33.9297Z" fill="#263238"/>
<path opacity="0.1" d="M124.72 41.0084H77.5789L78.0579 35.9485H125.199L124.72 41.0084Z" fill="#263238"/>
<path opacity="0.1" d="M124.72 48.0872H77.5789L78.0579 43.0337H125.199L124.72 48.0872Z" fill="#263238"/>
<path opacity="0.1" d="M124.72 55.1723H77.5789L78.0579 50.1124H125.199L124.72 55.1723Z" fill="#263238"/>
<path opacity="0.1" d="M124.72 62.2511H77.5789L78.0579 57.1912H125.199L124.72 62.2511Z" fill="#263238"/>
<path opacity="0.1" d="M124.72 69.3297H77.5789L78.0579 64.2762H125.199L124.72 69.3297Z" fill="#263238"/>
<path opacity="0.1" d="M124.72 76.4149H77.5789L78.0579 71.355H125.199L124.72 76.4149Z" fill="#263238"/>
<path opacity="0.1" d="M124.72 83.4936H77.5789L78.0579 78.4337H125.199L124.72 83.4936Z" fill="#263238"/>
<path opacity="0.1" d="M124.72 90.5723H77.5789L78.0579 85.5188H125.199L124.72 90.5723Z" fill="#263238"/>
<path opacity="0.1" d="M124.72 97.6573H77.5789L78.0579 92.5974H125.199L124.72 97.6573Z" fill="#263238"/>
<path opacity="0.1" d="M174.567 26.8445H127.426L127.905 21.791H175.04L174.567 26.8445Z" fill="#263238"/>
<path opacity="0.1" d="M174.567 33.9297H127.426L127.905 28.8698H175.04L174.567 33.9297Z" fill="#263238"/>
<path opacity="0.1" d="M174.567 41.0084H127.426L127.905 35.9485H175.04L174.567 41.0084Z" fill="#263238"/>
<path opacity="0.1" d="M174.567 48.0872H127.426L127.905 43.0337H175.04L174.567 48.0872Z" fill="#263238"/>
<path opacity="0.1" d="M174.567 55.1723H127.426L127.905 50.1124H175.04L174.567 55.1723Z" fill="#263238"/>
<path opacity="0.1" d="M174.567 62.2511H127.426L127.905 57.1912H175.04L174.567 62.2511Z" fill="#263238"/>
<path opacity="0.1" d="M174.567 69.3297H127.426L127.905 64.2762H175.04L174.567 69.3297Z" fill="#263238"/>
<path opacity="0.1" d="M174.567 76.4149H127.426L127.905 71.355H175.04L174.567 76.4149Z" fill="#263238"/>
<path opacity="0.1" d="M174.567 83.4936H127.426L127.905 78.4337H175.04L174.567 83.4936Z" fill="#263238"/>
<path opacity="0.1" d="M174.567 90.5723H127.426L127.905 85.5188H175.04L174.567 90.5723Z" fill="#263238"/>
<path opacity="0.1" d="M174.567 97.6573H127.426L127.905 92.5974H175.04L174.567 97.6573Z" fill="#263238"/>
</g>
<g opacity="0.4">
<path opacity="0.4" d="M22.8256 43.7088H41.6707V50.2924H22.8256C22.0679 50.2924 21.3413 49.9449 20.8055 49.3264C20.2697 48.7079 19.9688 47.8689 19.9688 46.9942V46.9942C19.9688 46.1194 20.2697 45.2805 20.8055 44.662C21.3413 44.0434 22.0679 43.6959 22.8256 43.6959V43.7088Z" fill="#202850"/>
<path opacity="0.4" d="M41.693 35.4663H22.8256C22.0679 35.4663 21.3413 35.8138 20.8055 36.4323C20.2697 37.0509 19.9688 37.8898 19.9688 38.7646V38.7646C19.9688 39.6393 20.2697 40.4782 20.8055 41.0968C21.3413 41.7153 22.0679 42.0628 22.8256 42.0628H41.6707L41.693 35.4663Z" fill="#202850"/>
<path opacity="0.4" d="M50.258 27.8861H43.4026V49.9709H50.258V27.8861Z" fill="#202850"/>
<path opacity="0.4" d="M58.8229 27.8861H51.9676V49.9709H58.8229V27.8861Z" fill="#202850"/>
<path opacity="0.4" d="M67.3935 27.8861H60.5381V49.9709H67.3935V27.8861Z" fill="#202850"/>
</g>
<g opacity="0.1">
<path opacity="0.1" d="M22.8256 43.7088H41.6707V50.2924H22.8256C22.0679 50.2924 21.3413 49.9449 20.8055 49.3264C20.2697 48.7079 19.9688 47.8689 19.9688 46.9942V46.9942C19.9688 46.1194 20.2697 45.2805 20.8055 44.662C21.3413 44.0434 22.0679 43.6959 22.8256 43.6959V43.7088Z" fill="#263238"/>
<path opacity="0.1" d="M41.693 35.4663H22.8256C22.0679 35.4663 21.3413 35.8138 20.8055 36.4323C20.2697 37.0509 19.9688 37.8898 19.9688 38.7646V38.7646C19.9688 39.6393 20.2697 40.4782 20.8055 41.0968C21.3413 41.7153 22.0679 42.0628 22.8256 42.0628H41.6707L41.693 35.4663Z" fill="#263238"/>
<path opacity="0.1" d="M50.258 27.8861H43.4026V49.9709H50.258V27.8861Z" fill="#263238"/>
<path opacity="0.1" d="M58.8229 27.8861H51.9676V49.9709H58.8229V27.8861Z" fill="#263238"/>
<path opacity="0.1" d="M67.3935 27.8861H60.5381V49.9709H67.3935V27.8861Z" fill="#263238"/>
</g>
<path opacity="0.1" d="M71.5256 50.5624H17.7189V54.24H22.0849V63.3632H24.68V54.24H63.2947V63.3632H65.8899V54.24H71.5256V50.5624Z" fill="#263238"/>
<path d="M179.59 107.739C179.59 107.739 177.641 110.311 176.527 115.454C175.413 120.598 180.425 124.455 178.755 129.92C177.084 135.385 174.021 137.957 174.856 143.422C175.692 148.887 179.312 149.208 176.527 155.316C173.743 161.424 171.237 163.674 172.072 169.461C172.907 175.247 183.488 182.641 183.488 182.641C183.488 182.641 190.728 173.318 191.006 167.21C191.285 161.102 184.602 157.245 185.716 151.78C186.83 146.315 189.614 141.814 189.336 136.671C189.057 131.527 183.767 127.67 183.767 123.812C183.767 119.955 185.994 117.704 185.994 113.204C185.994 108.703 180.982 104.846 180.982 102.274C181.089 100.29 181.465 98.3371 182.096 96.4874C182.096 96.4874 176.806 100.345 179.59 107.739Z" fill="#202850"/>
<path opacity="0.5" d="M179.59 107.739C179.59 107.739 177.641 110.311 176.527 115.454C175.413 120.598 180.425 124.455 178.755 129.92C177.084 135.385 174.021 137.957 174.856 143.422C175.692 148.887 179.312 149.208 176.527 155.316C173.743 161.424 171.237 163.674 172.072 169.461C172.907 175.247 183.488 182.641 183.488 182.641C183.488 182.641 190.728 173.318 191.006 167.21C191.285 161.102 184.602 157.245 185.716 151.78C186.83 146.315 189.614 141.814 189.336 136.671C189.057 131.527 183.767 127.67 183.767 123.812C183.767 119.955 185.994 117.704 185.994 113.204C185.994 108.703 180.982 104.846 180.982 102.274C181.089 100.29 181.465 98.3371 182.096 96.4874C182.096 96.4874 176.806 100.345 179.59 107.739Z" fill="white"/>
<path d="M182.374 180.712L181.818 111.275" stroke="#263238" stroke-linecap="round" stroke-linejoin="round"/>
<path d="M187.993 164.819L182.536 171.113L176.354 164.819" stroke="#263238" stroke-linecap="round" stroke-linejoin="round"/>
<path d="M186.172 137.102L182.174 144.238L178.716 137.732" stroke="#263238" stroke-linecap="round" stroke-linejoin="round"/>
<path d="M179.623 116.103L181.99 119.459L183.989 115.473" stroke="#263238" stroke-linecap="round" stroke-linejoin="round"/>
<path d="M189.336 180.712H175.413V198.714H189.336V180.712Z" fill="#263238"/>
<path d="M121.657 125.779L126.903 197.788C126.916 197.894 126.949 197.996 126.999 198.087C127.048 198.178 127.113 198.256 127.19 198.316C127.267 198.377 127.354 198.418 127.445 198.438C127.537 198.458 127.631 198.455 127.721 198.431C127.878 198.387 128.016 198.279 128.109 198.126C128.203 197.974 128.245 197.787 128.228 197.602L124.658 125.76L121.657 125.779Z" fill="#263238" stroke="#263238" stroke-linecap="round" stroke-linejoin="round"/>
<path d="M156.869 125.779L162.131 198.032C162.146 198.138 162.179 198.239 162.229 198.33C162.278 198.42 162.344 198.498 162.42 198.558C162.497 198.619 162.584 198.66 162.675 198.68C162.766 198.7 162.86 198.699 162.95 198.675C163.108 198.63 163.246 198.52 163.339 198.367C163.432 198.213 163.474 198.026 163.457 197.84L159.876 125.779H156.869Z" fill="#263238" stroke="#263238" stroke-linecap="round" stroke-linejoin="round"/>
<path d="M65.3943 125.779L62.6098 197.145C62.5943 197.332 62.6375 197.52 62.7315 197.673C62.8256 197.826 62.9642 197.936 63.1221 197.981C63.2125 198.007 63.3067 198.011 63.3985 197.992C63.4902 197.973 63.5774 197.932 63.6543 197.871C63.7312 197.811 63.796 197.732 63.8445 197.64C63.8929 197.548 63.9238 197.445 63.9352 197.338L68.3903 125.76L65.3943 125.779Z" fill="#263238" stroke="#263238" stroke-linecap="round" stroke-linejoin="round"/>
<path d="M32.9443 125.779L30.1598 196.927C30.1443 197.114 30.1875 197.301 30.2816 197.454C30.3756 197.608 30.5142 197.717 30.6722 197.762C30.7625 197.789 30.8567 197.793 30.9485 197.774C31.0402 197.755 31.1274 197.714 31.2043 197.653C31.2812 197.592 31.3461 197.513 31.3945 197.421C31.4429 197.329 31.4738 197.226 31.4852 197.119L35.9014 125.754L32.9443 125.779Z" fill="#263238" stroke="#263238" stroke-linecap="round" stroke-linejoin="round"/>
<path d="M163.719 121.787H30.984V127.972H163.719V121.787Z" fill="white" stroke="#263238" stroke-linecap="round" stroke-linejoin="round"/>
<path d="M163.719 121.787H30.984V123.909H163.719V121.787Z" fill="#263238" stroke="#263238" stroke-linecap="round" stroke-linejoin="round"/>
<path d="M163.719 121.787H117.035V127.972H163.719V121.787Z" fill="#263238" stroke="#263238" stroke-linecap="round" stroke-linejoin="round"/>
<path d="M165.384 119.729H29.3245V122.089H165.384V119.729Z" fill="white" stroke="#263238" stroke-linecap="round" stroke-linejoin="round"/>
<path d="M165.384 119.729H118.984V122.089H165.384V119.729Z" fill="#263238" stroke="#263238" stroke-linecap="round" stroke-linejoin="round"/>
<path d="M104.961 111.513L109.01 119.562H102.032L104.961 111.513Z" fill="#263238" stroke="#263238" stroke-linecap="round" stroke-linejoin="round"/>
<path d="M62.142 119.517H102.032C102.183 119.516 102.331 119.465 102.457 119.369C102.584 119.273 102.684 119.137 102.745 118.977L113.788 89.9101C113.846 89.7723 113.873 89.6196 113.865 89.4665C113.858 89.3134 113.816 89.1651 113.744 89.036C113.673 88.9068 113.574 88.8011 113.456 88.729C113.339 88.6569 113.208 88.6208 113.075 88.6242H73.1906C73.0396 88.6224 72.8913 88.6721 72.7646 88.767C72.6378 88.8619 72.538 88.9979 72.4778 89.1579L61.4347 118.231C61.3766 118.369 61.35 118.521 61.3573 118.673C61.3647 118.826 61.4058 118.974 61.4768 119.103C61.5477 119.232 61.6461 119.338 61.7625 119.41C61.879 119.483 62.0096 119.52 62.142 119.517V119.517Z" fill="#263238" stroke="#263238" stroke-linecap="round" stroke-linejoin="round"/>
<path d="M65.0155 118.36H99.5427C99.6828 118.36 99.82 118.314 99.9376 118.226C100.055 118.138 100.148 118.013 100.205 117.865L110.319 91.8711C110.367 91.7439 110.386 91.605 110.376 91.4668C110.366 91.3286 110.327 91.1954 110.261 91.0793C110.195 90.9633 110.105 90.8679 110 90.8018C109.894 90.7358 109.776 90.7011 109.656 90.7009H75.1287C74.9878 90.7003 74.8498 90.7475 74.732 90.8367C74.6142 90.9258 74.5217 91.053 74.466 91.2024L64.3584 117.19C64.309 117.316 64.2879 117.455 64.2971 117.594C64.3062 117.732 64.3452 117.865 64.4106 117.982C64.476 118.098 64.5656 118.194 64.6713 118.26C64.777 118.326 64.8954 118.36 65.0155 118.36Z" fill="white" stroke="#263238" stroke-linecap="round" stroke-linejoin="round"/>
<path d="M92.8545 103.656C96.5763 105.361 99.9529 107.935 102.773 111.217L103.641 108.993L104.198 107.617C98.9357 106.569 97.1091 101.052 92.1138 93.3628C91.4313 92.319 90.6055 91.4112 89.6691 90.6753H75.1287C74.9885 90.6765 74.8515 90.7233 74.7333 90.8103C74.6144 90.8989 74.5213 91.0265 74.466 91.1768L70.707 100.821C81.1598 105.906 82.7525 99.0142 92.8545 103.656Z" fill="#202850" stroke="#263238" stroke-linecap="round" stroke-linejoin="round"/>
<path d="M91.8353 108.684C83.6825 107.803 67.6329 115.152 67.6329 115.152L66.146 118.366H73.7698C79.5169 115.795 86.3889 113.223 90.5656 113.397C94.9539 113.557 95.8783 116.174 96.012 118.366H97.2483C97.872 114.811 97.4488 109.295 91.8353 108.684Z" fill="#202850" stroke="#263238" stroke-linecap="round" stroke-linejoin="round"/>
<path d="M108.275 97.111L109.388 94.2499C108.798 93.0412 108.119 91.7939 107.501 90.7009H102.89C104.209 92.3918 106.482 95.2208 108.275 97.111Z" fill="#202850" stroke="#263238" stroke-linecap="round" stroke-linejoin="round"/>
<path d="M149.652 119.916H160.767V116.624H149.652V119.916Z" fill="#263238"/>
<path d="M155.493 117.749C155.777 117.75 156.049 117.626 156.256 117.403C156.463 117.179 156.589 116.873 156.607 116.547L158.462 85.2875C158.471 85.1186 158.452 84.9491 158.406 84.7888C158.359 84.6284 158.285 84.4803 158.189 84.3528C158.092 84.2253 157.975 84.121 157.844 84.0459C157.712 83.9707 157.569 83.9262 157.423 83.9148C157.277 83.9034 157.13 83.9254 156.991 83.9795C156.852 84.0336 156.724 84.1187 156.613 84.23C156.503 84.3414 156.413 84.4767 156.348 84.6284C156.283 84.78 156.244 84.945 156.234 85.1139L154.38 116.373C154.36 116.714 154.458 117.049 154.652 117.306C154.846 117.563 155.121 117.72 155.415 117.743L155.493 117.749Z" fill="#263238"/>
<path d="M157.487 86.8177C157.722 86.8181 157.951 86.733 158.141 86.5743C158.331 86.4157 158.473 86.1917 158.547 85.9344C158.62 85.677 158.621 85.3994 158.55 85.1412C158.479 84.883 158.339 84.6574 158.15 84.4967L139.884 69.6577C139.829 69.5862 139.761 69.5297 139.685 69.4923C139.609 69.455 139.526 69.4377 139.443 69.4417C139.361 69.4458 139.28 69.4711 139.207 69.5157C139.134 69.5604 139.07 69.6233 139.02 69.6999C138.971 69.7765 138.937 69.8649 138.921 69.9586C138.905 70.0523 138.907 70.149 138.927 70.2417C138.947 70.3343 138.985 70.4206 139.038 70.4942C139.091 70.5677 139.157 70.6268 139.232 70.6671L156.819 86.5605C157.012 86.7274 157.246 86.8177 157.487 86.8177Z" fill="#263238"/>
<path d="M157.487 87.3384C158.431 87.3384 159.197 86.4547 159.197 85.3646C159.197 84.2745 158.431 83.3907 157.487 83.3907C156.543 83.3907 155.777 84.2745 155.777 85.3646C155.777 86.4547 156.543 87.3384 157.487 87.3384Z" fill="#263238"/>
<path d="M139.243 72.8595C140.188 72.8595 140.953 71.9758 140.953 70.8857C140.953 69.7956 140.188 68.9119 139.243 68.9119C138.299 68.9119 137.534 69.7956 137.534 70.8857C137.534 71.9758 138.299 72.8595 139.243 72.8595Z" fill="#263238"/>
<path d="M131.976 73.5924L138.425 79.5653L140.585 73.1359C140.773 72.5776 140.802 71.9645 140.666 71.3862C140.531 70.8079 140.239 70.2946 139.834 69.9213V69.9213C139.431 69.5464 138.935 69.3298 138.418 69.3032C137.901 69.2766 137.39 69.4413 136.96 69.7734L131.976 73.5924Z" fill="#263238"/>
<path d="M127.159 119.517H152.642C152.739 119.517 152.833 119.485 152.914 119.425C152.995 119.364 153.059 119.278 153.099 119.177L160.155 100.602C160.187 100.515 160.199 100.419 160.192 100.325C160.185 100.23 160.157 100.139 160.112 100.06C160.067 99.9803 160.005 99.9149 159.933 99.8693C159.861 99.8238 159.78 99.7994 159.698 99.7985H134.203C134.108 99.799 134.014 99.8314 133.934 99.8918C133.854 99.9523 133.791 100.038 133.752 100.139L126.697 118.714C126.663 118.802 126.649 118.898 126.656 118.994C126.663 119.089 126.691 119.182 126.737 119.262C126.783 119.342 126.846 119.407 126.92 119.452C126.993 119.497 127.076 119.519 127.159 119.517V119.517Z" fill="white" stroke="#263238" stroke-linecap="round" stroke-linejoin="round"/>
<path d="M129.548 118.071H151.267C151.35 118.072 151.431 118.044 151.501 117.992C151.57 117.939 151.624 117.863 151.656 117.775L157.676 101.927C157.704 101.853 157.715 101.772 157.709 101.692C157.703 101.612 157.68 101.535 157.642 101.467C157.604 101.4 157.552 101.344 157.491 101.305C157.43 101.267 157.362 101.246 157.292 101.245H135.568C135.486 101.246 135.406 101.274 135.337 101.325C135.268 101.376 135.213 101.449 135.178 101.534L129.158 117.383C129.131 117.458 129.12 117.539 129.126 117.62C129.132 117.701 129.156 117.779 129.194 117.847C129.233 117.915 129.285 117.971 129.347 118.01C129.408 118.049 129.478 118.07 129.548 118.071V118.071Z" fill="white" stroke="#263238" stroke-linecap="round" stroke-linejoin="round"/>
<path d="M146.494 109.012C148.956 110.081 151.204 111.72 153.099 113.827L154.029 111.532C150.526 110.889 149.312 107.353 145.982 102.454C145.677 102.007 145.329 101.602 144.946 101.245H135.568C135.486 101.246 135.406 101.274 135.337 101.325C135.268 101.376 135.213 101.449 135.178 101.534L132.845 107.681C138.837 109.957 140.14 106.228 146.494 109.012Z" fill="#202850" stroke="#263238" stroke-linecap="round" stroke-linejoin="round"/>
<path d="M145.815 112.194C140.385 111.635 129.665 116.315 129.665 116.315L129.108 117.434C129.086 117.507 129.079 117.585 129.088 117.662C129.097 117.738 129.122 117.811 129.161 117.874C129.2 117.937 129.251 117.988 129.311 118.024C129.37 118.059 129.436 118.077 129.503 118.077H134.432C138.107 116.54 142.306 115.107 144.918 115.203C147.641 115.3 148.365 116.746 148.521 118.077H149.418C149.796 115.808 149.407 112.567 145.815 112.194Z" fill="#202850" stroke="#263238" stroke-linecap="round" stroke-linejoin="round"/>
<path d="M156.646 104.704L157.381 102.775C157.108 102.261 156.824 101.74 156.535 101.252H153.583C154.446 102.287 155.644 103.656 156.646 104.704Z" fill="#202850" stroke="#263238" stroke-linecap="round" stroke-linejoin="round"/>
<path d="M152.998 118.283H114.712V119.729H152.998V118.283Z" fill="white" stroke="#263238" stroke-linecap="round" stroke-linejoin="round"/>
<path d="M152.999 118.283H134.437V119.729H152.999V118.283Z" fill="white" stroke="#263238" stroke-linecap="round" stroke-linejoin="round"/>
<path d="M118.282 108.24H111.527V119.762H118.282V108.24Z" fill="white" stroke="#263238" stroke-linecap="round" stroke-linejoin="round"/>
<path d="M117.976 118.193H117.274C117.126 118.193 116.985 118.125 116.88 118.004C116.776 117.884 116.717 117.72 116.717 117.55C116.717 117.379 116.776 117.216 116.88 117.095C116.985 116.975 117.126 116.907 117.274 116.907H117.976C118.256 116.905 118.524 116.776 118.722 116.547C118.92 116.319 119.032 116.009 119.034 115.685V112.895C119.034 112.571 118.922 112.26 118.724 112.031C118.525 111.802 118.256 111.673 117.976 111.673H117.074C116.926 111.673 116.784 111.606 116.68 111.485C116.575 111.365 116.517 111.201 116.517 111.031C116.517 110.86 116.575 110.696 116.68 110.576C116.784 110.455 116.926 110.388 117.074 110.388H117.976C118.551 110.389 119.103 110.654 119.51 111.124C119.917 111.594 120.146 112.231 120.148 112.895V115.685C120.146 116.35 119.917 116.987 119.51 117.457C119.103 117.926 118.551 118.191 117.976 118.193V118.193Z" fill="white" stroke="#263238" stroke-linecap="round" stroke-linejoin="round"/>
<path d="M72.2384 59.48C72.2384 59.48 73.7643 64.9514 73.7643 66.0122C73.7534 66.78 73.7032 67.5465 73.6139 68.3075L74.9672 70.7249C75.0095 70.8013 75.0381 70.8867 75.0512 70.9761C75.0643 71.0655 75.0617 71.157 75.0435 71.2453C75.0254 71.3335 74.992 71.4165 74.9454 71.4895C74.8987 71.5625 74.8399 71.6239 74.7723 71.67L72.6951 73.0781C72.6951 73.0781 72.3888 78.7295 72.0825 79.4367C71.7762 80.1439 66.5749 79.9703 66.5749 79.9703L64.9042 83.6801L56.1833 79.7903L58.4665 72.5509L58.0043 61.621C58.0043 61.621 63.3616 56.1239 72.2384 59.48Z" fill="white" stroke="#263238" stroke-linecap="round" stroke-linejoin="round"/>
<path d="M66.1182 73.0782L67.3378 73.4319C67.2631 74.0899 67.3062 74.7586 67.4642 75.3967C67.6223 76.0347 67.892 76.6286 68.2566 77.1416" fill="white"/>
<path d="M66.1182 73.0782L67.3378 73.4319C67.2631 74.0899 67.3062 74.7586 67.4642 75.3967C67.6223 76.0347 67.892 76.6286 68.2566 77.1416" stroke="#263238" stroke-linecap="round" stroke-linejoin="round"/>
<path d="M67.5272 69.2976L76.1422 66.8352" stroke="#263238" stroke-linecap="round" stroke-linejoin="round"/>
<path d="M73.9258 66.636L75.886 66.7324C75.886 66.7324 76.571 69.3042 74.5217 69.5935" stroke="#263238" stroke-linecap="round" stroke-linejoin="round"/>
<path d="M62.1364 55.436C62.1364 55.436 58.7951 54.1951 57.0855 59.4994C55.3758 64.8036 58.4665 71.7151 58.4665 72.5702C58.4665 73.4253 61.0672 74.1583 63.0553 74.1583C64.15 74.207 65.2276 73.8338 66.1182 73.0974C66.1182 73.0974 65.3497 69.5677 65.9623 68.8605C66.5749 68.1533 68.1063 69.7413 68.1063 69.7413C68.5867 69.6534 69.0513 69.4754 69.4818 69.2141C69.9385 68.8605 72.2384 67.446 71.4699 65.858C70.7014 64.2699 69.1755 62.8555 70.4007 61.7946C71.6258 60.7338 74.8558 60.5538 74.9895 57.1977C75.1231 53.8415 73.3188 53.1407 71.4699 53.4879C69.621 53.8351 70.2448 50.4854 66.7252 51.019C63.2057 51.5527 61.5239 53.8222 62.1364 55.436Z" fill="#263238" stroke="#263238" stroke-linecap="round" stroke-linejoin="round"/>
<path d="M62.671 67.446C62.4269 67.9772 62.2399 68.5407 62.1141 69.1241" stroke="white" stroke-width="0.5" stroke-linecap="round" stroke-linejoin="round"/>
<path d="M70.5121 61.1324C70.5121 61.1324 69.4484 62.2126 66.1182 63.7492C64.9414 64.2888 63.9283 65.2169 63.2057 66.4174" stroke="white" stroke-width="0.5" stroke-linecap="round" stroke-linejoin="round"/>
<path d="M70.2447 64.0514C70.2447 64.0514 66.3855 66.9767 64.6758 67.5875" stroke="white" stroke-width="0.5" stroke-linecap="round" stroke-linejoin="round"/>
<path d="M98.0057 91.9097C99.6639 94.9036 101.637 97.6485 103.881 100.081C103.881 100.081 101.748 94.5972 98.5849 91.3568C98.3009 91.0739 97.8052 91.5432 98.0057 91.9097Z" fill="#263238" stroke="#263238" stroke-linecap="round" stroke-linejoin="round"/>
<path d="M85.7096 113.139L96.9866 103.335C96.9866 103.335 96.9866 98.8342 97.5435 97.8698C98.1004 96.9054 102.695 95.298 102.695 95.298C102.695 95.298 103.948 93.5299 104.644 95.298C104.843 95.8157 104.922 96.3843 104.873 96.9479C104.824 97.5115 104.649 98.0507 104.365 98.5127C104.438 99.7972 104.438 101.086 104.365 102.37C104.226 103.335 99.3534 105.746 99.3534 105.746C99.3534 105.746 92.6707 117.158 89.3294 120.372C85.988 123.587 85.2919 124.23 83.8997 124.873C82.5075 125.516 80.0015 120.855 80.0015 120.855L85.7096 113.139Z" fill="white" stroke="#263238" stroke-linecap="round" stroke-linejoin="round"/>
<path d="M65.2438 188.376C65.2438 188.376 73.1795 194.162 74.5717 194.162C75.964 194.162 76.6601 195.609 75.964 195.77C75.2679 195.93 70.952 196.091 68.0283 196.252C65.1046 196.412 63.1555 196.091 61.4848 196.091C59.8142 196.091 57.8651 196.252 57.0297 195.77C56.1944 195.287 57.5866 189.822 57.5866 188.858C57.5866 187.894 64.2693 187.733 65.2438 188.376Z" fill="#263238" stroke="#263238" stroke-linecap="round" stroke-linejoin="round"/>
<path d="M75.4795 194.394C72.3999 195.57 67.4046 194.799 64.4085 194.484C62.0362 194.233 58.3385 194.175 56.7847 194.162C56.7235 194.991 56.7847 195.615 57.0298 195.769C57.8651 196.252 59.8142 196.091 61.4849 196.091C63.1555 196.091 65.1047 196.412 68.0283 196.252C70.952 196.091 75.2679 195.93 75.964 195.769C76.4819 195.647 76.2257 194.811 75.4795 194.394Z" fill="white" stroke="#263238" stroke-linecap="round" stroke-linejoin="round"/>
<path d="M71.5089 148.662L65.2495 184.891L66.5526 188.652C65.6178 190.218 64.206 191.32 62.5987 191.738C60.8093 192.141 58.992 192.356 57.169 192.381C57.169 192.381 56.4729 188.363 56.8906 187.881C57.3082 187.398 57.4475 185.47 57.4475 185.47L61.0672 148.983L71.5089 148.662Z" fill="#202850" stroke="#263238" stroke-linecap="round" stroke-linejoin="round"/>
<path d="M90.5823 187.148C90.5823 187.148 95.4551 191.809 97.6827 192.613C99.9102 193.416 102.277 194.22 102.277 195.024C102.277 195.827 96.9866 196.631 92.9491 196.149C88.9117 195.667 82.7859 193.577 81.3937 193.577C80.0014 193.577 80.2799 189.398 80.2799 188.755C80.2799 188.112 87.1018 182.969 90.5823 187.148Z" fill="#263238" stroke="#263238" stroke-linecap="round" stroke-linejoin="round"/>
<path d="M102.277 195.024C102.277 194.734 101.965 194.445 101.47 194.156C97.4853 194.777 93.4449 194.744 89.4686 194.059C86.415 193.557 83.3853 192.877 80.3913 192.021C80.5361 192.883 80.8256 193.577 81.3937 193.577C82.7859 193.577 88.9117 195.667 92.9491 196.149C96.9866 196.631 102.277 195.827 102.277 195.024Z" fill="white" stroke="#263238" stroke-linecap="round" stroke-linejoin="round"/>
<path d="M66.3576 132.427C70.5333 132.057 74.7304 132.165 78.8876 132.749C85.988 133.713 96.4297 134.838 96.7081 136.928C96.9866 139.018 89.8138 182.512 89.8138 183.637C89.8138 184.762 90.9276 185.888 91.206 186.53C91.382 186.986 91.4767 187.478 91.4845 187.977C91.4845 187.977 88.0763 192.22 85.4311 193.346C82.7859 194.471 80.5639 193.423 80.007 193.423C79.4501 193.423 79.4501 189.083 79.8678 186.993C80.2854 184.904 80.9815 179.6 81.1208 179.117C81.26 178.635 83.482 147.697 83.482 147.697C83.482 147.697 68.1675 151.555 55.7767 149.947C43.3859 148.34 42.1329 146.09 41.4368 142.714C40.7407 139.339 42.1329 132.588 42.1329 132.588L66.3576 132.427Z" fill="#202850" stroke="#263238" stroke-linecap="round" stroke-linejoin="round"/>
<path d="M64.7872 142.837C64.507 143.307 64.1942 143.75 63.8517 144.161" stroke="#263238" stroke-linecap="round" stroke-linejoin="round"/>
<path d="M68.5852 134.196C67.7809 136.511 66.8509 138.766 65.8008 140.946" stroke="#263238" stroke-linecap="round" stroke-linejoin="round"/>
<path d="M66.9146 135.803C65.2379 139.013 62.6943 141.497 59.675 142.875" stroke="#263238" stroke-linecap="round" stroke-linejoin="round"/>
<path d="M93.1162 144.656C93.584 144.444 94.0462 144.225 94.4806 144.013Z" fill="white"/>
<path d="M93.1162 144.656C93.584 144.444 94.0462 144.225 94.4806 144.013" stroke="#263238" stroke-linecap="round" stroke-linejoin="round"/>
<path d="M83.482 147.697C86.1487 147.093 88.7833 146.314 91.3731 145.363Z" fill="white"/>
<path d="M83.482 147.697C86.1487 147.093 88.7833 146.314 91.3731 145.363" stroke="#263238" stroke-linecap="round" stroke-linejoin="round"/>
<path d="M54.663 78.9031C54.663 78.9031 43.8036 84.8502 42.2722 85.9754C40.7407 87.1005 39.7662 101.084 39.7662 103.495C39.7662 105.906 41.2976 129.534 41.7153 133.553C42.133 137.571 55.4983 140.303 59.9534 138.857C64.4085 137.41 68.7244 133.713 68.7244 132.427C68.7244 131.142 68.3068 120.212 68.5852 118.122C68.8637 116.033 71.3697 107.192 71.3697 107.192L76.1032 122.783C78.0902 122.172 80.043 121.42 81.9506 120.533C85.988 118.604 86.9626 112.175 86.9626 112.175C86.9626 112.175 82.5075 103.174 81.2544 98.6733C80.0014 94.1728 79.4446 90.7974 78.8877 89.9937C78.3308 89.19 65.8008 82.4392 63.5732 80.6712C62.3169 79.5795 60.8531 78.8496 59.3034 78.5421C57.7538 78.2346 56.1629 78.3584 54.663 78.9031V78.9031Z" fill="#263238" stroke="#263238" stroke-linecap="round" stroke-linejoin="round"/>
<path d="M71.3697 107.192L67.7499 101.084" stroke="white" stroke-width="0.75" stroke-linecap="round" stroke-linejoin="round"/>
<path d="M70.7794 106.324L64.4085 102.692" stroke="white" stroke-width="0.75" stroke-linecap="round" stroke-linejoin="round"/>
<path d="M51.8896 152.404L57.4585 198.052C57.4708 198.158 57.5022 198.261 57.5509 198.352C57.5996 198.443 57.6643 198.522 57.741 198.583C57.8177 198.643 57.9045 198.685 57.9959 198.704C58.0874 198.723 58.1813 198.72 58.2716 198.695V198.695C58.4276 198.651 58.5647 198.544 58.6578 198.392C58.7509 198.241 58.7937 198.057 58.7784 197.872L54.8801 151.658L51.8896 152.404Z" fill="#263238" stroke="#263238" stroke-linecap="round" stroke-linejoin="round"/>
<path d="M35.9125 152.776L26.618 197.608C26.5961 197.713 26.5935 197.821 26.6102 197.927C26.627 198.032 26.6628 198.132 26.7153 198.221C26.7678 198.309 26.8359 198.384 26.9151 198.44C26.9942 198.497 27.0828 198.533 27.1749 198.547V198.547C27.3346 198.573 27.497 198.531 27.6321 198.429C27.7671 198.328 27.8659 198.173 27.91 197.994L38.7025 154.493L35.9125 152.776Z" fill="#263238" stroke="#263238" stroke-linecap="round" stroke-linejoin="round"/>
<path d="M52.7918 152.224L46.8776 197.808C46.8635 197.913 46.8687 198.022 46.8927 198.125C46.9168 198.228 46.9593 198.325 47.0174 198.408C47.0756 198.492 47.1481 198.56 47.2305 198.61C47.3128 198.659 47.4032 198.688 47.4958 198.695V198.695C47.6594 198.705 47.8205 198.645 47.948 198.526C48.0755 198.408 48.1604 198.239 48.1863 198.052L55.6821 153.657L52.7918 152.224Z" fill="#263238" stroke="#263238" stroke-linecap="round" stroke-linejoin="round"/>
<path d="M68.7801 152.404L74.349 198.052C74.362 198.158 74.394 198.26 74.4429 198.35C74.4918 198.441 74.5565 198.519 74.633 198.58C74.7094 198.64 74.796 198.682 74.887 198.702C74.9781 198.721 75.0718 198.719 75.162 198.695C75.3185 198.651 75.4562 198.544 75.5502 198.393C75.6442 198.242 75.6882 198.057 75.6744 197.872L71.7762 151.658L68.7801 152.404Z" fill="#263238" stroke="#263238" stroke-linecap="round" stroke-linejoin="round"/>
<path d="M27.186 120.417C27.186 120.417 25.5153 112.271 25.7047 107.771C25.894 103.27 29.4136 97.4839 39.2538 98.1269C49.0941 98.7698 54.2898 109.7 53.5492 118.489C52.8085 127.278 53.5492 144.418 58.7449 148.064C63.9407 151.709 75.6354 149.137 75.6354 149.137C75.6354 149.137 77.3061 149.562 76.0085 151.066C74.711 152.571 63.9407 154.705 58.5612 155.567C54.4513 156.21 44.082 155.875 39.393 155.676C36.9577 155.606 34.6446 154.43 32.9554 152.403C32.2749 151.561 31.7114 150.603 31.2847 149.562C28.5448 142.952 27.186 120.417 27.186 120.417Z" fill="white"/>
<path d="M58.5612 155.567C59.8754 155.355 61.5183 155.065 63.2669 154.731C61.1625 154.606 59.0975 154.023 57.1801 153.014C51.3717 149.504 50.542 132.987 51.3717 124.519C52.2015 116.052 46.3876 105.527 35.3834 104.903C31.2903 104.672 28.1439 105.302 25.8606 106.408C25.7742 106.856 25.7221 107.312 25.7047 107.771C25.5153 112.271 27.186 120.417 27.186 120.417C27.186 120.417 28.5448 142.952 31.2736 149.562C31.7002 150.603 32.2638 151.561 32.9443 152.404C34.6335 154.43 36.9466 155.606 39.3819 155.676C44.082 155.875 54.4513 156.216 58.5612 155.567Z" fill="#202850"/>
<path opacity="0.5" d="M58.5612 155.567C59.8754 155.355 61.5183 155.065 63.2669 154.731C61.1625 154.606 59.0975 154.023 57.1801 153.014C51.3717 149.504 50.542 132.987 51.3717 124.519C52.2015 116.052 46.3876 105.527 35.3834 104.903C31.2903 104.672 28.1439 105.302 25.8606 106.408C25.7742 106.856 25.7221 107.312 25.7047 107.771C25.5153 112.271 27.186 120.417 27.186 120.417C27.186 120.417 28.5448 142.952 31.2736 149.562C31.7002 150.603 32.2638 151.561 32.9443 152.404C34.6335 154.43 36.9466 155.606 39.3819 155.676C44.082 155.875 54.4513 156.216 58.5612 155.567Z" fill="white"/>
<path d="M27.186 120.417C27.186 120.417 25.5153 112.271 25.7047 107.771C25.894 103.27 29.4136 97.4839 39.2538 98.1269C49.0941 98.7698 54.2898 109.7 53.5492 118.489C52.8085 127.278 53.5492 144.418 58.7449 148.064C63.9407 151.709 75.6354 149.137 75.6354 149.137C75.6354 149.137 77.3061 149.562 76.0085 151.066C74.711 152.571 63.9407 154.705 58.5612 155.567C54.4513 156.21 44.082 155.875 39.393 155.676C36.9577 155.606 34.6446 154.43 32.9554 152.403C32.2749 151.561 31.7114 150.603 31.2847 149.562C28.5448 142.952 27.186 120.417 27.186 120.417Z" stroke="#263238" stroke-linecap="round" stroke-linejoin="round"/>
<path d="M200 196.49H8.11255V200H200V196.49Z" fill="#263238"/>
</svg>
