<svg width="200" height="200" viewBox="0 0 200 200" fill="none" xmlns="http://www.w3.org/2000/svg">
<path d="M17.3667 65.9105C17.0556 65.9105 16.805 62.5541 16.805 58.412C16.805 54.2698 17.0556 50.9135 17.3667 50.9135C17.6778 50.9135 17.9328 54.2698 17.9328 58.412C17.9328 62.5541 17.6778 65.9105 17.3667 65.9105Z" fill="#E0E0E0"/>
<path d="M13.3437 61.7727C13.0326 61.7727 12.782 60.1745 12.782 58.2211C12.782 56.2676 13.0326 54.6694 13.3437 54.6694C13.6548 54.6694 13.9054 56.2676 13.9054 58.2211C13.9054 60.1745 13.6548 61.7727 13.3437 61.7727Z" fill="#E0E0E0"/>
<path d="M9.30343 60.6184C8.99663 60.6184 8.70279 59.8104 8.65526 58.776C8.60773 57.7416 8.81946 56.898 9.12626 56.8803C9.43306 56.8625 9.73122 57.6883 9.77876 58.7227C9.82629 59.7572 9.61455 60.6007 9.30343 60.6184Z" fill="#E0E0E0"/>
<path d="M21.5712 62.2744C21.2601 62.2744 21.0483 60.3565 21.0915 57.9991C21.1347 55.6417 21.4243 53.7371 21.7354 53.7459C22.0465 53.7548 22.2626 55.6639 22.215 58.0213C22.1675 60.3787 21.8823 62.2833 21.5712 62.2744Z" fill="#E0E0E0"/>
<path d="M26.1429 60.7072C25.8318 60.7072 25.5769 59.8726 25.5769 58.8426C25.5769 57.8126 25.8318 56.9735 26.1429 56.9735C26.4541 56.9735 26.7047 57.8082 26.7047 58.8426C26.7047 59.877 26.4541 60.7072 26.1429 60.7072Z" fill="#E0E0E0"/>
<path d="M31.8209 58.8426C31.8209 58.8426 31.8209 58.7582 31.8209 58.6029C31.8209 58.4475 31.795 58.1989 31.7734 57.897C31.7734 57.7416 31.7734 57.5684 31.7432 57.3775C31.7129 57.1866 31.6827 56.9824 31.6524 56.756C31.5882 56.24 31.4871 55.7295 31.3499 55.2288C31.0136 53.84 30.473 52.5121 29.7468 51.2908C28.6966 49.4962 27.2891 47.9499 25.6165 46.7532C23.9439 45.5566 22.0441 44.7367 20.0415 44.3473C19.4417 44.2354 18.8355 44.1642 18.2266 44.1342C17.9155 44.1342 17.6044 44.0898 17.2889 44.0986L16.3383 44.1475C16.1784 44.1475 16.0185 44.1475 15.8586 44.1786L15.379 44.254C15.0592 44.3118 14.7351 44.3473 14.4154 44.4183C13.7654 44.5663 13.1259 44.7592 12.5011 44.9955C11.8589 45.2312 11.2337 45.5131 10.63 45.839C10.3276 46.0077 10.038 46.203 9.73555 46.3895C9.43327 46.5717 9.14442 46.7765 8.87132 47.0022C8.29818 47.4362 7.75527 47.911 7.24657 48.4228C6.72566 48.9617 6.24196 49.5373 5.79899 50.1454C4.90844 51.3761 4.21683 52.7463 3.75076 54.2032C2.76559 57.2209 2.76559 60.4865 3.75076 63.5042C4.21726 64.9582 4.90888 66.3253 5.79899 67.5531C6.22959 68.1529 6.69877 68.7225 7.20336 69.2579C7.71555 69.769 8.25974 70.245 8.83243 70.683C9.10765 70.9058 9.3963 71.1104 9.69666 71.2957C9.99914 71.4777 10.2887 71.6731 10.5911 71.8418C11.1956 72.1672 11.8207 72.4505 12.4622 72.6897C13.0876 72.924 13.727 73.1168 14.3765 73.2669C14.6962 73.3335 15.0246 73.3734 15.3444 73.4267L15.8197 73.5022C15.9796 73.5022 16.1395 73.5022 16.2994 73.5377L17.25 73.5865C17.5655 73.5865 17.8766 73.5599 18.1877 73.551C18.7969 73.522 19.4033 73.4493 20.0026 73.3335C22.0059 72.9462 23.9066 72.1271 25.5795 70.9303C27.2524 69.7335 28.6594 68.186 29.7079 66.3899C30.4332 65.1698 30.9738 63.8435 31.311 62.4564C31.4487 61.9543 31.5498 61.4423 31.6135 60.9248C31.6438 60.7028 31.687 60.4808 31.7043 60.3032C31.7216 60.1256 31.7259 59.9436 31.7345 59.7882C31.7345 59.4819 31.7691 59.251 31.782 59.0823C31.795 58.9136 31.782 58.8426 31.782 58.8426C31.782 58.8426 31.782 58.9225 31.782 59.0823C31.782 59.2422 31.782 59.4863 31.782 59.7882C31.782 59.9436 31.782 60.1212 31.782 60.3121C31.782 60.503 31.7302 60.7072 31.6999 60.9337C31.6445 61.4552 31.5506 61.9717 31.4191 62.4786C31.0937 63.8857 30.5603 65.2332 29.8375 66.4743C28.7871 68.2944 27.372 69.8643 25.6861 71.0798C24.0002 72.2953 22.082 73.1286 20.0588 73.5244C19.4509 73.6417 18.8358 73.7159 18.218 73.7464C17.9068 73.7464 17.5914 73.7908 17.2716 73.7863L16.308 73.7375C16.1481 73.7375 15.9839 73.7375 15.8197 73.7064L15.3358 73.6309C15.0117 73.5777 14.6833 73.5377 14.3549 73.4711C13.6963 73.3216 13.0481 73.1273 12.4147 72.8895C11.7632 72.6489 11.1281 72.3642 10.5134 72.0371C10.2066 71.864 9.9084 71.6642 9.60592 71.4822C9.30415 71.2958 9.01537 71.0882 8.74169 70.8606C8.16092 70.4178 7.60948 69.9358 7.09101 69.4177C6.57658 68.8746 6.09871 68.2961 5.66071 67.6863C4.75479 66.435 4.05013 65.0425 3.5736 63.5619C2.5682 60.499 2.5682 57.1818 3.5736 54.1188C4.04685 52.6377 4.7502 51.2449 5.65639 49.9945C6.09439 49.3846 6.57226 48.8062 7.08669 48.263C7.60521 47.7464 8.15666 47.2658 8.73737 46.8246C9.01105 46.597 9.29983 46.3893 9.6016 46.203C9.9084 46.0166 10.2022 45.8168 10.509 45.6481C11.1235 45.3268 11.7588 45.0494 12.4103 44.8179C13.0438 44.5801 13.692 44.3858 14.3505 44.2363C14.6789 44.1652 15.0074 44.1297 15.3314 44.072L15.8154 43.9965C15.9796 43.9965 16.1395 43.9965 16.3037 43.9655L17.2673 43.9166C17.5828 43.9166 17.9025 43.9477 18.2136 43.9566C18.8314 43.9907 19.4463 44.0664 20.0545 44.183C22.0787 44.5806 23.9975 45.4161 25.6834 46.6339C27.3694 47.8517 28.784 49.424 29.8332 51.2464C30.5557 52.4876 31.0891 53.8351 31.4148 55.2421C31.5459 55.7476 31.6397 56.2626 31.6956 56.7826C31.7259 57.009 31.7604 57.2266 31.7777 57.4086C31.795 57.5906 31.7777 57.7726 31.7777 57.928C31.7777 58.2344 31.7777 58.4697 31.7777 58.6384C31.7777 58.8071 31.8209 58.8426 31.8209 58.8426Z" fill="#E0E0E0"/>
<path d="M120.698 27.2104C119.877 27.2104 119.063 27.0441 118.304 26.721C117.545 26.398 116.855 25.9244 116.274 25.3275C115.693 24.7305 115.232 24.0219 114.918 23.2419C114.603 22.462 114.441 21.626 114.441 20.7818V13.2345C114.441 12.3899 114.602 11.5535 114.916 10.773C115.231 9.99255 115.691 9.28335 116.272 8.68593C116.853 8.08852 117.543 7.61459 118.303 7.29125C119.062 6.96791 119.876 6.80148 120.698 6.80148C122.358 6.80148 123.949 7.47878 125.123 8.68436C126.296 9.88995 126.955 11.5251 126.955 13.23V20.7774C126.956 21.622 126.794 22.4584 126.48 23.2388C126.166 24.0193 125.705 24.7285 125.124 25.3259C124.543 25.9233 123.853 26.3973 123.094 26.7206C122.334 27.0439 121.52 27.2104 120.698 27.2104Z" fill="#F5F5F5"/>
<path d="M120.698 31.1261C118.249 31.1238 115.9 30.123 114.168 28.3434C112.436 26.5638 111.462 24.1509 111.46 21.6342H112.354C112.356 23.9072 113.236 26.0863 114.801 27.6936C116.365 29.3008 118.486 30.2048 120.698 30.2071C125.607 30.2071 129.038 26.6554 129.038 21.6342H129.937C129.937 27.2192 126.134 31.1217 120.698 31.1261Z" fill="#F5F5F5"/>
<path d="M121.143 30.6644H120.249V35.3126H121.143V30.6644Z" fill="#F5F5F5"/>
<path d="M126.16 34.6467H115.236V35.5657H126.16V34.6467Z" fill="#F5F5F5"/>
<path d="M111.473 11.0058C110.909 10.9255 110.362 10.7469 109.857 10.4775C108.526 9.89589 108.076 9.58956 108.236 9.11008L108.297 8.91918L108.508 8.80819C108.975 8.59064 110.159 9.09232 110.388 9.19443C110.617 9.29654 111.792 9.82486 111.965 10.3221L112.03 10.5086L111.939 10.7305C111.898 10.8199 111.831 10.8942 111.748 10.9434C111.665 10.9926 111.568 11.0144 111.473 11.0058V11.0058Z" fill="#F5F5F5"/>
<path d="M115.046 6.19325C114.761 6.19325 114.329 5.86472 113.43 4.61275C112.363 3.12104 112.415 2.76143 112.436 2.64156L112.462 2.4551L112.778 2.1976L112.989 2.2198C113.106 2.2198 113.46 2.29527 114.523 3.78254C115.772 5.52287 115.63 5.8514 115.327 6.07782C115.248 6.14698 115.15 6.18755 115.046 6.19325V6.19325Z" fill="#F5F5F5"/>
<path d="M120.56 4.45293L120.387 4.30198C120.301 4.21763 120.046 3.96901 120.063 2.21537C120.08 0.46172 120.344 0.217541 120.43 0.133189L120.577 0H120.802C121.074 0.0221981 121.45 0.0532753 121.424 2.2198C121.398 4.38633 121.027 4.41741 120.754 4.43961L120.56 4.45293Z" fill="#F5F5F5"/>
<path d="M126.048 5.70046L125.862 5.54951C125.469 5.17659 125.823 4.66159 126.592 3.59164C127.362 2.5217 127.759 2.04222 128.221 2.32636L128.394 2.43291L128.455 2.67265C128.563 3.21872 127.772 4.31086 127.681 4.44849C127.591 4.58612 126.787 5.65162 126.251 5.70046H126.048Z" fill="#F5F5F5"/>
<path d="M130.097 10.9348C130.008 10.9431 129.918 10.9228 129.841 10.8767C129.763 10.8305 129.702 10.7609 129.665 10.6773C129.423 10.2333 129.885 9.8737 130.097 9.69611C130.421 9.44609 130.76 9.21772 131.112 9.01241C132.772 8.04458 133.078 8.26212 133.247 8.56845C133.489 9.01241 133.027 9.37202 132.815 9.54961C132.492 9.79958 132.153 10.0265 131.799 10.2289C130.896 10.7616 130.395 10.9348 130.097 10.9348Z" fill="#F5F5F5"/>
<path d="M146.668 198.428C139.016 194.877 135.866 186.126 134.647 177.957C134.444 176.594 134.042 175.196 134.453 173.886C134.863 172.577 136.181 171.489 137.477 171.835C138.54 172.119 139.18 173.207 139.901 174.055C140.864 175.207 142.126 176.054 143.54 176.497C144.46 176.785 145.549 176.861 146.292 176.235C147.317 175.373 147.157 173.731 146.906 172.386C146.436 169.879 145.967 167.37 145.497 164.86C145.176 163.529 145.065 162.153 145.169 160.785C145.346 159.431 146.033 158.068 147.217 157.473C148.401 156.878 150.073 157.318 150.575 158.587C150.726 159.135 150.84 159.693 150.916 160.257C151.054 160.812 151.422 161.38 151.966 161.438C152.511 161.495 152.973 160.994 153.293 160.55C154.399 158.929 155.021 156.998 155.544 155.098C156.067 153.198 156.598 151.249 157.558 149.531C158.517 147.812 160.003 146.312 161.879 145.846C163.754 145.379 165.954 146.183 166.77 147.99C167.587 149.797 166.861 151.928 165.967 153.69C164.632 156.312 162.935 158.721 160.928 160.843C160.524 161.185 160.238 161.652 160.111 162.175C159.99 163.129 160.976 163.862 161.896 163.99C162.933 164.141 163.975 163.835 165.02 163.759C166.066 163.684 167.259 163.941 167.825 164.86C168.611 166.135 167.751 167.791 166.818 168.949C164.95 171.263 162.709 173.23 160.194 174.765C159.295 175.311 158.335 175.826 157.683 176.67C157.031 177.513 156.78 178.814 157.424 179.675C158.068 180.537 159.325 180.608 160.302 180.222C161.278 179.835 162.078 179.098 162.976 178.543C164.649 177.5 166.999 177.185 168.443 178.566C168.895 179.048 169.232 179.632 169.427 180.272C169.622 180.911 169.67 181.589 169.566 182.25C169.351 183.569 168.881 184.829 168.183 185.958C165.964 190.019 162.736 193.403 158.828 195.765C154.917 198.051 151.119 199.192 146.681 198.428" fill="#EBEBEB"/>
<path d="M147.343 199.907C147.049 196.635 147.368 197.274 147.801 192.959C148.315 188.288 149.091 183.651 150.125 179.072C150.389 177.855 150.653 176.648 150.912 175.462C151.171 174.277 151.435 173.105 151.754 171.973C152.379 169.802 153.119 167.667 153.971 165.58C154.775 163.577 155.605 161.713 156.391 159.972C157.177 158.232 157.955 156.625 158.716 155.191C159.908 152.923 161.273 150.755 162.799 148.709C163.335 147.986 163.771 147.439 164.07 147.071L164.415 146.654C164.452 146.605 164.494 146.56 164.541 146.52C164.508 146.573 164.471 146.623 164.433 146.671C164.355 146.778 164.247 146.924 164.109 147.115C163.823 147.493 163.4 148.052 162.873 148.785C161.382 150.848 160.045 153.024 158.871 155.293C158.119 156.727 157.359 158.334 156.577 160.075C155.795 161.815 154.974 163.684 154.179 165.682C153.336 167.765 152.605 169.893 151.988 172.057C151.668 173.185 151.413 174.348 151.149 175.533C150.886 176.719 150.631 177.922 150.363 179.143C149.335 183.713 148.557 188.339 148.034 192.999C147.602 197.296 147.252 196.644 147.524 199.902" fill="#E0E0E0"/>
<path d="M151.815 171.951C151.717 171.777 151.639 171.592 151.582 171.4C151.448 171.04 151.266 170.512 151.054 169.864C150.622 168.532 150.095 166.73 149.516 164.718C148.937 162.707 148.384 160.891 147.934 159.595C147.714 158.947 147.533 158.423 147.399 158.063C147.318 157.882 147.259 157.691 147.221 157.495C147.327 157.663 147.416 157.841 147.485 158.028C147.645 158.379 147.857 158.894 148.099 159.533C148.587 160.82 149.17 162.641 149.749 164.647C150.328 166.654 150.825 168.434 151.219 169.806C151.396 170.428 151.551 170.952 151.672 171.369C151.742 171.556 151.79 171.752 151.815 171.951V171.951Z" fill="#E0E0E0"/>
<path d="M168.088 165.495C167.877 165.588 167.657 165.659 167.432 165.708C166.999 165.828 166.39 166.001 165.634 166.241C164.122 166.707 162.052 167.427 159.805 168.323C157.558 169.22 155.557 170.126 154.127 170.823C153.414 171.165 152.83 171.458 152.441 171.658C152.243 171.777 152.033 171.875 151.815 171.951C151.997 171.806 152.192 171.679 152.398 171.573C152.783 171.342 153.345 171.023 154.053 170.659C155.466 169.922 157.463 168.985 159.714 168.084C161.637 167.31 163.597 166.637 165.586 166.068C166.347 165.851 166.973 165.704 167.41 165.624C167.632 165.56 167.859 165.517 168.088 165.495V165.495Z" fill="#E0E0E0"/>
<path d="M147.965 192.599C147.965 192.599 147.904 192.541 147.809 192.413L147.407 191.84C147.062 191.343 146.578 190.606 145.994 189.691C144.819 187.862 143.281 185.283 141.617 182.415C139.953 179.547 138.432 176.954 137.296 175.103L135.948 172.914L135.585 172.315C135.536 172.249 135.498 172.175 135.472 172.097C135.53 172.154 135.581 172.218 135.624 172.288C135.736 172.443 135.866 172.63 136.025 172.861C136.375 173.358 136.855 174.09 137.443 175.005C138.614 176.834 140.156 179.414 141.82 182.286C143.484 185.158 145 187.742 146.141 189.594L147.489 191.782L147.857 192.382C147.899 192.45 147.935 192.523 147.965 192.599V192.599Z" fill="#E0E0E0"/>
<path d="M169.013 180.905C168.951 180.962 168.881 181.008 168.806 181.043L168.196 181.389L165.941 182.646C164.039 183.711 161.425 185.207 158.543 186.863C155.661 188.519 153.025 189.998 151.102 191.019C150.138 191.529 149.373 191.933 148.807 192.204L148.176 192.51C148.106 192.552 148.031 192.582 147.952 192.599C148.013 192.544 148.081 192.497 148.155 192.462L148.764 192.115L151.02 190.859C152.925 189.798 155.535 188.302 158.422 186.641C161.308 184.981 163.936 183.507 165.859 182.486C166.822 181.975 167.587 181.571 168.153 181.305L168.784 180.998C168.856 180.958 168.933 180.926 169.013 180.905V180.905Z" fill="#E0E0E0"/>
<path d="M200 199.885C200 199.951 155.224 200 100.004 200C44.7844 200 0 199.951 0 199.885C0 199.818 44.7671 199.76 100 199.76C155.233 199.76 200 199.822 200 199.885Z" fill="#263238"/>
<path d="M24.9114 186.885C25.3435 185.047 24.1811 183.214 22.8632 181.891C21.5452 180.568 19.968 179.382 19.2723 177.624C18.1531 174.783 19.618 171.08 17.7167 168.71C16.6018 167.32 14.6055 166.863 13.6116 165.371C13.1517 164.549 12.8454 163.645 12.7085 162.707C11.6327 157.974 9.3406 153.625 6.07121 150.112C5.87317 154.336 6.78671 158.537 8.71575 162.272C9.48924 163.764 10.4442 165.216 10.6992 166.885C11.1313 169.593 9.6664 172.394 10.3275 175.049C11.0881 178.09 14.4283 180.111 14.6012 183.24C14.7481 185.904 12.514 188.231 12.6955 190.877C12.8373 192.002 13.2372 193.076 13.8622 194.011C15.8759 197.403 18.8186 199.734 23.2564 199.631L28.7011 199.76L24.9114 186.885Z" fill="#202850"/>
<g opacity="0.3">
<path opacity="0.3" d="M24.9114 186.885C25.3435 185.047 24.1811 183.214 22.8632 181.891C21.5452 180.568 19.968 179.382 19.2723 177.624C18.1531 174.783 19.618 171.08 17.7167 168.71C16.6018 167.32 14.6055 166.863 13.6116 165.371C13.1517 164.549 12.8454 163.645 12.7085 162.707C11.6327 157.974 9.3406 153.625 6.07121 150.112C5.87317 154.336 6.78671 158.537 8.71575 162.272C9.48924 163.764 10.4442 165.216 10.6992 166.885C11.1313 169.593 9.6664 172.394 10.3275 175.049C11.0881 178.09 14.4283 180.111 14.6012 183.24C14.7481 185.904 12.514 188.231 12.6955 190.877C12.8373 192.002 13.2372 193.076 13.8622 194.011C15.8759 197.403 18.8186 199.734 23.2564 199.631L28.7011 199.76L24.9114 186.885Z" fill="black"/>
</g>
<path d="M29.7943 199.916C29.7943 199.916 29.9283 199.916 30.1746 199.916C30.55 199.91 30.9243 199.873 31.2937 199.805C31.8835 199.698 32.4621 199.534 33.0222 199.316C33.7921 199.025 34.5092 198.603 35.1439 198.069C35.5154 197.754 35.8037 197.347 35.9822 196.888C36.133 196.36 36.2087 195.813 36.2069 195.263C36.2066 194.652 36.2412 194.041 36.3106 193.434C36.4105 192.772 36.6351 192.138 36.9717 191.565C37.6199 190.37 38.6483 189.278 38.9551 187.773C39.2619 186.268 39.0243 184.666 38.752 182.97C38.4798 181.274 38.2076 179.418 38.8385 177.593C39.4694 175.769 40.6058 174.193 41.1589 172.288C41.712 170.383 41.4312 168.27 41.5392 166.112C41.5719 165.003 41.8125 163.91 42.2479 162.894C42.68 161.868 43.3022 160.931 43.7559 159.915C44.672 157.877 44.8319 155.528 45.0782 153.18C45.1992 152.003 45.3202 150.809 45.4455 149.606C45.5183 148.376 45.7167 147.157 46.0375 145.97C46.4015 144.777 46.8344 143.607 47.3338 142.467C47.5818 141.904 47.7828 141.32 47.9345 140.722C48.0193 140.104 48.0726 139.482 48.0944 138.858C48.1451 137.585 48.0902 136.311 47.9302 135.048C47.7746 133.774 47.5413 132.496 47.3987 131.19C47.3987 131.115 47.3987 131.035 47.3727 130.964L47.619 131.106C46.5178 131.692 45.5626 132.531 44.8276 133.557C44.1035 134.577 43.5218 135.696 43.0991 136.882C42.2349 139.239 41.9065 141.73 41.4571 144.145C41.0077 146.56 40.433 148.971 39.2101 151.031C38.6008 152.052 37.8835 152.967 37.2656 153.921C36.6191 154.828 36.1764 155.872 35.9692 156.976C35.6538 159.196 36.9242 161.255 36.6736 163.489C36.5457 164.559 36.1981 165.59 35.6538 166.512C35.1482 167.427 34.5649 168.261 34.0204 169.091C33.4701 169.886 32.9914 170.73 32.5901 171.613C32.2226 172.471 32.006 173.39 31.9506 174.326C31.8209 176.168 32.0845 177.957 31.9506 179.684C31.7981 181.32 31.3357 182.91 30.5894 184.364C29.9239 185.749 29.1937 186.992 28.5801 188.191C28.2784 188.768 28.0058 189.36 27.7634 189.966C27.5458 190.523 27.3879 191.102 27.2924 191.693C27.1274 192.733 27.1099 193.792 27.2405 194.837C27.374 196.296 27.8907 197.691 28.7356 198.872C29.0497 199.265 29.4047 199.621 29.7943 199.933C29.7943 199.933 29.6863 199.867 29.4832 199.711C29.3532 199.623 29.233 199.52 29.1245 199.405C28.9681 199.254 28.8236 199.091 28.6924 198.917C27.81 197.741 27.2638 196.336 27.1152 194.859C26.9643 193.802 26.9643 192.728 27.1152 191.671C27.2092 191.064 27.3657 190.469 27.5819 189.895C27.8248 189.29 28.0974 188.697 28.3986 188.12C29.0035 186.912 29.7295 185.664 30.3777 184.288C31.0969 182.856 31.5373 181.294 31.674 179.689C31.7993 177.997 31.5271 176.213 31.674 174.33C31.7259 173.362 31.9469 172.412 32.3265 171.524C32.7308 170.619 33.2139 169.752 33.7698 168.936C34.3142 168.101 34.8933 167.271 35.3815 166.374C35.9036 165.489 36.2365 164.499 36.3581 163.471C36.6088 161.375 35.3297 159.306 35.6408 156.945C35.8473 155.792 36.3021 154.701 36.9717 153.753C37.594 152.776 38.3113 151.866 38.9033 150.867C40.0873 148.865 40.6663 146.498 41.0984 144.096C41.5305 141.695 41.8589 139.177 42.7534 136.771C43.1866 135.551 43.786 134.4 44.5337 133.353C45.2992 132.282 46.2962 131.408 47.4462 130.8L47.6666 130.684L47.6925 130.942C47.6925 131.008 47.6925 131.088 47.7184 131.164C47.861 132.456 48.0944 133.73 48.2499 135.017C48.4122 136.299 48.4671 137.593 48.4141 138.884C48.3933 139.528 48.3385 140.169 48.2499 140.807C48.0929 141.427 47.8862 142.033 47.632 142.618C47.1331 143.745 46.7003 144.901 46.3357 146.081C46.0209 147.25 45.8254 148.449 45.7523 149.659C45.6284 150.861 45.5046 152.045 45.3807 153.211C45.1301 155.546 44.9745 157.935 44.0195 160.043C43.5485 161.087 42.9436 162.024 42.5071 163.018C42.083 163.998 41.8482 165.054 41.8157 166.126C41.7034 168.239 41.9929 170.374 41.4096 172.368C40.8262 174.361 39.6422 175.92 39.0675 177.695C38.4928 179.471 38.7088 181.269 38.9681 182.943C39.2274 184.617 39.5082 186.295 39.1453 187.827C38.7823 189.358 37.7495 190.49 37.1143 191.662C36.7915 192.212 36.5757 192.821 36.4791 193.456C36.4067 194.055 36.3677 194.659 36.3625 195.263C36.3592 195.829 36.2762 196.391 36.1161 196.932C35.9221 197.412 35.6165 197.836 35.226 198.166C34.5768 198.699 33.8469 199.119 33.0654 199.409C32.4915 199.625 31.898 199.781 31.2937 199.876C30.8001 199.98 30.2925 199.993 29.7943 199.916V199.916Z" fill="#263238"/>
<path d="M46.6122 134.001C46.6208 134.06 46.6208 134.119 46.6122 134.178C46.5863 134.312 46.5604 134.48 46.5258 134.689C46.4437 135.133 46.3443 135.794 46.1585 136.647C45.9727 137.499 45.4931 138.454 45.0998 139.604C44.7066 140.753 44.2658 142.081 43.8813 143.573C43.4967 145.064 43.151 146.711 42.788 148.492C42.425 150.272 42.0318 152.212 41.0812 154.041C40.649 154.96 40.1521 155.879 39.7848 156.86C39.4116 157.869 39.1634 158.922 39.0459 159.995C38.7868 162.278 38.4089 164.545 37.9138 166.787L34.889 179.715L32.2963 190.242C31.5487 193.212 30.9437 195.627 30.5203 197.345L29.9974 199.254C29.9412 199.454 29.898 199.618 29.8591 199.751C29.8203 199.885 29.8073 199.92 29.7986 199.916C29.8017 199.857 29.8104 199.799 29.8246 199.742C29.8534 199.609 29.8879 199.441 29.9283 199.236C30.0363 198.766 30.1832 198.118 30.3604 197.296L32.0327 190.193C32.75 187.183 33.6056 183.613 34.5519 179.649C35.4982 175.684 36.4878 171.307 37.5551 166.725C38.0485 164.492 38.4264 162.233 38.6872 159.959C38.8115 158.861 39.0684 157.782 39.4521 156.749C39.8453 155.741 40.3422 154.818 40.783 153.908C41.725 152.132 42.1096 150.214 42.5115 148.443C42.9133 146.671 43.2461 145.011 43.6522 143.519C44.0584 142.028 44.4905 140.696 44.9227 139.55C45.3548 138.405 45.8258 137.45 46.0332 136.625C46.2406 135.799 46.3573 135.128 46.4653 134.689L46.582 134.183C46.5866 134.121 46.5967 134.06 46.6122 134.001V134.001Z" fill="#263238"/>
<path d="M30.758 199.929C34.297 197.74 35.2779 191.147 33.7828 187.196C32.2876 183.245 29.669 179.649 29.2456 175.413C28.9171 172.168 29.9369 168.825 29.1807 165.646C28.1653 161.371 24.0731 158.077 24.0991 153.659C24.0991 151.186 25.4645 148.851 25.3436 146.387C25.1923 143.359 22.9194 140.971 21.5021 138.312C19.3415 134.24 19.1686 129.432 18.4081 124.842C17.6476 120.251 15.9148 115.408 11.9566 113.188C11.3949 117.077 10.414 119.745 10.7554 125.011C10.8764 126.897 13.0369 130.507 13.348 134.649C13.5382 137.122 13.6721 139.604 13.832 142.081C13.9876 144.492 14.1518 146.964 15.0074 149.184C15.6642 150.911 16.7056 152.478 17.1939 154.259C18.1143 157.611 16.9519 161.256 17.6994 164.656C18.3303 167.538 20.2921 170.006 20.6983 172.927C21.2774 177.029 18.7149 181.314 20.0631 185.225C20.7286 187.165 22.2928 188.715 22.7465 190.721C23.0966 192.275 22.7465 193.927 23.0533 195.489C23.5676 198.011 28.2387 199.929 30.758 199.769" fill="#202850"/>
<path d="M12.9548 117.024C12.9782 117.093 12.9956 117.164 13.0067 117.237C13.0369 117.397 13.0758 117.605 13.1233 117.867C13.2314 118.422 13.3523 119.252 13.5554 120.3C13.7585 121.348 14.3332 122.52 14.7913 123.994C15.332 125.634 15.792 127.301 16.1697 128.988C16.6019 130.862 16.9691 132.935 17.3494 135.159C17.7297 137.384 18.1315 139.768 19.2161 142.05C19.7217 143.204 20.2964 144.372 20.7329 145.641C21.161 146.934 21.4296 148.276 21.5323 149.637C21.7592 152.485 22.1328 155.318 22.6515 158.126C23.762 163.875 24.812 169.353 25.78 174.339C26.7479 179.325 27.6683 183.791 28.4245 187.56C29.1807 191.329 29.7597 194.353 30.1789 196.484C30.3733 197.523 30.5289 198.335 30.6369 198.912C30.6845 199.174 30.719 199.383 30.7493 199.547C30.7637 199.619 30.7724 199.692 30.7752 199.765C30.7468 199.698 30.7265 199.628 30.7147 199.556C30.6758 199.396 30.6283 199.188 30.5678 198.926C30.4425 198.353 30.2696 197.545 30.0449 196.51L28.1825 187.631C27.409 183.862 26.4886 179.391 25.4688 174.423L22.3101 158.205C21.8004 155.395 21.4369 152.558 21.2212 149.708C21.1275 148.367 20.869 147.044 20.452 145.77C20.0199 144.527 19.4581 143.364 18.9569 142.218C17.8636 139.905 17.4747 137.459 17.0945 135.248C16.7142 133.037 16.3772 130.951 15.9623 129.082C15.5475 127.213 15.0981 125.53 14.6314 124.092C14.1647 122.653 13.6505 121.428 13.4431 120.362C13.2357 119.297 13.1579 118.475 13.0715 117.916L12.9894 117.277C12.9687 117.194 12.9571 117.109 12.9548 117.024V117.024Z" fill="#263238"/>
<path d="M146.305 175.493C146.843 175.757 147.324 176.128 147.72 176.586C148.115 177.043 148.417 177.577 148.609 178.157C148.978 179.326 149.083 180.567 148.915 181.784C148.652 184.137 147.351 186.512 145.951 188.395C144.019 186.668 143.574 183.649 143.445 182.099C143.237 179.658 144.309 175.112 146.305 175.476" fill="#202850"/>
<path d="M148.194 192.302C148.061 191.629 148.105 190.931 148.319 190.281C148.534 189.631 148.913 189.05 149.417 188.599C149.927 188.157 150.519 187.825 151.156 187.62C151.793 187.416 152.464 187.344 153.129 187.409C153.437 187.405 153.742 187.471 154.023 187.6C154.305 187.73 154.555 187.921 154.758 188.16C154.907 188.413 154.988 188.703 154.993 188.999C154.997 189.296 154.925 189.588 154.784 189.847C154.489 190.359 154.069 190.783 153.565 191.076C151.893 192.155 150.082 192.883 148.194 192.302" fill="#202850"/>
<path d="M145.718 199.521C145.724 199.357 145.747 199.195 145.787 199.037C145.847 198.695 145.925 198.255 146.02 197.727C146.231 196.272 146.669 194.861 147.317 193.549C147.998 192.242 149.005 191.144 150.233 190.366C150.608 190.139 151.006 189.957 151.422 189.824C151.535 189.788 151.651 189.759 151.767 189.736C151.807 189.729 151.848 189.729 151.888 189.736C151.334 189.93 150.8 190.182 150.294 190.486C149.106 191.279 148.132 192.368 147.463 193.651C146.818 194.948 146.365 196.337 146.12 197.771C146.003 198.317 145.908 198.761 145.834 199.068C145.81 199.222 145.771 199.374 145.718 199.521Z" fill="#263238"/>
<path d="M145.804 179.032C145.811 179.101 145.811 179.171 145.804 179.24C145.804 179.396 145.826 179.6 145.839 179.849C145.869 180.377 145.899 181.141 145.929 182.068C145.986 183.955 146.033 186.561 146.02 189.443C146.007 192.324 145.942 194.93 145.865 196.817C145.83 197.758 145.791 198.522 145.761 199.037C145.761 199.285 145.731 199.481 145.718 199.645C145.717 199.715 145.71 199.785 145.696 199.854C145.687 199.783 145.687 199.711 145.696 199.64C145.696 199.485 145.696 199.281 145.696 199.032C145.696 198.486 145.726 197.727 145.748 196.812C145.791 194.926 145.843 192.319 145.856 189.443C145.869 186.566 145.856 183.96 145.808 182.073C145.808 181.145 145.783 180.386 145.774 179.853V179.245C145.777 179.173 145.787 179.102 145.804 179.032Z" fill="#263238"/>
<path d="M144.854 193.731C144.618 192.307 144.057 190.96 143.215 189.802C142.374 188.644 141.277 187.708 140.014 187.072C139.37 186.752 138.527 186.548 137.996 187.041C137.464 187.534 137.585 188.417 137.845 189.105C138.412 190.526 139.375 191.743 140.614 192.603C141.853 193.462 143.311 193.926 144.806 193.936" fill="#202850"/>
<path d="M140.325 189.296C140.467 189.342 140.605 189.403 140.735 189.478C140.894 189.554 141.048 189.639 141.198 189.731C141.371 189.842 141.582 189.953 141.79 190.113C142.023 190.274 142.248 190.448 142.464 190.632C142.714 190.843 142.953 191.067 143.181 191.303C143.699 191.848 144.155 192.451 144.542 193.101C144.919 193.759 145.22 194.459 145.441 195.187C145.533 195.506 145.608 195.829 145.666 196.155C145.721 196.44 145.76 196.727 145.783 197.017C145.804 197.253 145.815 197.49 145.813 197.727C145.827 197.907 145.827 198.088 145.813 198.269C145.811 198.418 145.794 198.567 145.761 198.713C145.726 198.713 145.791 198.06 145.679 197.017C145.644 196.759 145.614 196.475 145.545 196.173C145.476 195.871 145.398 195.556 145.307 195.227C145.08 194.515 144.78 193.829 144.413 193.181C144.032 192.542 143.586 191.946 143.082 191.405C142.862 191.169 142.63 190.945 142.386 190.735C142.166 190.526 141.954 190.362 141.734 190.202C140.891 189.602 140.312 189.327 140.325 189.296Z" fill="#263238"/>
<path d="M103.064 199.885L41.1071 199.592C37.5283 199.574 34.1029 198.097 31.5837 195.485C29.0645 192.874 27.6577 189.341 27.6726 185.664L28.3294 26.0827C28.3368 24.2612 28.6934 22.459 29.379 20.7792C30.0645 19.0993 31.0655 17.5747 32.3248 16.2925C33.584 15.0102 35.0769 13.9955 36.718 13.3062C38.3591 12.617 40.1163 12.2668 41.8892 12.2755L103.846 12.5685C105.618 12.5761 107.372 12.9424 109.007 13.6464C110.642 14.3505 112.125 15.3785 113.373 16.6718C114.621 17.9651 115.609 19.4984 116.28 21.184C116.951 22.8695 117.293 24.6745 117.285 26.4956L116.628 186.077C116.62 187.899 116.264 189.702 115.578 191.382C114.892 193.062 113.891 194.587 112.631 195.869C111.371 197.151 109.878 198.166 108.236 198.855C106.595 199.544 104.837 199.894 103.064 199.885V199.885Z" fill="#455A64"/>
<path d="M103.755 18.0781L91.7423 18.0204C90.9534 18.0356 90.2024 18.371 89.6534 18.9533C89.1044 19.5356 88.8021 20.3175 88.8126 21.1281V23.3479C88.8241 24.1589 88.5222 24.9414 87.973 25.524C87.4238 26.1066 86.6721 26.4416 85.8828 26.4556L62.4708 26.3446C62.0789 26.3343 61.6927 26.2446 61.3346 26.0807C60.9764 25.9169 60.6532 25.682 60.3834 25.3896C60.1137 25.0973 59.9028 24.7531 59.7627 24.3768C59.6226 24.0006 59.5561 23.5996 59.567 23.197V20.9772C59.5856 20.1649 59.2907 19.378 58.7467 18.7883C58.2027 18.1985 57.4537 17.8539 56.6632 17.8295H52.4371L41.9238 17.7806C40.6814 17.7736 39.4499 18.0182 38.2997 18.5005C37.1494 18.9827 36.1029 19.6932 35.22 20.5912C34.3372 21.4892 33.6352 22.5572 33.1543 23.7341C32.6734 24.911 32.4229 26.1737 32.4173 27.4501L31.7864 183.218C31.7795 184.494 32.0175 185.759 32.4866 186.941C32.9557 188.122 33.6468 189.197 34.5204 190.104C35.394 191.011 36.433 191.733 37.578 192.227C38.7229 192.721 39.9515 192.979 41.1935 192.985L103.029 193.278C104.271 193.285 105.503 193.041 106.653 192.559C107.804 192.076 108.85 191.366 109.733 190.468C110.616 189.57 111.318 188.502 111.799 187.325C112.28 186.148 112.53 184.885 112.536 183.609L113.175 27.8408C113.182 26.5639 112.944 25.2981 112.474 24.116C112.004 22.9338 111.311 21.8586 110.436 20.9517C109.561 20.0449 108.521 19.3243 107.374 18.8312C106.228 18.3381 104.998 18.0822 103.755 18.0781V18.0781Z" fill="#FAFAFA"/>
<path d="M73.036 136.323C73.0965 136.323 73.1484 140.238 73.1484 145.064C73.1484 149.89 73.0965 153.81 73.036 153.81C72.9755 153.81 72.9237 149.895 72.9237 145.064C72.9237 140.234 72.9755 136.323 73.036 136.323Z" fill="#202850"/>
<path d="M70.8193 138.245C70.8798 138.245 70.9316 141.233 70.9316 144.904C70.9316 148.576 70.8798 151.564 70.8193 151.564C70.7588 151.564 70.7069 148.576 70.7069 144.904C70.7069 141.233 70.7545 138.245 70.8193 138.245Z" fill="#202850"/>
<path d="M68.3217 140.154C68.3822 140.154 68.434 142.316 68.434 144.984C68.434 147.653 68.3822 149.819 68.3217 149.819C68.2612 149.819 68.2093 147.657 68.2093 144.984C68.2093 142.312 68.2612 140.154 68.3217 140.154Z" fill="#202850"/>
<path d="M66.1438 141.797C66.2994 143.59 66.2994 145.393 66.1438 147.186C65.9941 145.393 65.9941 143.59 66.1438 141.797V141.797Z" fill="#202850"/>
<path d="M64.2252 143.111C64.375 144.092 64.375 145.091 64.2252 146.072C64.0754 145.091 64.0754 144.092 64.2252 143.111V143.111Z" fill="#202850"/>
<path d="M62.0517 141.535C62.2014 143.328 62.2014 145.131 62.0517 146.924C61.8961 145.131 61.8961 143.328 62.0517 141.535V141.535Z" fill="#202850"/>
<path d="M60.0035 139.382C60.0639 139.382 60.1158 141.646 60.1158 144.443C60.1158 147.24 60.0639 149.508 60.0035 149.508C59.943 149.508 59.8868 147.24 59.8868 144.443C59.8868 141.646 59.9386 139.382 60.0035 139.382Z" fill="#202850"/>
<path d="M85.9736 140.154C86.034 140.154 86.0859 142.316 86.0859 144.984C86.0859 147.653 86.034 149.819 85.9736 149.819C85.9131 149.819 85.8612 147.657 85.8612 144.984C85.8612 142.312 85.9131 140.154 85.9736 140.154Z" fill="#202850"/>
<path d="M83.7957 141.797C83.9455 143.59 83.9455 145.393 83.7957 147.186C83.6459 145.393 83.6459 143.59 83.7957 141.797Z" fill="#202850"/>
<path d="M81.8771 143.111C82.0269 144.092 82.0269 145.091 81.8771 146.072C81.7273 145.091 81.7273 144.092 81.8771 143.111V143.111Z" fill="#202850"/>
<path d="M79.6906 140.745C79.8074 141.902 79.8463 143.067 79.8073 144.23C79.8463 145.393 79.8074 146.557 79.6906 147.715C79.5793 146.557 79.5418 145.393 79.5783 144.23C79.5418 143.067 79.5793 141.902 79.6906 140.745V140.745Z" fill="#202850"/>
<path d="M77.651 139.382C77.7158 139.382 77.7677 141.646 77.7677 144.443C77.7677 147.24 77.7158 149.508 77.651 149.508C77.5862 149.508 77.5387 147.24 77.5387 144.443C77.5387 141.646 77.5905 139.382 77.651 139.382Z" fill="#202850"/>
<path d="M75.1577 138.312C75.2182 138.312 75.2701 141.197 75.2701 144.754C75.2701 148.31 75.2182 151.2 75.1577 151.2C75.0972 151.2 75.0454 148.314 75.0454 144.754C75.0454 141.193 75.0929 138.312 75.1577 138.312Z" fill="#202850"/>
<path d="M88.2983 146.929C88.1486 145.136 88.1486 143.332 88.2983 141.539C88.4481 143.332 88.4481 145.136 88.2983 146.929V146.929Z" fill="#202850"/>
<path d="M90.2212 145.597C90.0714 144.616 90.0714 143.617 90.2212 142.636C90.371 143.617 90.371 144.616 90.2212 145.597V145.597Z" fill="#202850"/>
<path d="M57.9984 141.535C58.1482 143.328 58.1482 145.131 57.9984 146.924C57.8487 145.131 57.8487 143.328 57.9984 141.535Z" fill="#202850"/>
<path d="M56.0755 142.849C56.2254 143.828 56.2254 144.826 56.0755 145.806C55.9257 144.826 55.9257 143.828 56.0755 142.849Z" fill="#202850"/>
<path d="M54.1612 141.535C54.311 143.328 54.311 145.131 54.1612 146.924C54.0115 145.131 54.0115 143.328 54.1612 141.535V141.535Z" fill="#202850"/>
<path d="M52.113 139.382C52.1735 139.382 52.2254 141.646 52.2254 144.443C52.2254 147.24 52.1735 149.508 52.113 149.508C52.0525 149.508 52.0007 147.24 52.0007 144.443C52.0007 141.646 52.0352 139.382 52.113 139.382Z" fill="#202850"/>
<path d="M50.108 141.535C50.2578 143.328 50.2578 145.131 50.108 146.924C49.9583 145.131 49.9583 143.328 50.108 141.535V141.535Z" fill="#202850"/>
<path d="M48.1894 142.849C48.3393 143.828 48.3393 144.826 48.1894 145.806C48.0396 144.826 48.0396 143.828 48.1894 142.849V142.849Z" fill="#202850"/>
<path d="M96.3054 141.535C96.4552 143.328 96.4552 145.131 96.3054 146.924C96.1556 145.131 96.1556 143.328 96.3054 141.535Z" fill="#202850"/>
<path d="M94.2572 139.382C94.322 139.382 94.3695 141.646 94.3695 144.443C94.3695 147.24 94.322 149.508 94.2572 149.508C94.1924 149.508 94.1448 147.24 94.1448 144.443C94.1448 141.646 94.1967 139.382 94.2572 139.382Z" fill="#202850"/>
<path d="M92.2565 141.535C92.4063 143.328 92.4063 145.131 92.2565 146.924C92.1009 145.131 92.1009 143.328 92.2565 141.535V141.535Z" fill="#202850"/>
<path d="M90.3336 142.849C90.4834 143.828 90.4834 144.826 90.3336 145.806C90.1837 144.826 90.1837 143.828 90.3336 142.849V142.849Z" fill="#202850"/>
<path d="M98.8074 142.849C98.9572 143.828 98.9572 144.826 98.8074 145.806C98.6575 144.826 98.6575 143.828 98.8074 142.849V142.849Z" fill="#202850"/>
<g opacity="0.3">
<path opacity="0.3" d="M106.408 80.8853C106.408 80.8853 106.408 80.6988 106.382 80.3348C106.356 79.9707 106.382 79.4468 106.313 78.7232C106.178 76.6617 105.861 74.6171 105.367 72.6143C105.009 71.1671 104.557 69.7462 104.014 68.3611C103.378 66.7128 102.614 65.1197 101.728 63.5974C99.5568 59.8811 96.7179 56.6224 93.3627 53.9946C89.2862 50.8108 84.5424 48.6491 79.5091 47.6814C76.7151 47.1457 73.8651 46.986 71.031 47.2064C69.5512 47.3149 68.0801 47.5255 66.6278 47.8368C65.1356 48.1682 63.6661 48.5998 62.2288 49.1287C56.1162 51.4178 50.7997 55.5145 46.9493 60.9026C45.9442 62.3079 45.0484 63.7924 44.2702 65.3422C43.864 66.1147 43.5183 66.9227 43.1639 67.7307C42.8096 68.5387 42.5201 69.3734 42.2608 70.2258C41.1506 73.6627 40.5817 77.2596 40.5756 80.8808C40.5866 82.7022 40.731 84.5202 41.0077 86.3194C41.2823 88.0937 41.7 89.8415 42.2565 91.5448C42.5201 92.3972 42.8442 93.2185 43.1639 94.0398C43.4837 94.8612 43.8596 95.6559 44.2658 96.4284C48.0629 103.956 54.4742 109.743 62.2288 112.642C63.6661 113.171 65.1356 113.602 66.6278 113.934C70.8731 114.839 75.2486 114.891 79.5134 114.089C84.5457 113.123 89.2883 110.961 93.3627 107.776C96.7195 105.146 99.5586 101.884 101.728 98.1642C102.618 96.6432 103.386 95.05 104.023 93.4005C104.568 92.0173 105.021 90.5978 105.38 89.1518C105.871 87.1485 106.186 85.104 106.322 83.0429C106.382 82.337 106.369 81.7954 106.391 81.4314C106.413 81.0673 106.417 80.8853 106.417 80.8853C106.417 80.8853 106.417 81.0673 106.417 81.4314C106.417 81.7954 106.417 82.3193 106.369 83.0474C106.254 85.114 105.952 87.1651 105.466 89.174C104.689 92.3568 103.468 95.4074 101.841 98.2308C99.6727 101.971 96.8305 105.253 93.4664 107.9C91.5123 109.44 89.3943 110.746 87.1532 111.794C84.7294 112.94 82.1762 113.772 79.5523 114.271C76.7419 114.815 73.8745 114.981 71.0224 114.764C69.5326 114.655 68.0514 114.445 66.5889 114.134C65.0881 113.802 63.6101 113.371 62.164 112.842C56.0069 110.54 50.6511 106.417 46.7721 100.992C45.7615 99.5795 44.8599 98.0877 44.0757 96.5305C43.6436 95.7491 43.3195 94.9366 42.9608 94.1242C42.6022 93.3117 42.3127 92.4682 42.0491 91.6114C41.4898 89.8959 41.0678 88.1364 40.7873 86.3504C40.5106 84.5394 40.3662 82.7096 40.3552 80.8764C40.3621 77.2299 40.9339 73.6077 42.0491 70.1459C42.3127 69.289 42.6454 68.4632 42.9652 67.633C43.2849 66.8028 43.6695 66.0126 44.0757 65.2312C44.8608 63.6806 45.7639 62.1961 46.7764 60.7916C50.6539 55.3681 56.0084 51.2463 62.164 48.9467C63.6101 48.4177 65.0881 47.9861 66.5889 47.6548C68.0514 47.3434 69.5325 47.1328 71.0224 47.0244C73.8672 46.7968 76.7288 46.9506 79.535 47.4817C84.5936 48.4573 89.3591 50.6378 93.4491 53.8481C96.8135 56.4963 99.6569 59.7777 101.828 63.5175C102.715 65.0477 103.48 66.6498 104.114 68.3079C104.652 69.6992 105.1 71.1261 105.453 72.5788C105.939 74.5876 106.242 76.6388 106.356 78.7054C106.413 79.4158 106.391 79.9574 106.404 80.3214C106.417 80.6855 106.408 80.8853 106.408 80.8853Z" fill="#202850"/>
</g>
<path d="M102.23 80.1527C102.23 80.1527 102.23 79.9929 102.23 79.6777C102.23 79.3624 102.23 78.8963 102.165 78.2881C101.89 74.1215 100.75 70.0636 98.8213 66.3877C96.8922 62.7119 94.2191 59.5032 90.9818 56.9779C87.466 54.2333 83.3745 52.371 79.0338 51.5394C76.6242 51.0783 74.1667 50.9396 71.7224 51.1265C70.4445 51.2222 69.1742 51.4046 67.9198 51.6726C66.6344 51.9592 65.3685 52.3315 64.1301 52.7869C57.4451 55.2904 51.9172 60.2791 48.6388 66.7673C47.9511 68.119 47.373 69.5267 46.9104 70.976C44.9802 76.9453 44.9802 83.3956 46.9104 89.3649C47.3693 90.8171 47.9475 92.2265 48.6388 93.5781C49.3102 94.9128 50.0832 96.191 50.9506 97.4006C54.2714 102.05 58.8571 105.586 64.1301 107.563C65.3688 108.016 66.6346 108.387 67.9198 108.673C69.1738 108.943 70.4443 109.125 71.7224 109.219C74.1666 109.41 76.6247 109.272 79.0338 108.806C83.3745 107.974 87.466 106.112 90.9818 103.367C94.2252 100.838 96.9019 97.623 98.8306 93.9387C100.759 90.2544 101.895 86.1873 102.161 82.0129C102.217 81.4047 102.204 80.9385 102.225 80.6233C102.247 80.3081 102.225 80.1527 102.225 80.1527C102.225 80.1527 102.225 80.7964 102.186 82.0173C101.934 86.6448 100.6 91.1417 98.2975 95.1275C96.426 98.3552 93.9741 101.188 91.0725 103.474C87.5417 106.247 83.4274 108.131 79.0597 108.975C75.3584 109.682 71.5584 109.641 67.8723 108.855C66.5769 108.568 65.301 108.196 64.0524 107.74C58.7386 105.76 54.115 102.207 50.7648 97.5293C49.8883 96.3107 49.108 95.0221 48.4314 93.6757C47.7394 92.3138 47.1612 90.8939 46.703 89.4315C44.7555 83.4165 44.7555 76.9155 46.703 70.9005C47.1613 69.4381 47.7395 68.0183 48.4314 66.6563C49.1092 65.313 49.8879 64.026 50.7605 62.8071C54.1103 58.1292 58.7341 54.5759 64.048 52.596C65.296 52.1384 66.5721 51.7662 67.8679 51.4817C69.1289 51.2093 70.4067 51.0269 71.6922 50.9356C74.1492 50.7559 76.6185 50.9051 79.0381 51.3796C83.4037 52.2234 87.5163 54.1057 91.0466 56.8758C93.9444 59.1469 96.3962 61.9626 98.2715 65.1735C100.574 69.1592 101.908 73.6561 102.161 78.2836C102.247 79.509 102.23 80.1527 102.23 80.1527Z" fill="#202850"/>
<path d="M73.4336 104.952C86.3708 104.952 96.8585 94.1772 96.8585 80.8852C96.8585 67.5933 86.3708 56.8181 73.4336 56.8181C60.4963 56.8181 50.0086 67.5933 50.0086 80.8852C50.0086 94.1772 60.4963 104.952 73.4336 104.952Z" fill="#202850"/>
<path d="M73.6237 73.5776H73.17C71.5854 73.5776 70.3008 74.8975 70.3008 76.5255V80.7298C70.3008 82.3579 71.5854 83.6777 73.17 83.6777H73.6237C75.2084 83.6777 76.493 82.3579 76.493 80.7298V76.5255C76.493 74.8975 75.2084 73.5776 73.6237 73.5776Z" fill="#FAFAFA"/>
<path d="M73.3947 85.6045C72.1852 85.6022 71.0259 85.1075 70.1706 84.2288C69.3154 83.3501 68.8339 82.159 68.8316 80.9163C68.8316 80.8574 68.8543 80.801 68.8949 80.7594C68.9354 80.7177 68.9903 80.6943 69.0476 80.6943C69.1049 80.6943 69.1599 80.7177 69.2004 80.7594C69.2409 80.801 69.2637 80.8574 69.2637 80.9163C69.2648 82.0416 69.7004 83.1205 70.4749 83.9162C71.2494 84.7119 72.2994 85.1594 73.3947 85.1606C73.9441 85.1864 74.4927 85.0944 75.0055 84.8903C75.5183 84.6862 75.9841 84.3746 76.3732 83.9752C76.7623 83.5759 77.0661 83.0977 77.2653 82.571C77.4645 82.0443 77.5546 81.4808 77.53 80.9163C77.53 80.8574 77.5528 80.801 77.5933 80.7594C77.6338 80.7177 77.6888 80.6943 77.7461 80.6943C77.8034 80.6943 77.8584 80.7177 77.8989 80.7594C77.9394 80.801 77.9622 80.8574 77.9622 80.9163C77.9622 83.6733 76.0825 85.6001 73.3947 85.6045Z" fill="#FAFAFA"/>
<path d="M73.6108 85.3782H73.1786V87.6779H73.6108V85.3782Z" fill="white"/>
<path d="M76.0997 87.8022H70.694C70.6367 87.8022 70.5817 87.7788 70.5412 87.7372C70.5007 87.6955 70.4779 87.6391 70.4779 87.5802C70.4779 87.5213 70.5007 87.4649 70.5412 87.4232C70.5817 87.3816 70.6367 87.3582 70.694 87.3582H76.0997C76.157 87.3582 76.212 87.3816 76.2525 87.4232C76.293 87.4649 76.3158 87.5213 76.3158 87.5802C76.3147 87.6387 76.2916 87.6945 76.2513 87.7359C76.211 87.7773 76.1567 87.801 76.0997 87.8022V87.8022Z" fill="white"/>
<path d="M68.8877 75.4157C68.8618 75.4734 68.5334 75.3535 68.1445 75.1848C67.7556 75.0161 67.4445 74.8518 67.4617 74.7897C67.479 74.7275 67.8334 74.7897 68.2309 74.9717C68.6285 75.1537 68.8877 75.3579 68.8877 75.4157Z" fill="white"/>
<path d="M70.6162 73.036C70.5687 73.076 70.2878 72.7697 69.9896 72.3568C69.6915 71.9439 69.4927 71.5754 69.5575 71.5399C69.6223 71.5044 69.8859 71.8063 70.1841 72.2191C70.4822 72.632 70.6594 73.0005 70.6162 73.036Z" fill="white"/>
<path d="M73.412 72.1836C73.3472 72.1836 73.304 71.7974 73.3083 71.2957C73.3126 70.794 73.3688 70.4078 73.4293 70.4078C73.579 70.9792 73.579 71.5811 73.4293 72.1525L73.412 72.1836Z" fill="white"/>
<path d="M77.0072 71.5576C77.059 71.5931 76.9251 71.9217 76.6744 72.268C76.4238 72.6143 76.1473 72.8362 76.104 72.7918C76.0608 72.7474 76.2466 72.4633 76.4929 72.1259C76.7393 71.7885 76.951 71.5265 77.0072 71.5576Z" fill="white"/>
<path d="M79.4227 74.5633C79.4529 74.621 79.1634 74.8474 78.7788 75.0738C78.3942 75.3003 78.0572 75.4334 78.0269 75.3802C77.9967 75.3269 78.2819 75.096 78.6665 74.8696C79.0511 74.6432 79.3924 74.51 79.4227 74.5633Z" fill="white"/>
<path d="M55.4057 128.225L54.7144 127.199H53.9495V128.225H53.1155V124.536H54.6712C55.6305 124.536 56.2311 125.051 56.2311 125.867C56.2432 126.118 56.1784 126.366 56.0457 126.576C55.9131 126.786 55.7195 126.948 55.4922 127.039L56.2959 128.225H55.4057ZM54.6279 125.233H53.9538V126.507H54.6279C55.1378 126.507 55.3928 126.263 55.3928 125.863C55.3928 125.463 55.1335 125.233 54.6279 125.233Z" fill="#263238"/>
<path d="M59.5195 127.039H57.4324C57.4743 127.217 57.5776 127.373 57.723 127.478C57.8685 127.584 58.0462 127.631 58.2232 127.612C58.3505 127.616 58.4774 127.594 58.5962 127.547C58.715 127.5 58.8233 127.428 58.9145 127.337L59.3466 127.812C59.1987 127.966 59.0202 128.085 58.8234 128.162C58.6265 128.238 58.4159 128.27 58.2059 128.256C58.0071 128.276 57.8064 128.254 57.6167 128.19C57.427 128.126 57.2524 128.022 57.1042 127.884C56.956 127.746 56.8375 127.578 56.7564 127.391C56.6752 127.203 56.6332 127 56.633 126.795C56.6304 126.599 56.667 126.403 56.7406 126.222C56.8141 126.04 56.923 125.876 57.0606 125.739C57.1982 125.602 57.3616 125.496 57.5407 125.426C57.7198 125.357 57.9109 125.326 58.1022 125.335C58.2931 125.324 58.4842 125.354 58.663 125.424C58.8418 125.494 59.0042 125.602 59.1399 125.74C59.2755 125.879 59.3814 126.045 59.4505 126.229C59.5196 126.412 59.5505 126.608 59.5411 126.804C59.5368 126.884 59.5238 126.973 59.5195 127.039ZM57.4237 126.56H58.7806C58.7547 126.394 58.6723 126.243 58.5479 126.134C58.4236 126.026 58.2655 125.966 58.1022 125.966C57.9388 125.966 57.7807 126.026 57.6564 126.134C57.5321 126.243 57.4496 126.394 57.4237 126.56Z" fill="#263238"/>
<path d="M62.4363 126.609V128.225H61.6844V127.874C61.5921 128.011 61.4655 128.12 61.318 128.19C61.1705 128.259 61.0075 128.287 60.8461 128.269C60.1979 128.269 59.8133 127.901 59.8133 127.408C59.8133 126.915 60.159 126.56 60.9973 126.56H61.6325C61.6325 126.209 61.4294 126.001 60.9973 126.001C60.7114 126 60.4327 126.093 60.2022 126.267L59.917 125.69C60.2724 125.46 60.6853 125.341 61.1053 125.348C61.948 125.348 62.4363 125.752 62.4363 126.609ZM61.6325 127.332V127.039H61.0837C60.7121 127.039 60.5911 127.182 60.5911 127.372C60.5911 127.563 60.764 127.714 61.0232 127.714C61.1516 127.729 61.2811 127.699 61.3913 127.63C61.5016 127.561 61.5864 127.456 61.6325 127.332V127.332Z" fill="#263238"/>
<path d="M66.0012 124.318V128.225H65.2364V127.901C65.1296 128.026 64.9961 128.125 64.8462 128.189C64.6963 128.253 64.5341 128.28 64.3721 128.269C63.9951 128.269 63.6335 128.115 63.3669 127.841C63.1003 127.568 62.9505 127.196 62.9505 126.809C62.9505 126.421 63.1003 126.05 63.3669 125.776C63.6335 125.502 63.9951 125.348 64.3721 125.348C64.5255 125.341 64.6787 125.367 64.8211 125.426C64.9636 125.485 65.0919 125.575 65.1975 125.69V124.318H66.0012ZM65.2148 126.809C65.2038 126.667 65.1529 126.532 65.0683 126.42C64.9837 126.308 64.8691 126.224 64.7386 126.178C64.608 126.132 64.4672 126.126 64.3334 126.161C64.1997 126.196 64.0787 126.27 63.9856 126.375C63.8924 126.479 63.8309 126.61 63.8088 126.75C63.7867 126.89 63.8048 127.033 63.861 127.163C63.9172 127.292 64.0091 127.402 64.1252 127.479C64.2413 127.556 64.3767 127.596 64.5147 127.594C64.6124 127.595 64.709 127.574 64.7985 127.534C64.8879 127.494 64.9682 127.435 65.0341 127.361C65.1001 127.287 65.1502 127.199 65.1813 127.104C65.2124 127.009 65.2238 126.909 65.2148 126.809V126.809Z" fill="#263238"/>
<path d="M69.4797 125.392L68.2309 128.402C68.1694 128.663 68.0223 128.893 67.8144 129.055C67.6066 129.217 67.3507 129.3 67.0901 129.29C66.8126 129.298 66.541 129.207 66.321 129.033L66.6105 128.447C66.7366 128.56 66.897 128.624 67.0642 128.629C67.2846 128.629 67.4056 128.527 67.4963 128.274V128.247L66.2994 125.392H67.1593L67.9328 127.315L68.7149 125.392H69.4797Z" fill="#263238"/>
<path d="M73.0403 128.092C72.8448 128.216 72.6177 128.278 72.3879 128.269C72.2517 128.289 72.1131 128.276 71.9823 128.233C71.8516 128.189 71.7322 128.116 71.6331 128.018C71.5341 127.92 71.458 127.8 71.4106 127.668C71.3632 127.535 71.3457 127.393 71.3594 127.253V126.089H70.9273V125.455H71.3594V124.762H72.1588V125.455H72.8459V126.089H72.1588V127.239C72.1523 127.288 72.1565 127.338 72.171 127.385C72.1854 127.432 72.2099 127.475 72.2425 127.511C72.2752 127.547 72.3153 127.575 72.3598 127.594C72.4044 127.612 72.4523 127.62 72.5002 127.617C72.6165 127.617 72.73 127.58 72.8243 127.51L73.0403 128.092Z" fill="#263238"/>
<path d="M73.2089 126.809C73.1889 126.496 73.261 126.184 73.4158 125.914C73.5705 125.644 73.8008 125.428 74.0766 125.294C74.3525 125.16 74.6612 125.114 74.9626 125.163C75.264 125.211 75.5443 125.352 75.7669 125.566C75.9895 125.781 76.1442 126.059 76.2109 126.365C76.2776 126.671 76.2533 126.99 76.141 127.282C76.0287 127.573 75.8337 127.823 75.5813 127.999C75.3288 128.175 75.0307 128.269 74.7256 128.269C74.5311 128.283 74.3359 128.255 74.1523 128.187C73.9687 128.12 73.8006 128.015 73.6583 127.878C73.5161 127.741 73.4027 127.575 73.3254 127.391C73.2481 127.207 73.2084 127.009 73.2089 126.809V126.809ZM75.4299 126.809C75.419 126.667 75.3682 126.533 75.2838 126.421C75.1995 126.309 75.0851 126.224 74.9548 126.178C74.8245 126.132 74.6839 126.126 74.5502 126.16C74.4165 126.195 74.2956 126.269 74.2022 126.373C74.1088 126.477 74.047 126.607 74.0244 126.747C74.0018 126.887 74.0194 127.03 74.0749 127.16C74.1305 127.289 74.2216 127.4 74.3372 127.477C74.4528 127.554 74.5877 127.595 74.7256 127.594C74.8229 127.594 74.9191 127.573 75.008 127.533C75.0969 127.492 75.1767 127.433 75.2421 127.359C75.3076 127.285 75.3573 127.198 75.3882 127.103C75.419 127.008 75.4303 126.908 75.4213 126.809H75.4299Z" fill="#263238"/>
<path d="M78.2171 124.318H79.0165V128.225H78.2171V124.318Z" fill="#263238"/>
<path d="M79.6647 124.535C79.6679 124.472 79.6835 124.411 79.7104 124.354C79.7374 124.297 79.7751 124.247 79.8215 124.205C79.8679 124.164 79.9219 124.132 79.9803 124.113C80.0387 124.093 80.1004 124.086 80.1616 124.092C80.2235 124.082 80.2868 124.086 80.3469 124.104C80.4071 124.122 80.4627 124.153 80.51 124.195C80.5573 124.238 80.595 124.29 80.6207 124.349C80.6463 124.407 80.6592 124.471 80.6585 124.535C80.6585 124.671 80.6062 124.801 80.513 124.896C80.4198 124.992 80.2934 125.046 80.1616 125.046C80.0298 125.046 79.9034 124.992 79.8102 124.896C79.717 124.801 79.6647 124.671 79.6647 124.535V124.535ZM79.7641 125.392H80.5548V128.225H79.7554L79.7641 125.392Z" fill="#263238"/>
<path d="M81.0388 127.963L81.3067 127.372C81.5967 127.551 81.928 127.646 82.266 127.648C82.6376 127.648 82.7759 127.546 82.7759 127.39C82.7759 126.924 81.108 127.39 81.108 126.267C81.108 125.73 81.579 125.348 82.3827 125.348C82.7515 125.34 83.1166 125.425 83.4457 125.597L83.1778 126.183C82.936 126.04 82.6615 125.966 82.3827 125.969C82.024 125.969 81.8728 126.089 81.8728 126.236C81.8728 126.72 83.5364 126.236 83.5364 127.368C83.5364 127.896 83.0611 128.256 82.2401 128.256C81.8216 128.268 81.4074 128.167 81.0388 127.963V127.963Z" fill="#263238"/>
<path d="M85.8136 128.092C85.6181 128.216 85.391 128.278 85.1612 128.269C85.0249 128.289 84.8861 128.276 84.7551 128.233C84.6242 128.189 84.5046 128.116 84.4053 128.018C84.3059 127.92 84.2294 127.8 84.1814 127.668C84.1335 127.535 84.1154 127.393 84.1284 127.253V126.089H83.6963V125.455H84.1284V124.762H84.9278V125.455H85.6149V126.089H84.9278V127.239C84.9212 127.288 84.9254 127.339 84.9402 127.386C84.9549 127.433 84.9797 127.477 85.0129 127.513C85.046 127.549 85.0866 127.577 85.1317 127.595C85.1768 127.613 85.2253 127.62 85.2735 127.617C85.3896 127.616 85.5028 127.579 85.5976 127.51L85.8136 128.092Z" fill="#263238"/>
<path d="M88.8644 127.039H86.7773C86.8192 127.217 86.9225 127.373 87.068 127.478C87.2134 127.584 87.3911 127.631 87.5681 127.612C87.6954 127.616 87.8223 127.594 87.9411 127.547C88.0599 127.5 88.1682 127.428 88.2594 127.337L88.6916 127.812C88.5448 127.966 88.3671 128.086 88.1709 128.162C87.9747 128.239 87.7645 128.271 87.5551 128.256C86.6001 128.256 85.9779 127.639 85.9779 126.795C85.9753 126.598 86.012 126.403 86.0858 126.221C86.1596 126.039 86.269 125.874 86.407 125.737C86.5451 125.601 86.709 125.494 86.8886 125.425C87.0682 125.356 87.2598 125.325 87.4514 125.335C87.6424 125.324 87.8334 125.354 88.0122 125.424C88.191 125.494 88.3535 125.602 88.4891 125.74C88.6248 125.879 88.7306 126.045 88.7997 126.229C88.8688 126.412 88.8997 126.608 88.8903 126.804C88.8817 126.884 88.8687 126.973 88.8644 127.039ZM86.7643 126.56H88.1255C88.0969 126.396 88.0131 126.247 87.8887 126.14C87.7642 126.033 87.6072 125.975 87.4449 125.975C87.2827 125.975 87.1256 126.033 87.0012 126.14C86.8767 126.247 86.7929 126.396 86.7643 126.56V126.56Z" fill="#263238"/>
<path d="M92.2219 126.604V128.225H91.4225V126.729C91.4225 126.285 91.2151 126.063 90.8651 126.063C90.5151 126.063 90.1996 126.302 90.1996 126.826V128.225H89.4132V125.392H90.178V125.725C90.2957 125.6 90.4377 125.502 90.5948 125.437C90.7519 125.372 90.9205 125.342 91.0898 125.348C91.2486 125.339 91.4072 125.367 91.5546 125.428C91.7019 125.49 91.8342 125.584 91.9423 125.704C92.0503 125.824 92.1313 125.966 92.1797 126.122C92.228 126.278 92.2424 126.442 92.2219 126.604V126.604Z" fill="#263238"/>
<path d="M66.066 171.746C66.0634 171.544 66.1012 171.343 66.1769 171.156C66.2527 170.97 66.3649 170.801 66.5066 170.66C66.6482 170.52 66.8164 170.41 67.0008 170.339C67.1851 170.268 67.3817 170.236 67.5784 170.246C67.7796 170.236 67.9804 170.271 68.1674 170.347C68.3545 170.424 68.5235 170.541 68.663 170.69L68.3951 170.956C68.2938 170.843 68.1701 170.753 68.0322 170.692C67.8944 170.632 67.7456 170.602 67.5957 170.605C67.3046 170.605 67.0254 170.724 66.8196 170.936C66.6138 171.147 66.4981 171.434 66.4981 171.733C66.4981 172.032 66.6138 172.319 66.8196 172.53C67.0254 172.742 67.3046 172.861 67.5957 172.861C67.7458 172.863 67.8948 172.833 68.0326 172.771C68.1704 172.71 68.294 172.62 68.3951 172.505L68.663 172.772C68.5228 172.921 68.3531 173.038 68.1653 173.115C67.9775 173.191 67.7759 173.226 67.5741 173.216C67.3803 173.225 67.1867 173.194 67.0049 173.124C66.8231 173.054 66.6568 172.948 66.516 172.81C66.3753 172.673 66.2629 172.508 66.1855 172.325C66.1082 172.143 66.0676 171.946 66.066 171.746V171.746Z" fill="#263238"/>
<path d="M70.8712 171.871V173.203H70.4995V172.909C70.4171 173.02 70.309 173.107 70.1851 173.163C70.0612 173.219 69.9256 173.241 69.7909 173.229C69.3026 173.229 68.9915 172.958 68.9915 172.577C68.9915 172.195 69.2162 171.924 69.8557 171.924H70.4736V171.844C70.4736 171.507 70.2835 171.311 69.8946 171.311C69.6471 171.309 69.4064 171.394 69.2118 171.551L69.0476 171.249C69.3065 171.054 69.6214 170.954 69.9421 170.965C70.5341 170.974 70.8712 171.267 70.8712 171.871ZM70.4779 172.532V172.235H69.8773C69.4884 172.235 69.3804 172.39 69.3804 172.581C69.3804 172.772 69.5575 172.941 69.8557 172.941C69.9883 172.95 70.1202 172.915 70.2321 172.841C70.3441 172.768 70.4302 172.66 70.4779 172.532V172.532Z" fill="#263238"/>
<path d="M73.641 171.933V173.211H73.2478V171.982C73.2478 171.538 73.036 171.333 72.6687 171.333C72.5739 171.325 72.4785 171.339 72.3895 171.374C72.3005 171.409 72.2202 171.463 72.1543 171.534C72.0885 171.604 72.0388 171.689 72.009 171.782C71.9791 171.875 71.9698 171.973 71.9817 172.07V173.211H71.5928V170.992H71.9644V171.347C72.0575 171.228 72.1772 171.133 72.3133 171.071C72.4494 171.009 72.598 170.982 72.7465 170.992C72.8683 170.982 72.9906 171 73.1049 171.044C73.2192 171.088 73.3227 171.157 73.408 171.247C73.4933 171.337 73.5584 171.445 73.5987 171.563C73.639 171.682 73.6534 171.808 73.641 171.933V171.933Z" fill="#263238"/>
<path d="M74.1812 172.101C74.1785 171.948 74.2067 171.797 74.2639 171.655C74.3212 171.514 74.4062 171.386 74.5138 171.28C74.6213 171.175 74.749 171.093 74.8888 171.04C75.0286 170.987 75.1776 170.965 75.3263 170.974C75.4982 170.965 75.6693 171.004 75.8215 171.087C75.9736 171.17 76.1011 171.293 76.1905 171.444L75.8923 171.64C75.8298 171.54 75.7432 171.459 75.641 171.403C75.5388 171.348 75.4244 171.321 75.309 171.325C75.1073 171.325 74.9138 171.407 74.7712 171.553C74.6286 171.7 74.5485 171.899 74.5485 172.106C74.5485 172.313 74.6286 172.512 74.7712 172.658C74.9138 172.805 75.1073 172.887 75.309 172.887C75.4247 172.89 75.5392 172.862 75.6414 172.806C75.7436 172.75 75.83 172.668 75.8923 172.568L76.1905 172.759C76.1019 172.911 75.9748 173.036 75.8226 173.121C75.6705 173.205 75.499 173.246 75.3263 173.238C75.177 173.247 75.0276 173.223 74.8875 173.17C74.7473 173.116 74.6195 173.034 74.5119 172.927C74.4044 172.82 74.3195 172.692 74.2626 172.55C74.2057 172.408 74.1779 172.255 74.1812 172.101V172.101Z" fill="#263238"/>
<path d="M78.619 172.235H76.8689C76.8927 172.426 76.9872 172.6 77.1329 172.722C77.2785 172.843 77.464 172.903 77.651 172.887C77.7677 172.891 77.8837 172.869 77.9912 172.822C78.0987 172.776 78.1949 172.705 78.2733 172.616L78.4893 172.878C78.3292 173.044 78.1259 173.158 77.9039 173.208C77.682 173.258 77.4508 173.24 77.2382 173.158C77.0255 173.076 76.8405 172.933 76.7052 172.745C76.57 172.558 76.4902 172.334 76.4757 172.102C76.4703 171.953 76.4946 171.805 76.547 171.667C76.5995 171.528 76.679 171.402 76.7806 171.297C76.8822 171.191 77.0038 171.108 77.1379 171.052C77.272 170.997 77.4158 170.97 77.5603 170.974C77.7052 170.97 77.8494 170.997 77.9835 171.053C78.1177 171.11 78.2389 171.195 78.3394 171.302C78.4398 171.409 78.5174 171.537 78.567 171.677C78.6166 171.817 78.6373 171.966 78.6276 172.115C78.6269 172.155 78.624 172.195 78.619 172.235V172.235ZM76.8689 171.946H78.2517C78.2326 171.771 78.1516 171.61 78.024 171.493C77.8965 171.376 77.7314 171.311 77.5603 171.311C77.3892 171.311 77.2241 171.376 77.0965 171.493C76.969 171.61 76.8879 171.771 76.8689 171.946V171.946Z" fill="#263238"/>
<path d="M79.1721 170.104H79.561V173.211H79.1721V170.104Z" fill="#263238"/>
<path d="M92.6151 179.263C92.6151 179.263 92.7232 179.263 92.9306 179.232L93.3152 179.205L93.8467 179.116C95.3556 178.809 96.7118 177.968 97.6785 176.739C98.6452 175.509 99.161 173.97 99.1358 172.39C99.149 171.809 99.1302 171.228 99.0796 170.65C99.0033 170.04 98.8493 169.443 98.6215 168.874C98.3676 168.277 98.0378 167.717 97.6406 167.209C97.2083 166.688 96.7064 166.232 96.1498 165.855C94.9307 165.066 93.4996 164.695 92.062 164.794H87.3563H76.9856H53.2192C52.1733 164.805 51.145 165.073 50.2204 165.575C49.3148 166.057 48.5341 166.755 47.9431 167.609C47.3527 168.446 46.9674 169.418 46.8196 170.441C46.7774 170.692 46.7542 170.946 46.7505 171.2C46.7505 171.453 46.7505 171.715 46.7505 171.973C46.7349 172.479 46.7609 172.985 46.8283 173.487C46.9656 174.476 47.3203 175.42 47.8653 176.248C48.4067 177.055 49.1113 177.732 49.9309 178.233C50.7348 178.722 51.6328 179.025 52.5624 179.121L53.2495 179.152H55.3236L74.7386 179.174L87.8273 179.209H91.3879H92.3127H92.6281H92.3127H91.3879L87.8273 179.232L74.7386 179.267L55.3236 179.289H53.2495L52.5408 179.254C51.5808 179.156 50.6531 178.844 49.8228 178.339C48.9751 177.823 48.2456 177.125 47.6839 176.292C47.1214 175.436 46.7537 174.46 46.6079 173.438C46.5411 172.924 46.5151 172.406 46.5301 171.888C46.5301 171.626 46.5301 171.373 46.5301 171.107C46.5317 170.844 46.5548 170.581 46.5992 170.321C46.7531 169.264 47.1501 168.259 47.7573 167.391C48.3713 166.507 49.1796 165.785 50.1167 165.282C51.069 164.78 52.123 164.516 53.1933 164.51H76.9596H87.3304H92.0361C93.1101 164.431 94.1869 164.616 95.1774 165.05C96.1678 165.484 97.0433 166.154 97.7314 167.005C98.5378 168.009 99.0436 169.232 99.1876 170.525C99.2337 171.116 99.2495 171.709 99.2351 172.301C99.2609 173.29 99.0767 174.273 98.6953 175.182C98.314 176.09 97.7447 176.903 97.027 177.562C96.1328 178.384 95.0354 178.937 93.8553 179.16L93.3195 179.236C93.1683 179.236 93.0343 179.236 92.9306 179.236L92.6151 179.263Z" fill="#263238"/>
<path d="M106.408 35.286C105.299 35.4115 104.183 35.453 103.068 35.4103C101.952 35.4531 100.834 35.4116 99.7234 35.286C100.834 35.1631 101.952 35.1216 103.068 35.1617C104.183 35.1217 105.299 35.1632 106.408 35.286V35.286Z" fill="#263238"/>
<path d="M106.408 33.4924C105.299 33.6179 104.183 33.6595 103.068 33.6167C101.952 33.6595 100.834 33.618 99.7234 33.4924C100.834 33.3695 101.952 33.328 103.068 33.3681C104.183 33.3281 105.299 33.3696 106.408 33.4924Z" fill="#263238"/>
<path d="M106.408 31.6989C105.299 31.8243 104.183 31.8659 103.068 31.8232C101.952 31.866 100.834 31.8244 99.7234 31.6989C100.834 31.576 101.952 31.5344 103.068 31.5745C104.183 31.5345 105.299 31.576 106.408 31.6989V31.6989Z" fill="#263238"/>
<path d="M39.7935 36.4448C39.8408 36.4386 39.8887 36.4386 39.9361 36.4448H40.3379L41.8114 36.4092L41.7725 36.4536C41.7725 36.1162 41.7725 35.7522 41.7725 35.3526C41.7725 35.1484 41.7725 34.9575 41.7725 34.7222C41.8 34.6042 41.8626 34.4979 41.9517 34.4183C42.0408 34.3387 42.1519 34.2897 42.2695 34.2782C42.5071 34.2782 42.7016 34.2782 42.9738 34.2782C43.1093 34.3005 43.2325 34.3718 43.3213 34.4793C43.4101 34.5868 43.4585 34.7233 43.4578 34.8643C43.4578 35.3748 43.4578 35.912 43.4578 36.467L43.3887 36.3959H45.2511L45.1776 36.467C45.1776 35.6989 45.1776 34.9042 45.1776 34.0873C45.1776 33.8831 45.1776 33.6789 45.1776 33.4791C45.1683 33.3902 45.1402 33.3045 45.0955 33.2278C45.0507 33.1512 44.9903 33.0854 44.9183 33.0351L44.106 32.2138L43.3195 31.4191L42.9393 31.0329C42.8096 30.9041 42.7059 30.7665 42.5547 30.7354C42.4811 30.7148 42.404 30.7117 42.3291 30.7263C42.2542 30.7409 42.1836 30.7729 42.1226 30.8198C42.0102 30.9174 41.8892 31.0551 41.7769 31.1705C41.5478 31.4058 41.3448 31.6145 41.1114 31.8631C40.6793 32.307 40.2472 32.7199 39.9317 33.1062C39.8381 33.3313 39.8067 33.5787 39.841 33.821C39.841 34.0563 39.841 34.2649 39.841 34.4958C39.841 34.9087 39.841 35.2683 39.841 35.579C39.841 35.8898 39.841 36.0852 39.841 36.2716C39.8471 36.3559 39.8471 36.4404 39.841 36.5247C39.8349 36.4478 39.8349 36.3706 39.841 36.2938C39.841 36.1074 39.841 35.8854 39.841 35.6101C39.841 35.3349 39.841 34.9309 39.8151 34.518C39.8151 34.3004 39.8151 34.074 39.8151 33.8298C39.8151 33.7055 39.8151 33.5812 39.8151 33.4525C39.8157 33.3123 39.8514 33.1747 39.9188 33.0529C40.2645 32.6089 40.675 32.236 41.0984 31.7743L41.6645 30.9974C41.7855 30.8775 41.8806 30.7576 42.0232 30.6333C42.0992 30.5741 42.1873 30.5333 42.2808 30.5141C42.3744 30.4948 42.471 30.4977 42.5633 30.5223C42.7343 30.5884 42.884 30.7021 42.9954 30.8509L43.38 31.2371L44.1665 32.0274L44.9788 32.8531C45.0579 32.9214 45.1289 32.9988 45.1906 33.084C45.2503 33.1795 45.2832 33.2901 45.2856 33.4036C45.2856 33.6079 45.2856 33.8076 45.2856 34.0163C45.2856 34.8287 45.2856 35.6279 45.2856 36.3959V36.4714H45.2122H43.3498H43.2849V36.4004C43.2849 35.8454 43.2849 35.3082 43.2849 34.7977C43.2858 34.6893 43.2481 34.5843 43.1789 34.5025C43.1096 34.4207 43.0136 34.3678 42.909 34.3537C42.6929 34.3537 42.4423 34.3537 42.2306 34.3537C42.1343 34.3641 42.0437 34.4059 41.9722 34.473C41.9006 34.5402 41.8519 34.629 41.833 34.7266C41.833 34.9175 41.833 35.1395 41.833 35.3349V36.4758H41.7898H40.2904H39.9015L39.7935 36.4448Z" fill="#263238"/>
<path d="M156.814 61.3554C156.875 63.4375 155.44 63.6373 154.451 63.7217C153.461 63.806 152.329 63.3443 151.426 62.9048C149.594 62.0169 147.818 61.0934 147.079 59.0157" fill="#FFBE9D"/>
<path d="M179.293 41.9232C179.354 41.9232 179.405 45.0309 179.405 48.8268C179.405 52.6227 179.354 55.726 179.293 55.726C179.233 55.726 179.181 52.6182 179.181 48.8268C179.181 45.0354 179.233 41.9232 179.293 41.9232Z" fill="#202850"/>
<path d="M181.043 43.4416C181.104 43.4416 181.155 45.799 181.155 48.7114C181.155 51.6238 181.104 53.9768 181.043 53.9768C180.983 53.9768 180.931 51.6194 180.931 48.7114C180.931 45.8035 180.983 43.4416 181.043 43.4416Z" fill="#202850"/>
<path d="M183.014 44.9466C183.125 46.2144 183.162 47.4878 183.126 48.7602C183.162 50.0341 183.125 51.309 183.014 52.5783C182.9 51.3092 182.862 50.0341 182.901 48.7602C182.862 47.4878 182.9 46.2142 183.014 44.9466V44.9466Z" fill="#202850"/>
<path d="M184.729 46.243C184.843 46.9469 184.88 47.6616 184.841 48.374C184.88 49.0849 184.842 49.7981 184.729 50.5006C184.618 49.7978 184.581 49.0849 184.617 48.374C184.581 47.6616 184.618 46.9472 184.729 46.243Z" fill="#202850"/>
<path d="M186.246 47.2819C186.396 48.0527 186.396 48.8463 186.246 49.6171C186.096 48.8463 186.096 48.0527 186.246 47.2819V47.2819Z" fill="#202850"/>
<path d="M187.966 46.0343C188.076 46.7385 188.114 47.4529 188.078 48.1653C188.114 48.8763 188.077 49.5892 187.966 50.2919C187.852 49.5894 187.814 48.8763 187.853 48.1653C187.814 47.4529 187.852 46.7383 187.966 46.0343V46.0343Z" fill="#202850"/>
<path d="M189.582 44.3251C189.693 45.6537 189.73 46.9877 189.694 48.3207C189.73 49.6537 189.693 50.9878 189.582 52.3164C189.468 50.9879 189.43 49.6537 189.469 48.3207C189.43 46.9877 189.468 45.6535 189.582 44.3251V44.3251Z" fill="#202850"/>
<path d="M169.082 44.9466C169.193 46.2144 169.231 47.4878 169.195 48.7602C169.231 50.0341 169.193 51.309 169.082 52.5783C168.968 51.3092 168.931 50.0341 168.97 48.7602C168.931 47.4878 168.968 46.2142 169.082 44.9466V44.9466Z" fill="#202850"/>
<path d="M170.798 46.243C170.911 46.9469 170.949 47.6616 170.91 48.374C170.949 49.0849 170.911 49.7981 170.798 50.5006C170.687 49.7978 170.649 49.0849 170.685 48.374C170.649 47.6616 170.687 46.9472 170.798 46.243Z" fill="#202850"/>
<path d="M172.314 47.2819C172.464 48.0527 172.464 48.8463 172.314 49.6171C172.202 49.2393 172.164 48.8425 172.202 48.4495C172.164 48.0565 172.202 47.6596 172.314 47.2819V47.2819Z" fill="#202850"/>
<path d="M174.03 45.4128C174.144 46.3253 174.181 47.2462 174.142 48.1653C174.181 49.083 174.144 50.0024 174.03 50.9135C173.919 50.0022 173.881 49.083 173.918 48.1653C173.881 47.2462 173.919 46.3256 174.03 45.4128V45.4128Z" fill="#202850"/>
<path d="M175.646 44.3251C175.763 45.6534 175.802 46.9876 175.763 48.3207C175.802 49.6538 175.763 50.9881 175.646 52.3164C175.535 50.9878 175.497 49.6537 175.534 48.3207C175.497 46.9877 175.535 45.6537 175.646 44.3251V44.3251Z" fill="#202850"/>
<path d="M177.616 43.486C177.681 43.486 177.729 45.7635 177.729 48.5693C177.729 51.3751 177.681 53.6571 177.616 53.6571C177.552 53.6571 177.504 51.3796 177.504 48.5693C177.504 45.759 177.556 43.486 177.616 43.486Z" fill="#202850"/>
<path d="M167.246 50.2919C167.132 49.5894 167.094 48.8763 167.133 48.1653C167.095 47.4529 167.132 46.7383 167.246 46.0343C167.357 46.7385 167.394 47.4529 167.358 48.1653C167.394 48.8763 167.357 49.5892 167.246 50.2919V50.2919Z" fill="#202850"/>
<path d="M165.729 49.2575C165.579 48.4867 165.579 47.693 165.729 46.9222C165.879 47.693 165.879 48.4867 165.729 49.2575V49.2575Z" fill="#202850"/>
<path d="M191.176 46.0343C191.287 46.7385 191.325 47.4529 191.289 48.1653C191.325 48.8763 191.287 49.5892 191.176 50.2919C191.063 49.5894 191.025 48.8763 191.064 48.1653C191.025 47.4529 191.063 46.7383 191.176 46.0343V46.0343Z" fill="#202850"/>
<path d="M192.68 47.0732C192.83 47.844 192.83 48.6376 192.68 49.4084C192.567 49.0307 192.529 48.6338 192.568 48.2408C192.53 47.8478 192.568 47.451 192.68 47.0732V47.0732Z" fill="#202850"/>
<path d="M177.439 182.033L180.589 191.418C180.589 191.418 190.934 191.285 191.677 192.963L174.185 199.885L168.706 185.465L177.439 182.033Z" fill="#202850"/>
<path d="M174.885 192.781C174.737 192.901 174.637 193.073 174.604 193.264C174.571 193.454 174.608 193.651 174.708 193.816C174.819 193.972 174.983 194.079 175.168 194.115C175.353 194.15 175.544 194.111 175.702 194.007C175.859 193.879 175.965 193.697 175.999 193.495C176.033 193.292 175.994 193.084 175.888 192.91C175.756 192.758 175.572 192.665 175.374 192.651C175.177 192.636 174.982 192.7 174.829 192.83" fill="#E0E0E0"/>
<g opacity="0.6">
<path opacity="0.6" d="M174.185 199.885L173.684 198.428L190.645 192.342C190.645 192.342 191.556 192.382 191.677 192.981L174.185 199.885Z" fill="white"/>
</g>
<path d="M180.84 191.214C180.87 191.303 180.455 191.511 180.14 191.96C179.825 192.408 179.742 192.87 179.652 192.848C179.561 192.826 179.496 192.284 179.885 191.751C180.274 191.218 180.827 191.13 180.84 191.214Z" fill="#263238"/>
<path d="M182.966 191.267C183.018 191.347 182.702 191.64 182.534 192.129C182.365 192.617 182.447 193.039 182.361 193.07C182.275 193.101 182.033 192.626 182.231 192.022C182.43 191.418 182.931 191.187 182.966 191.267Z" fill="#263238"/>
<path d="M184.854 193.101C184.785 193.15 184.5 192.759 184.539 192.213C184.578 191.667 184.906 191.294 184.971 191.356C185.036 191.418 184.88 191.769 184.859 192.244C184.837 192.719 184.936 193.07 184.854 193.101Z" fill="#263238"/>
<path d="M179.889 189.158C179.889 189.252 179.457 189.287 178.978 189.509C178.498 189.731 178.187 190.042 178.113 189.984C178.04 189.927 178.282 189.469 178.839 189.212C179.397 188.954 179.907 189.074 179.889 189.158Z" fill="#263238"/>
<path d="M110.881 178.65L110.682 178.916L106.914 183.995L102.225 187.298L108.504 199.729H115.418C115.418 199.729 114.917 198.02 111.594 197.136L111.373 190.313L117.345 183.573" fill="#202850"/>
<g opacity="0.6">
<path opacity="0.6" d="M102.208 187.298L108.487 199.725L115.401 199.734L114.623 198.664L109.001 198.34L103.206 186.592L102.208 187.298Z" fill="white"/>
</g>
<path d="M111.533 194.015C111.481 194.086 111.101 193.856 110.548 193.869C109.995 193.882 109.619 194.113 109.567 194.042C109.515 193.971 109.891 193.563 110.544 193.558C111.196 193.554 111.598 193.958 111.533 194.015Z" fill="#263238"/>
<path d="M111.421 192.324C111.352 192.373 111.045 191.955 110.492 191.844C109.939 191.733 109.502 191.991 109.459 191.915C109.416 191.84 109.515 191.765 109.71 191.658C109.97 191.522 110.267 191.479 110.553 191.538C110.839 191.597 111.098 191.753 111.287 191.982C111.425 192.16 111.455 192.302 111.421 192.324Z" fill="#263238"/>
<path d="M111.468 190.148C111.391 190.188 111.157 189.78 110.678 189.607C110.198 189.434 109.761 189.607 109.727 189.518C109.692 189.429 109.796 189.38 109.986 189.309C110.242 189.216 110.521 189.216 110.777 189.309C111.032 189.402 111.25 189.581 111.395 189.816C111.499 189.993 111.503 190.135 111.468 190.148Z" fill="#263238"/>
<path d="M113.318 188.466C113.236 188.497 113.046 188.093 112.613 187.804C112.181 187.516 111.749 187.476 111.749 187.387C111.749 187.298 112.263 187.187 112.782 187.547C113.3 187.906 113.396 188.457 113.318 188.466Z" fill="#263238"/>
<g opacity="0.6">
<path opacity="0.6" d="M107.722 187.085C107.722 187.252 107.674 187.415 107.584 187.554C107.493 187.692 107.365 187.801 107.215 187.864C107.065 187.928 106.9 187.945 106.741 187.912C106.581 187.88 106.435 187.8 106.32 187.682C106.206 187.564 106.127 187.413 106.096 187.25C106.064 187.086 106.08 186.916 106.142 186.762C106.205 186.608 106.31 186.476 106.445 186.384C106.58 186.291 106.739 186.242 106.901 186.242C107.119 186.242 107.327 186.33 107.481 186.489C107.635 186.647 107.722 186.861 107.722 187.085Z" fill="white"/>
</g>
<path d="M147.144 122.151C148.777 122.773 140.952 155.853 140.952 155.853L117.328 185.034L109.455 178.064L127.124 150.143L132.668 105.152L145.407 105.863L147.144 122.151Z" fill="#263238"/>
<path d="M157.994 105.152C158.219 105.791 171.346 152.256 171.346 152.256L178.645 183.942L169.138 187.125C169.138 187.125 156.668 157.473 155.168 152.496C153.669 147.519 150.125 140.269 150.125 140.269L143.211 121.49C143.211 121.49 132.158 115.217 132.97 104.619L157.994 105.152Z" fill="#263238"/>
<path d="M179.764 186.211L179.202 182.397L167.76 186.215L169.091 190.246L179.764 186.211Z" fill="#263238"/>
<path d="M133.061 105.152C133.061 105.152 133.083 105.276 133.113 105.525L133.247 106.617C133.404 108.004 133.656 109.378 134.003 110.728C134.26 111.689 134.621 112.616 135.079 113.494C135.627 114.523 136.301 115.477 137.084 116.331C139.001 118.365 141.258 120.028 143.747 121.241L143.786 121.264V121.303C144.218 122.991 144.784 124.735 145.402 126.538C146.02 128.34 146.699 130.2 147.399 132.118C148.807 135.95 150.363 139.999 151.975 144.185C154.222 149.957 156.296 155.502 158.314 160.492C160.332 165.482 162.168 169.953 163.724 173.709C165.28 177.465 166.546 180.501 167.384 182.614C167.816 183.671 168.123 184.497 168.33 185.056L168.564 185.7C168.615 185.842 168.637 185.918 168.637 185.918C168.637 185.918 168.603 185.847 168.542 185.704L168.291 185.074L167.306 182.65C166.442 180.546 165.146 177.513 163.577 173.771C162.008 170.028 160.12 165.557 158.119 160.567C156.119 155.577 154.014 150.037 151.772 144.265C150.16 140.079 148.609 136.03 147.204 132.189C146.5 130.276 145.834 128.407 145.221 126.6C144.607 124.793 144.041 123.048 143.613 121.348L143.661 121.41C141.157 120.179 138.891 118.493 136.972 116.433C136.185 115.565 135.509 114.599 134.958 113.556C134.505 112.666 134.15 111.726 133.899 110.755C133.562 109.398 133.325 108.016 133.191 106.622C133.143 106.147 133.109 105.783 133.083 105.525C133.057 105.268 133.061 105.152 133.061 105.152Z" fill="#455A64"/>
<path d="M152.446 123.492C152.351 123.576 152.241 123.641 152.122 123.683C151.81 123.818 151.478 123.897 151.141 123.918C150.009 123.965 148.903 123.566 148.047 122.804C147.22 122.037 146.575 121.086 146.159 120.025C145.994 119.625 145.882 119.292 145.809 119.061C145.759 118.945 145.731 118.82 145.726 118.693C145.761 118.693 145.942 119.181 146.305 119.954C146.752 120.965 147.394 121.871 148.194 122.618C149.011 123.342 150.053 123.742 151.132 123.745C151.579 123.719 152.02 123.634 152.446 123.492V123.492Z" fill="#455A64"/>
<path d="M132.81 151.812C131.968 151.309 131.084 150.882 130.17 150.534C129.233 150.262 128.274 150.072 127.305 149.966C127.588 149.897 127.881 149.88 128.17 149.917C129.582 149.993 130.949 150.452 132.132 151.249C132.389 151.394 132.618 151.585 132.81 151.812V151.812Z" fill="#455A64"/>
<path d="M179.077 182.446C179.077 182.503 176.579 183.422 173.46 184.497C170.34 185.571 167.794 186.393 167.773 186.33C167.751 186.268 170.266 185.349 173.39 184.279C176.515 183.209 179.077 182.375 179.077 182.446Z" fill="#455A64"/>
<path d="M107.039 180.781L109.144 176.976L118.408 185.038L115.56 188.231L107.039 180.781Z" fill="#263238"/>
<path d="M118.408 185.039C118.269 184.956 118.141 184.854 118.028 184.737L117.047 183.849C116.222 183.103 115.081 182.073 113.771 181.007C112.462 179.942 111.308 178.921 110.47 178.188C110.038 177.824 109.714 177.522 109.485 177.3C109.256 177.078 109.131 176.967 109.144 176.954C109.285 177.032 109.418 177.124 109.541 177.229C109.787 177.42 110.137 177.7 110.57 178.046C111.434 178.748 112.618 179.724 113.914 180.816C115.21 181.909 116.356 182.939 117.155 183.715C117.557 184.102 117.872 184.421 118.088 184.648C118.21 184.764 118.318 184.895 118.408 185.039V185.039Z" fill="#455A64"/>
<path d="M152.718 34.1628C153.116 32.6444 154.226 31.8986 155.669 31.3925C156.397 31.1445 157.173 31.0812 157.93 31.208C158.687 31.3348 159.403 31.6479 160.016 32.1206C160.829 32.7554 161.464 33.6789 162.428 34.0207C164.018 34.589 165.885 33.3681 167.406 34.1006C167.871 34.312 168.249 34.6853 168.472 35.1548C168.696 35.6243 168.751 36.1598 168.628 36.667C168.505 37.1743 168.212 37.6206 167.8 37.9276C167.389 38.2345 166.885 38.3823 166.377 38.3449C167.414 38.7356 167.734 40.2539 167.129 41.204C166.524 42.1541 165.28 42.5092 164.195 42.3006C163.116 42.0304 162.13 41.4624 161.343 40.6579C160.522 39.9032 159.787 39.0419 158.91 38.3538C158.057 37.6151 156.979 37.2081 155.864 37.2039C154.373 37.2883 153.094 38.4426 152.428 39.8188C151.763 41.1951 151.607 42.7667 151.525 44.2984C151.443 45.8301 151.417 47.4061 150.972 48.8579C150.92 49.031 150.843 49.2219 150.674 49.2752C150.432 49.3507 150.242 49.0887 150.108 48.8579C148.745 46.2616 147.893 43.4149 147.602 40.4803C147.433 38.78 147.476 37.1728 148.384 35.7433C149.291 34.3137 151.59 33.2571 152.705 34.1628" fill="#263238"/>
<path d="M149.84 41.2661L149.08 58.4652C148.946 61.3909 149.339 65.7151 153.833 65.7151C157.743 65.4132 158.902 61.6573 159.018 58.9269C159.074 57.6305 159.126 56.5517 159.139 56.4185C159.139 56.4185 163.421 56.2054 163.918 51.8857C164.16 49.7991 164.32 45.4616 164.415 41.5325C164.466 39.5008 163.771 37.5238 162.469 35.9941C161.166 34.4643 159.352 33.4937 157.385 33.2748L156.979 33.2304C152.571 33.004 149.931 36.7289 149.84 41.2661Z" fill="#FFBE9D"/>
<path d="M159.169 56.3608C157.221 56.182 155.368 55.409 153.85 54.141C153.85 54.141 154.822 57.3952 159.066 57.4663L159.169 56.3608Z" fill="#EB996E"/>
<path d="M162.907 44.2851C162.892 44.4461 162.816 44.5945 162.696 44.699C162.576 44.8034 162.42 44.8556 162.263 44.8445C162.186 44.8422 162.11 44.8241 162.04 44.7912C161.97 44.7584 161.907 44.7114 161.854 44.653C161.802 44.5947 161.761 44.5262 161.735 44.4516C161.709 44.377 161.698 44.2977 161.702 44.2185C161.717 44.0575 161.793 43.909 161.913 43.8045C162.033 43.7001 162.188 43.6479 162.346 43.6591C162.423 43.6613 162.499 43.6794 162.569 43.7123C162.639 43.7452 162.702 43.7922 162.755 43.8505C162.807 43.9088 162.848 43.9773 162.874 44.0519C162.9 44.1266 162.911 44.2058 162.907 44.2851V44.2851Z" fill="#263238"/>
<path d="M163.309 43.5437C163.227 43.6192 162.808 43.2196 162.16 43.153C161.512 43.0864 161.006 43.3661 160.941 43.2773C160.876 43.1885 161.002 43.0997 161.226 42.9665C161.527 42.7973 161.871 42.7275 162.212 42.7668C162.547 42.805 162.863 42.9492 163.115 43.1796C163.296 43.3617 163.352 43.5126 163.309 43.5437Z" fill="#263238"/>
<path d="M156.538 43.8145C156.524 43.9763 156.448 44.1259 156.328 44.2313C156.208 44.3367 156.052 44.3894 155.894 44.3783C155.817 44.3755 155.741 44.357 155.671 44.3239C155.601 44.2908 155.538 44.2438 155.486 44.1856C155.434 44.1274 155.393 44.0592 155.367 43.9848C155.341 43.9104 155.329 43.8314 155.332 43.7523C155.348 43.5914 155.424 43.4429 155.544 43.3384C155.664 43.234 155.819 43.1818 155.976 43.193C156.053 43.1946 156.129 43.2122 156.199 43.2446C156.27 43.277 156.333 43.3235 156.385 43.3815C156.438 43.4395 156.478 43.5077 156.504 43.5821C156.531 43.6565 156.542 43.7355 156.538 43.8145V43.8145Z" fill="#263238"/>
<path d="M156.94 42.9754C156.853 43.0465 156.434 42.6513 155.79 42.5803C155.147 42.5093 154.632 42.7934 154.572 42.7046C154.511 42.6158 154.632 42.527 154.853 42.3938C155.154 42.2261 155.498 42.1579 155.838 42.1985C156.175 42.2337 156.493 42.3783 156.745 42.6114C156.927 42.789 156.979 42.9399 156.94 42.9754Z" fill="#263238"/>
<path d="M158.768 48.1609C159.12 48.0865 159.48 48.0596 159.839 48.081C160.003 48.081 160.163 48.0809 160.202 47.9522C160.236 47.7787 160.216 47.5987 160.146 47.4372C160.034 46.9932 159.917 46.5493 159.792 46.1053C159.303 44.1874 158.971 42.6247 159.044 42.6025C159.118 42.5803 159.576 44.1208 160.064 46.0343C160.181 46.5049 160.293 46.9533 160.397 47.3662C160.475 47.5839 160.475 47.8233 160.397 48.041C160.366 48.0983 160.323 48.1479 160.272 48.1862C160.22 48.2246 160.161 48.2508 160.099 48.263C160.004 48.2737 159.908 48.2737 159.813 48.263C159.462 48.2728 159.111 48.2385 158.768 48.1609Z" fill="#263238"/>
<path d="M157.376 40.3782C157.294 40.5514 156.655 40.3782 155.885 40.4093C155.116 40.4404 154.481 40.5647 154.399 40.4093C154.36 40.325 154.485 40.1696 154.753 40.0186C155.104 39.8367 155.492 39.7438 155.885 39.7478C156.278 39.7397 156.666 39.8296 157.018 40.0098C157.285 40.1474 157.411 40.3028 157.376 40.3782Z" fill="#263238"/>
<path d="M163.27 41.5947C163.141 41.7323 162.713 41.5281 162.177 41.4615C161.641 41.3949 161.179 41.4615 161.088 41.2883C161.049 41.204 161.14 41.0619 161.352 40.942C161.634 40.7929 161.955 40.74 162.268 40.7911C162.582 40.8308 162.877 40.9705 163.11 41.1907C163.283 41.3638 163.331 41.5281 163.27 41.5947Z" fill="#263238"/>
<path d="M149.853 44.4982C149.784 44.4582 147.053 43.3039 146.828 46.274C146.604 49.2441 149.559 48.849 149.568 48.7646C149.577 48.6803 149.853 44.4982 149.853 44.4982Z" fill="#FFBE9D"/>
<path d="M148.777 47.5704C148.777 47.5704 148.725 47.6015 148.635 47.637C148.514 47.6867 148.379 47.6867 148.259 47.637C148.08 47.5022 147.94 47.3207 147.854 47.1114C147.767 46.9021 147.737 46.6727 147.766 46.4472C147.777 46.1878 147.845 45.9343 147.965 45.7058C147.997 45.6146 148.052 45.5332 148.123 45.4688C148.193 45.4045 148.279 45.3593 148.371 45.3373C148.43 45.3249 148.492 45.3346 148.545 45.3647C148.598 45.3948 148.639 45.4433 148.66 45.5016C148.691 45.5859 148.66 45.6436 148.66 45.6525C148.66 45.6614 148.725 45.6037 148.712 45.4794C148.701 45.4059 148.666 45.3385 148.613 45.2885C148.576 45.2539 148.533 45.2275 148.487 45.2107C148.44 45.1939 148.39 45.1871 148.341 45.1908C148.221 45.205 148.106 45.2509 148.008 45.324C147.911 45.3972 147.833 45.495 147.783 45.6081C147.641 45.8566 147.559 46.1369 147.546 46.425C147.512 46.6876 147.555 46.9546 147.67 47.1919C147.784 47.4291 147.965 47.6258 148.189 47.7569C148.266 47.7857 148.347 47.7966 148.428 47.7889C148.508 47.7812 148.586 47.7551 148.656 47.7125C148.764 47.6415 148.786 47.5749 148.777 47.5704Z" fill="#EB996E"/>
<path d="M165.418 40.7201C164.46 40.8646 163.483 40.7733 162.566 40.4538C161.65 40.1342 160.82 39.5955 160.146 38.8821C159.217 37.8743 158.56 36.5069 157.316 35.9608C156.89 35.7931 156.436 35.7142 155.981 35.7287C155.525 35.7432 155.077 35.8508 154.663 36.0452C153.84 36.4374 153.104 36.9996 152.502 37.6967C153.085 39.9831 152.286 42.3805 151.495 44.6003C151.434 44.8556 151.291 45.0823 151.089 45.244C150.722 45.4749 150.225 45.213 149.97 44.8578C149.588 44.2606 149.387 43.561 149.391 42.8466C149.254 41.2286 149.432 39.5987 149.914 38.0519C150.403 36.5013 151.324 35.1322 152.562 34.1139C154.161 32.8939 156.158 32.3591 158.132 32.6222C160.099 32.8988 161.93 33.8061 163.365 35.215C164.059 35.8334 164.592 36.619 164.917 37.5014" fill="#263238"/>
<path d="M158.975 50.0388C158.887 50.3061 158.762 50.5588 158.603 50.7891C158.523 50.9044 158.42 51.0008 158.301 51.072C158.182 51.1432 158.049 51.1875 157.912 51.202C157.766 51.2028 157.621 51.1653 157.493 51.0931C157.364 51.0209 157.256 50.9163 157.177 50.7891C157.021 50.5318 156.949 50.2302 156.97 49.9278C156.97 49.657 157.104 49.3329 157.368 49.3019C157.478 49.2971 157.588 49.3215 157.687 49.3729L159.066 49.9456" fill="#EB996E"/>
<path d="M158.426 51.202C158.176 51.2199 157.926 51.1883 157.687 51.1088C157.448 51.0129 157.251 50.8295 157.134 50.5938C157.07 50.4481 157.037 50.2899 157.037 50.1299C157.037 49.9698 157.07 49.8117 157.134 49.6659C157.164 49.5902 157.204 49.5186 157.251 49.4528C157.307 49.3951 157.298 49.3951 157.355 49.404L157.579 49.4928L157.804 49.5905C158.098 49.7103 158.366 49.8213 158.59 49.9057C158.827 50.0247 159.081 50.1027 159.342 50.1365C159.136 49.97 158.905 49.8368 158.66 49.7414C158.444 49.6348 158.184 49.5105 157.895 49.3774L157.67 49.2708C157.588 49.2397 157.527 49.1998 157.419 49.1642C157.352 49.1424 157.279 49.1424 157.212 49.1642C157.152 49.191 157.099 49.234 157.061 49.2886C156.998 49.3703 156.946 49.4598 156.905 49.5549C156.831 49.7353 156.796 49.9303 156.804 50.1259C156.811 50.3216 156.861 50.5132 156.948 50.687C157.021 50.8275 157.12 50.9515 157.24 51.0515C157.361 51.1514 157.5 51.2253 157.648 51.2686C157.841 51.3337 158.047 51.3429 158.245 51.2953C158.366 51.2642 158.431 51.2198 158.426 51.202Z" fill="#263238"/>
<path d="M172.617 73.8884L164.627 91.4338C164.254 92.2535 163.685 92.963 162.973 93.4962C162.262 94.0294 161.43 94.3692 160.557 94.4838V94.4838C159.436 94.6311 158.299 94.4014 157.316 93.8292C156.333 93.2569 155.556 92.3729 155.103 91.3095L149.14 77.2758L159.511 64.7339L160.522 79.7975L167.077 70.2568L172.617 73.8884Z" fill="#202850"/>
<path d="M158.189 85.7155C158.458 84.655 158.803 83.6163 159.221 82.6078C159.566 81.5775 159.981 80.5732 160.461 79.6022C160.191 80.6552 159.846 81.6864 159.429 82.6877C159.085 83.7255 158.67 84.7373 158.189 85.7155V85.7155Z" fill="#263238"/>
<path d="M157.994 105.152L159.861 103.017C160.183 102.65 160.428 102.22 160.581 101.751C160.733 101.283 160.79 100.787 160.747 100.295L159.757 97.7202L161.079 67.1535C161.213 64.6762 161.183 61.1067 158.919 60.1034L149.131 57.1288C149.131 57.1288 142.46 58.5895 140.882 62.1722C139.642 64.9825 137.711 83.9841 137.711 83.9841L134.902 91.6957C134.578 93.214 132.435 101.72 132.309 103.683L132.681 105.161L157.994 105.152Z" fill="#202850"/>
<path d="M159.757 97.7202C159.757 97.7202 159.757 97.667 159.757 97.5604C159.757 97.4539 159.757 97.2852 159.757 97.1165C159.757 96.6725 159.757 96.0998 159.757 95.3761C159.757 93.8622 159.787 91.7578 159.805 89.2894C159.943 87.5669 160.06 85.6489 160.172 83.6289C160.384 79.7354 160.548 76.2103 160.725 73.6576C160.811 72.3834 160.898 71.3534 160.963 70.6431C161.002 70.3057 161.028 70.0348 161.049 69.8217C161.056 69.7257 161.072 69.6305 161.097 69.5376C161.108 69.6334 161.108 69.7303 161.097 69.8262C161.097 70.0393 161.071 70.3101 161.053 70.6475C161.01 71.3889 160.954 72.4233 160.885 73.6709C160.76 76.2459 160.587 79.762 160.397 83.6422C160.284 85.6623 160.159 87.5846 160.008 89.3116C159.956 91.78 159.913 93.88 159.878 95.3983C159.857 96.122 159.835 96.7036 159.822 97.1342C159.822 97.3162 159.822 97.4672 159.8 97.5782C159.79 97.6267 159.775 97.6742 159.757 97.7202V97.7202Z" fill="#263238"/>
<path d="M142.071 111.208L150.912 108.056L143.25 86.8832L148.492 68.5121C149.291 65.3422 147.896 60.8848 144.81 60.0768C144.676 60.0413 144.434 58.9047 144.3 58.9625C143.086 59.473 140.057 61.5818 138.804 63.664C137.853 65.268 137.164 67.0212 136.764 68.8539L133.584 82.9008C132.962 85.6475 133.178 88.5244 134.202 91.1407L142.071 111.208Z" fill="#202850"/>
<path d="M133.705 89.6579C133.726 89.6873 133.742 89.7204 133.752 89.7556L133.878 90.0575L134.34 91.2295L136.069 95.6469L142.015 111.159L141.881 111.097L150.847 107.936L150.907 108.158C150.808 108.075 150.731 107.968 150.683 107.847L150.592 107.603C150.532 107.443 150.471 107.279 150.406 107.114C150.285 106.786 150.164 106.453 150.039 106.12C149.788 105.45 149.538 104.766 149.283 104.078C146.988 97.8001 144.832 91.9132 143 86.9053V86.8787V86.8476C144.231 81.3647 145.26 76.7875 145.986 73.5643C146.349 71.9705 146.638 70.7141 146.85 69.8439C146.949 69.4221 147.027 69.0981 147.083 68.8672C147.109 68.7606 147.131 68.6807 147.144 68.6141L147.17 68.5298C147.174 68.5592 147.174 68.5892 147.17 68.6186C147.17 68.6852 147.139 68.7651 147.122 68.8716C147.07 69.1069 147.005 69.4355 146.919 69.8572C146.729 70.7451 146.461 71.9927 146.12 73.5909L143.211 86.9098V86.8521C145.048 91.8555 147.213 97.738 149.52 104.016L150.272 106.053L150.644 107.052L150.825 107.541L150.916 107.78C150.922 107.789 150.926 107.8 150.926 107.811C150.926 107.823 150.922 107.833 150.916 107.843C150.913 107.857 150.913 107.872 150.916 107.887V107.918V107.94L150.938 108.047L150.977 108.162L141.915 111.305L141.82 111.341L141.786 111.243L135.917 95.7046L134.258 91.265L133.826 90.0841C133.783 89.9553 133.748 89.8532 133.718 89.7778C133.688 89.7023 133.705 89.6579 133.705 89.6579Z" fill="#263238"/>
<path d="M138.393 87.5002C138.562 87.3119 138.767 87.1609 138.994 87.0563C139.523 86.7709 140.096 86.5831 140.688 86.5013C141.279 86.4167 141.881 86.4408 142.464 86.5724C142.71 86.6049 142.946 86.6928 143.155 86.8299C142.351 86.6885 141.531 86.6541 140.718 86.7278C139.915 86.8836 139.134 87.1431 138.393 87.5002V87.5002Z" fill="#263238"/>
<g opacity="0.3">
<path opacity="0.3" d="M162.03 77.631L162.756 93.6536C161.991 94.2485 160.933 94.4838 159.731 94.5415C159.753 94.0398 160.557 79.8153 160.557 79.8153L162.03 77.631Z" fill="black"/>
</g>
<path d="M161.071 64.7339C161.019 64.7775 160.962 64.8148 160.902 64.8449C160.736 64.9457 160.565 65.0361 160.388 65.1158C159.739 65.415 159.057 65.634 158.357 65.7684C156.041 66.1778 153.664 66.0149 151.422 65.2933C149.168 64.5871 147.113 63.3321 145.433 61.6351C144.926 61.1249 144.459 60.5742 144.037 59.988C143.886 59.7838 143.782 59.6106 143.708 59.4997C143.669 59.4428 143.636 59.3818 143.609 59.3176C143.775 59.5071 143.931 59.7057 144.076 59.9125C144.518 60.4736 144.998 61.0031 145.51 61.4975C147.199 63.1371 149.234 64.3528 151.456 65.0492C153.678 65.7717 156.031 65.963 158.335 65.6086C159.029 65.4909 159.709 65.2975 160.362 65.0314C160.593 64.9202 160.83 64.8209 161.071 64.7339Z" fill="#FAFAFA"/>
<path d="M145.878 73.5421C145.734 73.5653 145.589 73.5653 145.446 73.5421C145.06 73.5087 144.676 73.4524 144.296 73.3734C143.041 73.1094 141.834 72.6466 140.718 72.0016C139.608 71.3484 138.598 70.5283 137.724 69.5687C137.459 69.2858 137.208 68.9895 136.972 68.6807C136.879 68.5701 136.801 68.4478 136.738 68.3167C136.769 68.2901 137.149 68.7607 137.836 69.471C138.731 70.3842 139.737 71.1737 140.831 71.8195C141.929 72.4523 143.107 72.9273 144.331 73.2313C145.281 73.4356 145.882 73.5022 145.878 73.5421Z" fill="#FAFAFA"/>
<path d="M160.211 77.631C160.034 77.7224 159.849 77.7952 159.658 77.8486C159.146 78.0316 158.624 78.1799 158.093 78.2925C157.309 78.4689 156.513 78.5846 155.713 78.6388C154.73 78.7014 153.745 78.6851 152.766 78.59C150.987 78.3827 149.244 77.9348 147.58 77.2581C146.945 77.0006 146.435 76.7697 146.098 76.5921C145.915 76.5121 145.74 76.4139 145.575 76.2991C145.767 76.3511 145.953 76.421 146.133 76.5078C146.483 76.6632 146.997 76.8674 147.636 77.1027C149.299 77.7238 151.028 78.1396 152.787 78.3413C153.754 78.4367 154.725 78.4604 155.695 78.4124C156.488 78.3628 157.278 78.2634 158.059 78.1149C159.398 77.8663 160.198 77.5866 160.211 77.631Z" fill="#FAFAFA"/>
<path d="M159.632 89.7334C159.439 89.8429 159.236 89.9336 159.027 90.0042C158.787 90.1047 158.541 90.1921 158.292 90.2661C158.003 90.3549 157.679 90.4748 157.303 90.5592C156.927 90.6435 156.529 90.7501 156.084 90.8211C155.639 90.8921 155.164 90.9587 154.663 91.0164C153.57 91.1116 152.471 91.1116 151.378 91.0164C150.288 90.8978 149.209 90.6824 148.155 90.3727C147.671 90.2173 147.213 90.0752 146.798 89.9021C146.383 89.7289 145.994 89.5647 145.649 89.4004C145.303 89.2362 145 89.063 144.728 88.9209C144.456 88.7789 144.24 88.6368 144.058 88.5169C143.867 88.4057 143.685 88.278 143.514 88.1351C143.721 88.217 143.919 88.3196 144.106 88.4415C144.287 88.548 144.516 88.6768 144.789 88.8055C145.061 88.9343 145.359 89.1074 145.713 89.2495C146.068 89.3915 146.439 89.5736 146.863 89.7201C147.286 89.8666 147.727 90.022 148.211 90.164C149.264 90.4539 150.337 90.6558 151.422 90.7678C152.501 90.8699 153.586 90.8818 154.667 90.8033C155.164 90.7501 155.635 90.7145 156.076 90.6302C156.516 90.5458 156.918 90.4837 157.29 90.3993C157.661 90.315 157.99 90.2217 158.279 90.1418C158.569 90.0619 158.819 89.9864 159.018 89.9199C159.216 89.8367 159.422 89.7742 159.632 89.7334V89.7334Z" fill="#FAFAFA"/>
<path d="M166.762 87.8155C166.366 87.779 165.977 87.6833 165.608 87.5313C163.782 86.8936 162.156 85.7654 160.898 84.2638C160.625 83.9681 160.394 83.6349 160.211 83.2737C160.496 83.554 160.766 83.8505 161.019 84.1617C162.321 85.5767 163.914 86.6749 165.681 87.3759C166.334 87.6512 166.77 87.78 166.762 87.8155Z" fill="#FAFAFA"/>
<path d="M170.435 78.5278C170.082 78.4784 169.738 78.3752 169.415 78.2215C168.614 77.9006 167.855 77.4785 167.155 76.9651C166.453 76.4546 165.815 75.8583 165.254 75.1893C165.007 74.9253 164.799 74.6263 164.636 74.3013C165.447 75.2058 166.333 76.0362 167.285 76.7831C168.283 77.4586 169.337 78.0424 170.435 78.5278V78.5278Z" fill="#FAFAFA"/>
<path d="M143.367 84.3304C143.243 84.3804 143.111 84.4103 142.978 84.4192C142.62 84.4745 142.26 84.5071 141.898 84.5169C139.487 84.5959 137.106 83.9527 135.045 82.6655C134.734 82.4731 134.435 82.2611 134.15 82.0307C133.951 81.8664 133.843 81.7732 133.852 81.7599C133.861 81.7465 134.332 82.0706 135.148 82.5235C137.218 83.7094 139.545 84.3386 141.915 84.3526C142.801 84.357 143.363 84.2904 143.367 84.3304Z" fill="#FAFAFA"/>
<path d="M144.331 91.1452C144.331 91.1851 143.803 91.1762 142.969 91.2783C140.781 91.543 138.711 92.4389 136.998 93.8622C136.341 94.4038 135.982 94.799 135.956 94.7723C135.93 94.7457 136.021 94.6525 136.177 94.4704C136.398 94.2086 136.638 93.9638 136.894 93.7379C138.583 92.2178 140.705 91.2977 142.944 91.1141C143.28 91.0909 143.618 91.0909 143.955 91.1141C144.081 91.1034 144.208 91.1139 144.331 91.1452V91.1452Z" fill="#FAFAFA"/>
<path d="M148.993 103.039C148.993 103.083 148.44 102.986 147.554 102.994C147.037 103.003 146.522 103.052 146.012 103.141C144.761 103.359 143.563 103.82 142.481 104.5C142.039 104.774 141.618 105.084 141.224 105.427C140.55 106.018 140.2 106.457 140.165 106.431C140.224 106.311 140.3 106.2 140.39 106.102C140.611 105.818 140.854 105.552 141.116 105.308C141.504 104.94 141.924 104.609 142.369 104.317C142.917 103.967 143.495 103.669 144.097 103.43C144.705 103.2 145.333 103.034 145.973 102.932C146.494 102.849 147.022 102.816 147.55 102.835C147.905 102.84 148.259 102.875 148.609 102.941C148.741 102.955 148.87 102.987 148.993 103.039V103.039Z" fill="#FAFAFA"/>
<path d="M137.447 99.8335C136.001 99.8058 134.562 99.6258 133.152 99.2963C133.875 99.2681 134.599 99.3187 135.312 99.4473C136.035 99.501 136.75 99.6304 137.447 99.8335V99.8335Z" fill="#FAFAFA"/>
<g opacity="0.3">
<path opacity="0.3" d="M134.409 93.8134C134.48 95.8777 134.825 97.9225 135.433 99.8912C135.866 101.347 134.375 103.647 136.129 105.152H139.586C137.905 100.903 136.302 96.4461 134.755 92.446" fill="black"/>
</g>
<path d="M159.2 98.0355C159.126 98.1468 159.039 98.2482 158.94 98.3374C158.689 98.5945 158.419 98.8319 158.132 99.0477C157.706 99.3686 157.254 99.6508 156.78 99.8912C156.198 100.182 155.59 100.415 154.965 100.588C154.336 100.75 153.694 100.851 153.046 100.89C152.519 100.919 151.989 100.898 151.465 100.828C151.113 100.788 150.764 100.718 150.423 100.619C150.295 100.594 150.171 100.547 150.056 100.482C150.056 100.442 150.601 100.588 151.482 100.668C151.999 100.709 152.517 100.709 153.033 100.668C153.666 100.619 154.293 100.516 154.909 100.357C155.519 100.184 156.114 99.9618 156.689 99.6914C157.158 99.4649 157.609 99.2007 158.037 98.9012C158.768 98.3995 159.157 98.0044 159.2 98.0355Z" fill="#263238"/>
<path d="M154.615 100.553C154.362 100.737 154.082 100.878 153.785 100.97C153.083 101.231 152.348 101.392 151.603 101.45C150.86 101.504 150.113 101.469 149.378 101.343C149.07 101.314 148.769 101.237 148.483 101.117C148.483 101.037 149.879 101.343 151.586 101.219C152.614 101.098 153.629 100.875 154.615 100.553V100.553Z" fill="#FAFAFA"/>
<path d="M174.497 65.9726L178.731 65.6574C178.731 65.6574 179.656 66.865 178.917 67.8062C178.178 68.7474 176.757 71.2202 176.757 71.2202L173.46 71.6997L172.137 74.1548L167.133 70.8251L169.406 66.1724L173.084 62.8649L175.421 62.9137L176.718 64.5253C176.718 64.5253 175.274 65.2534 174.583 64.0813L173.464 64.3077V64.9737C173.462 65.1106 173.488 65.2464 173.541 65.3725C173.593 65.4985 173.67 65.6121 173.767 65.706C173.864 65.7999 173.979 65.872 174.105 65.9179C174.23 65.9638 174.364 65.9824 174.497 65.9726V65.9726Z" fill="#FFBE9D"/>
<path d="M178.679 65.8217L181.562 64.9693C181.74 64.947 181.921 64.9698 182.089 65.0355C182.257 65.1013 182.407 65.2081 182.525 65.3466L182.612 65.653L179.077 67.2246L178.679 65.8217Z" fill="#FFBE9D"/>
<path d="M172.384 69.0759C172.486 68.8451 172.617 68.6287 172.772 68.4322C173.118 67.9557 173.353 67.4045 173.46 66.8206C173.506 66.5046 173.478 66.1818 173.377 65.8794C173.328 65.735 173.29 65.5864 173.265 65.4354C173.243 65.3002 173.243 65.1621 173.265 65.027C173.293 64.7712 173.366 64.5229 173.481 64.2944C173.49 64.5474 173.471 64.8005 173.425 65.0492C173.398 65.3087 173.445 65.5708 173.559 65.8039C173.679 66.1369 173.716 66.4956 173.667 66.8472C173.556 67.4681 173.286 68.0473 172.885 68.5254C172.595 68.8939 172.405 69.0937 172.384 69.0759Z" fill="#EB996E"/>
<path d="M184.146 62.2788C184.146 62.3632 184.578 63.3044 184.578 63.3044L172.855 69.2845L172.267 68.1569L184.146 62.2788Z" fill="#263238"/>
<path d="M176.744 71.0116C176.806 70.944 176.855 70.8642 176.887 70.777C176.919 70.6897 176.933 70.5968 176.93 70.5037C176.926 70.4105 176.904 70.3191 176.866 70.2347C176.827 70.1504 176.772 70.0749 176.705 70.0126C176.419 69.7687 176.071 69.6145 175.702 69.5687C175.116 69.4256 174.516 69.3526 173.913 69.3511C173.715 69.3471 173.52 69.3928 173.343 69.4843C173.255 69.5323 173.183 69.606 173.136 69.6962C173.089 69.7863 173.069 69.8887 173.079 69.9904C173.127 70.2346 173.377 70.3678 173.602 70.4566C174.21 70.6954 174.842 70.8622 175.486 70.9538" fill="#FFBE9D"/>
<path d="M175.486 70.9805C175.097 70.9919 174.709 70.9379 174.337 70.8206C174.164 70.7763 173.974 70.7185 173.775 70.6519C173.544 70.5906 173.328 70.4818 173.14 70.3323C173.084 70.2802 173.039 70.2164 173.01 70.1451C172.98 70.0739 172.965 69.9969 172.967 69.9194C172.98 69.7608 173.051 69.6132 173.166 69.5065C173.398 69.3228 173.69 69.2357 173.982 69.2623C174.5 69.266 175.016 69.3285 175.521 69.4488C175.952 69.4956 176.364 69.6596 176.713 69.9238C176.829 70.0273 176.912 70.1628 176.955 70.314C176.997 70.4652 176.995 70.6257 176.951 70.7762C176.873 70.9893 176.744 71.0337 176.744 71.0249C176.744 71.016 176.826 70.9405 176.869 70.754C176.89 70.6227 176.877 70.4879 176.832 70.3632C176.786 70.2385 176.71 70.1284 176.61 70.0437C176.27 69.8228 175.883 69.6902 175.482 69.6575C174.99 69.5532 174.489 69.4982 173.987 69.4932C173.75 69.4673 173.512 69.5304 173.317 69.6708C173.278 69.6987 173.246 69.7353 173.223 69.7779C173.2 69.8204 173.186 69.8677 173.183 69.9164C173.18 69.965 173.188 70.0137 173.206 70.0588C173.224 70.1039 173.251 70.1443 173.287 70.1769C173.45 70.3099 173.636 70.4093 173.835 70.4699C174.03 70.5454 174.211 70.6075 174.38 70.6608C175.054 70.8739 175.49 70.9405 175.486 70.9805Z" fill="#EB996E"/>
<path d="M178.187 68.663C177.262 68.2457 176.588 68.0237 175.663 67.6108C175.377 67.4415 175.045 67.3715 174.717 67.411C174.393 67.4865 174.134 67.8861 174.311 68.1702C174.384 68.2641 174.475 68.3413 174.579 68.3966L177.266 70.0748" fill="#FFBE9D"/>
<path d="M177.266 70.0748C176.895 69.9214 176.539 69.7311 176.203 69.5065L175.08 68.8362L174.414 68.4277C174.342 68.383 174.28 68.3224 174.233 68.2503C174.186 68.1781 174.155 68.0962 174.142 68.0104C174.139 67.9234 174.152 67.8365 174.182 67.7549C174.212 67.6733 174.257 67.5987 174.315 67.5353C174.426 67.4037 174.58 67.3172 174.747 67.2912C174.89 67.2623 175.037 67.2623 175.179 67.2912C175.43 67.3673 175.675 67.4653 175.91 67.5842L177.107 68.1036C177.485 68.2383 177.847 68.4202 178.183 68.6452C177.795 68.5434 177.415 68.4128 177.046 68.2546C176.7 68.1258 176.281 67.9749 175.828 67.7795C175.602 67.6711 175.368 67.582 175.127 67.5131C175.016 67.4739 174.896 67.4676 174.782 67.4951C174.667 67.5226 174.562 67.5827 174.479 67.6685C174.404 67.7515 174.362 67.8612 174.363 67.9749C174.371 68.0272 174.391 68.077 174.421 68.1201C174.451 68.1633 174.49 68.1987 174.535 68.2235L175.184 68.6364L176.281 69.3511C176.631 69.5597 176.961 69.802 177.266 70.0748V70.0748Z" fill="#EB996E"/>
<path d="M179.077 67.2245L176.545 66.27C176.247 66.1219 175.911 66.0753 175.586 66.1368C175.27 66.2301 175.032 66.6474 175.227 66.9182C175.304 67.0097 175.4 67.0825 175.508 67.1313L178.295 68.6275" fill="#FFBE9D"/>
<path d="M178.291 68.6275C177.912 68.4965 177.546 68.33 177.197 68.1302L176.052 67.5353L175.365 67.1757C175.29 67.1387 175.223 67.0848 175.171 67.018C175.119 66.9511 175.082 66.873 175.063 66.7895C175.05 66.7026 175.055 66.614 175.078 66.5292C175.1 66.4444 175.139 66.3653 175.192 66.2967C175.289 66.1589 175.43 66.06 175.59 66.017C175.732 65.9879 175.879 65.9879 176.022 66.017C176.279 66.0696 176.529 66.1499 176.77 66.2567L177.979 66.7362C178.36 66.8645 178.726 67.0326 179.073 67.2379C178.681 67.1566 178.296 67.0407 177.923 66.8916L176.7 66.4476C176.47 66.353 176.231 66.2802 175.987 66.2301C175.874 66.2003 175.754 66.204 175.643 66.2409C175.531 66.2778 175.432 66.3464 175.357 66.4387C174.985 66.9227 175.763 67.1002 176.134 67.3533L177.271 67.9926C177.63 68.1701 177.971 68.3827 178.291 68.6275Z" fill="#EB996E"/>
<path d="M178.891 62.5763C178.865 62.5763 178.939 62.3144 179.185 61.977C179.514 61.5433 179.954 61.2127 180.455 61.0224C180.958 60.8314 181.504 60.7914 182.028 60.907C182.426 61.0002 182.642 61.1423 182.629 61.1689C182.616 61.1956 182.387 61.1157 182.002 61.0713C181.507 61.008 181.003 61.0658 180.533 61.24C180.067 61.4207 179.647 61.7093 179.306 62.0835C179.047 62.3721 178.921 62.5763 178.891 62.5763Z" fill="#263238"/>
<path d="M177.889 62.0302C177.977 61.7074 178.144 61.4127 178.373 61.1734C178.895 60.5613 179.582 60.1225 180.347 59.9125C181.109 59.7059 181.909 59.6937 182.677 59.877C182.996 59.9321 183.302 60.048 183.58 60.2189C183.58 60.2544 183.221 60.1345 182.646 60.0413C181.902 59.9101 181.139 59.9419 180.408 60.1345C179.681 60.3366 179.019 60.7334 178.489 61.2844C178.087 61.7106 177.923 62.0524 177.889 62.0302Z" fill="#263238"/>
<path d="M176.437 61.5419C176.437 61.5419 176.48 61.4176 176.605 61.2267C176.782 60.9579 176.983 60.7067 177.206 60.4764C177.941 59.7002 178.853 59.1249 179.859 58.8026C180.866 58.4874 181.933 58.4325 182.966 58.6428C183.276 58.7052 183.58 58.7973 183.873 58.9181C183.986 58.9514 184.091 59.0056 184.185 59.0779C184.185 59.1178 183.714 58.9269 182.94 58.8026C181.934 58.638 180.904 58.7125 179.931 59.0203C178.957 59.3282 178.065 59.8612 177.323 60.5785C176.744 61.1423 176.484 61.5641 176.437 61.5419Z" fill="#263238"/>
<path d="M175.408 61.0402C175.433 60.8931 175.48 60.7508 175.547 60.6184C175.71 60.2491 175.926 59.9065 176.186 59.6018C176.571 59.1477 177.019 58.7556 177.517 58.4386C178.125 58.051 178.775 57.7367 179.453 57.5018C180.689 57.0607 182.018 56.9717 183.299 57.2443C183.683 57.3218 184.061 57.4332 184.427 57.5773C184.565 57.6168 184.697 57.6798 184.815 57.7638C184.815 57.8037 184.232 57.5684 183.269 57.4041C182.015 57.1859 180.728 57.2942 179.526 57.7194C178.311 58.1043 177.205 58.7868 176.303 59.7083C175.959 60.1182 175.659 60.5647 175.408 61.0402Z" fill="#263238"/>
<path d="M151.331 111.962C150.467 111.643 150.54 112.269 150.856 113.006C149.179 114.094 147.347 115.448 145.363 115.461L143.255 110.613L149.261 108.508L149.369 108.819C149.974 109.411 150.631 109.945 151.331 110.413C151.689 110.659 152.085 110.841 152.502 110.95C153.016 111.106 153.548 111.188 154.083 111.194C154.185 111.179 154.289 111.196 154.38 111.243C154.472 111.291 154.546 111.367 154.594 111.46C154.642 111.553 154.66 111.66 154.646 111.764C154.631 111.869 154.586 111.966 154.516 112.042C154.17 112.344 152.822 112.504 151.331 111.962Z" fill="#FFBE9D"/>
<path d="M151.504 112.509C151.296 112.799 151.047 113.055 150.765 113.268C150.114 113.824 149.398 114.295 148.635 114.671C147.872 115.048 147.066 115.325 146.236 115.496C145.897 115.588 145.546 115.628 145.195 115.616C147.513 115.13 149.679 114.062 151.499 112.509H151.504Z" fill="#455A64"/>
</svg>
