<svg width="862" height="877" viewBox="0 0 862 877" fill="none" xmlns="http://www.w3.org/2000/svg">
<path d="M697.714 807.002C538.088 899.161 279.329 899.161 119.702 807.002C12.1545 744.927 -22.918 656.774 14.4657 577.808C16.0258 574.476 17.7399 571.163 19.5696 567.889C24.6929 558.712 30.5613 549.97 37.1155 541.754C56.8185 516.947 84.341 493.719 119.799 473.303C279.426 381.144 538.184 381.144 697.811 473.303C750.641 503.792 785.983 540.579 803.837 579.503C807.936 588.401 811.161 597.677 813.467 607.199C814.411 611.051 815.181 614.903 815.778 618.755C826.294 686.049 786.946 755.482 697.714 807.002Z" fill="#F5F5F5"/>
<path d="M815.721 618.736L450.551 829.556L14.4657 577.789C16.0258 574.457 17.7399 571.144 19.5696 567.87C24.6929 558.693 30.5613 549.951 37.1155 541.734C56.8185 516.947 84.341 493.719 119.799 473.303C279.426 381.144 538.184 381.144 697.811 473.303C750.641 503.792 785.983 540.579 803.837 579.503C807.936 588.401 811.161 597.677 813.467 607.199C814.353 611.032 815.085 614.864 815.721 618.736Z" fill="#1F274F"/>
<path opacity="0.4" d="M815.721 618.736L450.551 829.556L14.4657 577.789C16.0258 574.457 17.7399 571.144 19.5696 567.87C24.6929 558.693 30.5613 549.951 37.1155 541.734C56.8185 516.947 84.341 493.719 119.799 473.303C279.426 381.144 538.184 381.144 697.811 473.303C750.641 503.792 785.983 540.579 803.837 579.503C807.936 588.401 811.161 597.677 813.467 607.199C814.353 611.032 815.085 614.864 815.721 618.736Z" fill="black"/>
<path d="M813.409 607.199L450.551 816.69L19.6466 567.87C24.7699 558.693 30.6383 549.951 37.1925 541.734C56.8184 516.947 84.341 493.719 119.799 473.303C279.426 381.144 538.184 381.144 697.811 473.303C750.641 503.792 785.983 540.579 803.837 579.503C807.916 588.404 811.122 597.679 813.409 607.199Z" fill="#1F274F"/>
<path d="M803.741 579.503L453.209 781.926L37.1925 541.734C56.8185 516.947 84.341 493.719 119.799 473.303C279.426 381.144 538.184 381.144 697.811 473.303C750.545 503.792 785.887 540.521 803.741 579.503Z" fill="#1F274F"/>
<path d="M803.741 579.503L453.209 781.926L37.1925 541.734C56.8185 516.947 84.341 493.719 119.799 473.303C279.426 381.144 538.184 381.144 697.811 473.303C750.545 503.792 785.887 540.521 803.741 579.503Z" fill="#1F274F"/>
<path opacity="0.4" d="M803.741 579.503L453.209 781.926L37.1925 541.734C56.8185 516.947 84.341 493.719 119.799 473.303C279.426 381.144 538.184 381.144 697.811 473.303C750.545 503.792 785.887 540.521 803.741 579.503Z" fill="white"/>
<path opacity="0.2" d="M492.095 699.474C453.729 721.623 391.557 721.623 353.191 699.474C327.344 684.547 318.928 663.38 327.903 644.39C328.288 643.581 328.693 642.791 329.136 642.002C330.367 639.796 331.777 637.696 333.354 635.723C338.884 629.052 345.612 623.474 353.191 619.275C391.557 597.145 453.729 597.145 492.095 619.275C504.787 626.613 513.281 635.453 517.576 644.795C518.557 646.937 519.33 649.169 519.887 651.459C520.104 652.348 520.277 653.248 520.407 654.155C522.988 670.41 513.531 687.09 492.095 699.474Z" fill="black"/>
<path opacity="0.2" d="M675.122 620.469C652.935 633.277 616.977 633.277 594.808 620.469C579.863 611.783 574.99 599.591 580.113 588.671C580.344 588.209 580.575 587.746 580.826 587.284C581.545 586.015 582.363 584.804 583.272 583.663C586.49 579.792 590.41 576.564 594.828 574.149C616.996 561.341 652.954 561.341 675.142 574.149C682.48 578.386 687.391 583.509 689.876 588.902C690.439 590.143 690.89 591.433 691.224 592.754C691.339 593.293 691.455 593.833 691.532 594.353C692.977 603.655 687.526 613.305 675.122 620.469Z" fill="black"/>
<path opacity="0.2" d="M263.286 615.982L156.065 554.003C154.957 553.364 154.037 552.445 153.397 551.338C152.757 550.231 152.42 548.974 152.42 547.695C152.42 546.416 152.757 545.16 153.397 544.053C154.037 542.945 154.957 542.026 156.065 541.388L198.861 516.677C202.304 514.689 206.21 513.643 210.186 513.643C214.162 513.643 218.068 514.689 221.511 516.677L328.731 578.579C329.839 579.217 330.76 580.137 331.399 581.244C332.039 582.351 332.376 583.608 332.376 584.886C332.376 586.165 332.039 587.422 331.399 588.529C330.76 589.636 329.839 590.555 328.731 591.194L285.936 615.905C282.499 617.904 278.597 618.964 274.621 618.978C270.645 618.991 266.736 617.958 263.286 615.982V615.982Z" fill="black"/>
<path d="M691.301 530.66L708.173 540.463C708.173 540.463 699.66 513.287 704.321 485.938C705.456 479.495 707.788 473.321 711.196 467.737C712.506 464.983 722.753 447.919 713.739 440.061C704.725 432.203 683.751 447.765 684.695 489.963C685.167 503.754 687.387 517.428 691.301 530.66V530.66Z" fill="#1F274F"/>
<path opacity="0.3" d="M691.301 530.66L708.173 540.463C708.173 540.463 699.66 513.287 704.321 485.938C705.456 479.495 707.788 473.321 711.196 467.737C712.506 464.983 722.753 447.919 713.739 440.061C704.725 432.203 683.751 447.765 684.695 489.963C685.167 503.754 687.387 517.428 691.301 530.66V530.66Z" fill="black"/>
<path d="M699.14 536.014C698.979 536.012 698.823 535.961 698.693 535.868C698.562 535.775 698.463 535.645 698.408 535.494C698.408 535.321 691.956 517.601 692.283 489.174C692.611 460.746 707.691 445.319 707.807 445.164C707.88 445.091 707.967 445.033 708.063 444.993C708.159 444.954 708.262 444.933 708.365 444.933C708.469 444.933 708.572 444.954 708.668 444.993C708.763 445.033 708.85 445.091 708.924 445.164C708.997 445.238 709.055 445.325 709.095 445.421C709.135 445.517 709.155 445.619 709.155 445.723C709.155 445.827 709.135 445.929 709.095 446.025C709.055 446.121 708.997 446.208 708.924 446.282C708.77 446.436 694.19 461.266 693.863 489.193C693.535 517.12 699.814 534.781 699.891 534.955C699.954 535.151 699.939 535.365 699.849 535.551C699.76 535.737 699.602 535.882 699.409 535.956C699.325 535.996 699.233 536.015 699.14 536.014V536.014Z" fill="white"/>
<path d="M704.378 538.325L732.267 554.716C732.267 554.716 745.036 552.79 744.054 540.829C743.072 528.869 737.91 525.98 744.362 520.702C750.814 515.425 752.49 515.059 752.182 509.898C751.874 504.736 748.33 502.463 746.75 500.402C745.171 498.342 740.549 494.047 743.765 487.806C746.982 481.566 751.334 475.538 744.863 472.687C741.011 470.973 734.52 473.111 730.225 477.676C725.93 482.24 722.367 485.534 718.284 486.593C714.201 487.652 705.727 487.729 705.996 494.759C706.266 501.789 708.115 504.197 706.42 507.317C703.204 513.191 689.49 516.35 704.378 538.325Z" fill="#1F274F"/>
<path d="M715.742 545.798C715.543 545.794 715.353 545.718 715.208 545.583C715.062 545.448 714.971 545.264 714.952 545.066C714.952 544.642 711.89 503.06 740.78 475.73C740.853 475.657 740.94 475.599 741.036 475.559C741.132 475.519 741.235 475.499 741.338 475.499C741.442 475.499 741.545 475.519 741.641 475.559C741.737 475.599 741.824 475.657 741.897 475.73C742.041 475.881 742.121 476.081 742.121 476.289C742.121 476.497 742.041 476.697 741.897 476.847C713.565 503.619 716.532 544.469 716.57 544.874C716.578 544.977 716.565 545.082 716.533 545.181C716.5 545.279 716.448 545.371 716.38 545.449C716.312 545.528 716.229 545.593 716.136 545.639C716.043 545.686 715.942 545.714 715.838 545.721L715.742 545.798Z" fill="white"/>
<path d="M720.711 510.167C720.511 510.168 720.319 510.092 720.172 509.957C720.026 509.821 719.936 509.634 719.921 509.435C719.703 506.246 718.842 503.135 717.388 500.288C715.935 497.442 713.921 494.919 711.466 492.872C711.32 492.741 711.227 492.561 711.206 492.366C711.185 492.171 711.237 491.975 711.352 491.817C711.467 491.658 711.638 491.548 711.83 491.508C712.022 491.468 712.222 491.501 712.391 491.6C715.051 493.765 717.233 496.456 718.801 499.506C720.369 502.556 721.288 505.897 721.501 509.32C721.509 509.423 721.496 509.528 721.463 509.627C721.431 509.725 721.379 509.817 721.311 509.896C721.243 509.974 721.16 510.039 721.067 510.085C720.974 510.132 720.873 510.16 720.769 510.167H720.711Z" fill="white"/>
<path d="M718.669 517.255C718.515 517.26 718.363 517.22 718.232 517.138C718.102 517.056 717.999 516.937 717.936 516.796C717.874 516.655 717.856 516.498 717.883 516.347C717.911 516.195 717.984 516.055 718.092 515.945C718.4 515.598 725.661 507.721 742.494 510.051C742.688 510.094 742.859 510.207 742.973 510.37C743.087 510.533 743.135 510.733 743.109 510.929C743.082 511.126 742.982 511.306 742.829 511.432C742.676 511.559 742.48 511.623 742.282 511.612C726.335 509.416 719.324 516.927 719.266 517.004C719.191 517.087 719.099 517.152 718.995 517.195C718.892 517.239 718.781 517.259 718.669 517.255V517.255Z" fill="white"/>
<path d="M279.04 435.766L224.015 404.006V305.549C224.015 300.368 225.844 296.362 229.003 294.532C230.51 293.744 232.204 293.383 233.901 293.488C235.599 293.593 237.235 294.161 238.633 295.129L266.579 311.327C273.571 315.352 279.04 325.733 279.04 334.94V435.766ZM228.136 401.637L274.919 428.601V334.997C274.919 327.39 270.162 318.203 264.518 314.948L236.476 298.75C235.702 298.192 234.797 297.844 233.848 297.739C232.9 297.634 231.941 297.777 231.064 298.153C229.138 299.212 228.136 302.005 228.136 305.607V401.637Z" fill="#37474F"/>
<path d="M266.175 307.648L242.081 293.742C241.313 293.299 240.443 293.066 239.557 293.066C238.671 293.066 237.801 293.3 237.034 293.743C236.266 294.186 235.629 294.823 235.187 295.591C234.744 296.358 234.511 297.229 234.511 298.114C234.517 298.999 234.752 299.868 235.195 300.634C235.637 301.401 236.271 302.039 237.034 302.487L261.129 316.392C261.896 316.835 262.766 317.068 263.652 317.068C264.538 317.068 265.408 316.835 266.176 316.392C266.943 315.949 267.58 315.311 268.023 314.544C268.465 313.777 268.698 312.906 268.698 312.02C268.692 311.135 268.457 310.267 268.015 309.5C267.572 308.734 266.938 308.096 266.175 307.648V307.648Z" fill="#1F274F"/>
<path d="M284.221 573.879C284.009 577.763 282.885 581.543 280.941 584.912C278.997 588.282 276.288 591.146 273.031 593.274C266.849 596.837 261.822 593.948 261.822 586.803C262.046 582.93 263.177 579.163 265.124 575.808C267.071 572.452 269.78 569.601 273.031 567.485C279.195 563.864 284.221 566.753 284.221 573.879Z" fill="#263238"/>
<path d="M264.73 593.794L270.797 597.28V582.681L264.73 593.794Z" fill="#263238"/>
<path d="M289.287 576.826C289.073 580.707 287.948 584.483 286.004 587.849C284.06 591.215 281.351 594.077 278.097 596.202C271.914 599.784 266.907 596.876 266.907 589.75C267.118 585.865 268.241 582.085 270.185 578.715C272.129 575.346 274.839 572.482 278.097 570.355C284.279 566.792 289.287 569.681 289.287 576.826Z" fill="#455A64"/>
<path d="M300.843 413.54V561.225C300.843 565.366 299.398 568.217 297.126 569.315L251.537 595.874V432.665L299.225 405.431C300.257 408.012 300.805 410.76 300.843 413.54V413.54Z" fill="#1F274F"/>
<path opacity="0.4" d="M300.843 413.54V561.225C300.843 565.366 299.398 568.217 297.126 569.315L251.537 595.874V432.665L299.225 405.431C300.257 408.012 300.805 410.76 300.843 413.54V413.54Z" fill="black"/>
<path d="M299.225 405.335L251.537 432.665L206.912 404.796L164.366 378.178L209.916 351.696L210.147 351.561C211.168 351.001 212.327 350.742 213.49 350.813C214.652 350.885 215.77 351.284 216.715 351.965L291.078 394.915C294.845 397.42 297.703 401.075 299.225 405.335V405.335Z" fill="#1F274F"/>
<path opacity="0.2" d="M299.225 405.335L277.211 417.912L273.609 419.973L251.537 432.665L206.912 404.796L164.366 378.178L186.824 365.12L190.926 362.732L209.916 351.696L210.147 351.561C211.168 351.001 212.327 350.742 213.49 350.813C214.652 350.885 215.77 351.284 216.715 351.965L291.078 394.915C294.845 397.42 297.703 401.075 299.225 405.335V405.335Z" fill="black"/>
<path d="M245.181 595.335L170.818 552.404C165.406 549.265 161.015 540.848 161.015 533.664V385.979C161.015 378.756 165.406 375.443 170.818 378.563L245.181 421.513C250.593 424.633 254.985 433.069 254.985 440.234V587.92C254.985 595.142 250.593 598.455 245.181 595.335Z" fill="#1F274F"/>
<path d="M279.772 579.445V428.928C279.715 425.115 278.842 421.359 277.211 417.912C275.409 413.65 272.37 410.027 268.486 407.511L190.926 362.635L186.823 365.024L266.425 411.074C269.652 413.26 272.153 416.358 273.609 419.973C274.902 422.785 275.603 425.834 275.67 428.928V581.834L279.772 579.445Z" fill="#37474F"/>
<path opacity="0.2" d="M189.135 551.653C187.954 550.79 186.991 549.663 186.322 548.363C185.654 547.062 185.298 545.623 185.283 544.161V406.298C185.283 403.409 187.035 402.08 189.135 403.332C190.318 404.193 191.282 405.319 191.951 406.62C192.62 407.921 192.975 409.361 192.987 410.824V548.687C192.987 551.576 191.234 552.905 189.135 551.653Z" fill="black"/>
<path opacity="0.2" d="M208.009 560.166C206.827 559.305 205.862 558.179 205.193 556.878C204.524 555.577 204.169 554.137 204.157 552.674V414.83C204.157 411.941 205.91 410.612 208.009 411.864C209.19 412.727 210.153 413.854 210.822 415.154C211.491 416.455 211.847 417.894 211.861 419.356V557.2C211.919 560.089 210.167 561.418 208.009 560.166Z" fill="black"/>
<path opacity="0.2" d="M226.942 570.567C225.761 569.703 224.798 568.577 224.13 567.276C223.461 565.976 223.105 564.537 223.09 563.074V425.211C223.09 422.342 224.843 421.013 226.942 422.264C228.122 423.123 229.085 424.247 229.754 425.544C230.423 426.842 230.779 428.278 230.794 429.737V567.6C230.871 570.489 229.118 571.818 226.942 570.567Z" fill="black"/>
<path d="M457.446 632.256C457.446 632.256 455.038 632.853 455.712 638.342C456.387 643.831 457.234 650.861 457.234 650.861C457.234 650.861 458.024 662.244 457.966 669.678C457.908 677.113 457.484 687.012 458.987 692.386C460.489 697.759 463.648 703.345 468.482 703.152C473.316 702.96 484.718 695.872 483.601 677.055C483.312 671.932 478.016 654.617 478.016 654.617C478.016 654.617 478.863 637.784 478.747 633.643C478.775 632.975 478.607 632.313 478.265 631.739C477.923 631.164 477.422 630.702 476.821 630.407L457.446 632.256Z" fill="#37474F"/>
<path d="M454.73 616.983L457.696 633.759C457.696 633.759 459.141 638.824 468.193 638.824C470.247 638.865 472.249 638.172 473.838 636.869C475.426 635.567 476.498 633.74 476.86 631.717L477.399 615.654L454.73 616.983Z" fill="#945959"/>
<path d="M359.124 300.349L350.784 315.757L310.685 329.778C310.685 329.778 303.847 325.175 303.27 325.733C302.692 326.292 300.169 331.511 309.587 335.98L316.578 348.653C316.578 348.653 365.113 339.023 369.312 335.98C373.511 332.937 380.406 318.646 380.406 318.646C380.406 318.646 375.629 299.963 359.124 300.349Z" fill="#945959"/>
<path d="M390.306 653.153L383.699 648.878V640.326L390.055 640.904L390.306 653.153Z" fill="#263238"/>
<path d="M399.319 631.39L399.069 647.857L390.305 653.154L389.304 639.113C389.304 639.113 396.161 631.274 399.319 631.39Z" fill="#263238"/>
<path d="M375.36 612.072C375.36 612.072 374.897 612.438 369.331 627.364C363.765 642.291 357.968 647.818 354.597 650.611C351.227 653.404 343.581 658.585 343.581 662.572C343.581 666.558 350.033 669.698 359.47 668.889C368.908 668.08 382.197 665.769 385.606 654.444C386.723 650.784 386.935 644.101 391.211 639.498C395.486 634.895 399.319 631.39 399.319 631.39C399.319 631.39 399.762 616.29 395.467 612.245L375.36 612.072Z" fill="#37474F"/>
<path d="M374.936 593.717L375.398 613.593C375.398 613.593 376.111 619.641 385.433 618.428C394.755 617.214 395.371 612.919 395.371 612.919L399.589 593.659L374.936 593.717Z" fill="#945959"/>
<path d="M412.32 497.205C411.797 499.642 411.532 502.128 411.53 504.62C411.531 506.93 411.763 509.233 412.223 511.496C413.726 518.751 413.726 526.236 412.223 533.491L399.647 593.717C395.846 595.719 391.616 596.766 387.32 596.766C383.025 596.766 378.794 595.719 374.994 593.717C374.994 593.717 374.223 534.319 374.223 490.117C374.223 407.145 383.738 363.521 383.738 363.521H427.458V427.946L412.936 494.663L412.32 497.205Z" fill="#945959"/>
<path d="M433.14 409.553L417.963 492.024C416.394 493.123 414.684 494.004 412.878 494.644C396.989 500.422 374.166 490.098 374.166 490.098C374.166 407.126 383.68 363.502 383.68 363.502L430.848 363.329L433.14 409.553Z" fill="#37474F"/>
<path d="M432.562 412.75L427.4 380.393H392.983C392.983 380.393 394.812 400.289 409.758 410.265L421.064 475.152L432.562 412.75Z" fill="#263238"/>
<path d="M480.558 524.034L477.399 615.635C474.274 618.281 470.374 619.84 466.286 620.08C462.199 620.32 458.143 619.226 454.73 616.964L433.352 496.839V496.454L414.477 404.622C398.221 400.231 389.439 381.241 385.837 370.667C384.988 368.325 384.262 365.94 383.661 363.521L466.209 356.049C467.174 358.417 467.972 360.849 468.597 363.329C471.97 376.559 473.844 390.126 474.183 403.775C474.183 416.448 473.894 467.641 473.778 487.999V488.153C473.774 493.647 474.861 499.087 476.976 504.158C479.6 510.444 480.822 517.227 480.558 524.034V524.034Z" fill="#945959"/>
<path d="M474.183 403.775C474.183 416.448 473.894 467.641 473.778 487.999C468.193 492.524 461.625 495.676 454.6 497.201C447.576 498.727 440.291 498.583 433.332 496.781C431.572 496.37 429.842 495.842 428.151 495.202L414.477 404.622C391.731 399.672 385.587 370.686 385.587 370.686H385.876L468.694 363.425C472.027 376.627 473.868 390.162 474.183 403.775V403.775Z" fill="#37474F"/>
<path d="M405.232 169.901C405.232 169.901 413.745 155.359 431.329 157.767C448.914 160.174 469.618 180.744 467.134 194.746L405.232 169.901Z" fill="#1F274F"/>
<path opacity="0.4" d="M405.232 169.901C405.232 169.901 413.745 155.359 431.329 157.767C448.914 160.174 469.618 180.744 467.134 194.746L405.232 169.901Z" fill="white"/>
<path d="M480.968 234.34C489.344 214.414 470.212 187.365 438.235 173.923C406.258 160.481 373.545 165.737 365.169 185.662C356.793 205.588 375.926 232.638 407.903 246.079C439.88 259.521 472.592 254.265 480.968 234.34Z" fill="#1F274F"/>
<path d="M459.045 263.177C436.645 271.362 400.282 274.251 400.282 247.769C400.282 246.844 400.282 245.977 400.282 245.091C400.282 235.018 399.897 228.027 399.493 223.289C399.493 223.289 399.493 223.154 399.493 223.077C399.336 220.18 398.943 217.301 398.318 214.468L397.855 209.037L397.451 204.511L397.22 201.583L396.141 189.045L395.602 182.689C398.051 181.151 400.86 180.281 403.749 180.166C405.106 180.036 406.47 179.998 407.832 180.05C413.495 180.262 421.314 181.976 431.368 186.965C436.295 189.421 440.96 192.37 445.293 195.767C446.737 196.884 448.047 198.001 449.241 199.118C459.295 208.324 461.818 216.452 461.818 216.452V232.707C461.818 237.407 468.694 245.689 472.642 237.079C472.546 237.041 481.463 255.068 459.045 263.177Z" fill="#263238"/>
<path d="M404.654 253.027C404.654 253.027 394.138 251.447 384.393 262.657C374.647 273.866 359.124 300.406 359.124 300.406C359.124 300.406 374.724 305.722 380.406 318.703L401.592 281.686L404.654 253.027Z" fill="#1F274F"/>
<path opacity="0.6" d="M404.654 253.027C404.654 253.027 394.138 251.447 384.393 262.657C374.647 273.866 359.124 300.406 359.124 300.406C359.124 300.406 374.724 305.722 380.406 318.703L401.592 281.686L404.654 253.027Z" fill="black"/>
<path d="M414.342 253.027L439.38 253.932C439.38 253.932 458.255 256.956 462.492 260.018L463.956 309.42L458.601 337.732C458.601 337.732 467.731 355.201 470.658 372.747C470.658 372.747 455.115 384.303 418.907 384.303C395.602 384.303 381.87 372.747 381.87 372.747C381.87 372.747 390.402 328.68 388.996 320.571C388.996 320.571 378.172 313.85 378.249 296.92C378.326 279.991 404.596 253.027 404.596 253.027H414.342Z" fill="#1F274F"/>
<path opacity="0.4" d="M414.342 253.027L439.38 253.932C439.38 253.932 458.255 256.956 462.492 260.018L463.956 309.42L458.601 337.732C458.601 337.732 467.731 355.201 470.658 372.747C470.658 372.747 455.115 384.303 418.907 384.303C395.602 384.303 381.87 372.747 381.87 372.747C381.87 372.747 390.402 328.68 388.996 320.571C388.996 320.571 378.172 313.85 378.249 296.92C378.326 279.991 404.596 253.027 404.596 253.027H414.342Z" fill="black"/>
<path d="M424.973 199.908C424.981 203.813 423.83 207.633 421.666 210.884C419.503 214.135 416.423 216.671 412.818 218.172C409.212 219.673 405.243 220.07 401.411 219.314C397.58 218.559 394.059 216.683 391.293 213.926C388.528 211.168 386.642 207.653 385.875 203.823C385.108 199.994 385.494 196.023 386.984 192.414C388.474 188.804 391.001 185.717 394.246 183.544C397.491 181.37 401.307 180.208 405.213 180.205C410.444 180.205 415.461 182.279 419.165 185.972C422.869 189.665 424.958 194.677 424.973 199.908V199.908Z" fill="#263238"/>
<path d="M439.457 255.453L414.381 255.261L414.342 220.651L439.419 220.631L439.457 255.453Z" fill="#945959"/>
<path d="M414.477 251.004C419.593 249.09 424.268 246.159 428.22 242.389C432.172 238.619 435.32 234.087 437.473 229.067V220.631H414.361L414.477 251.004Z" fill="#703838"/>
<path d="M449.029 210.481C449.029 210.982 448.856 211.483 448.76 211.984L446.198 215.027L441.441 220.612C440.805 220.74 440.15 220.74 439.515 220.612H439.303C437.512 220.208 435.316 218.686 435.316 213.293C435.316 213.293 407.37 211.367 401.187 183.71C401.782 182.352 402.709 181.166 403.884 180.262C405.241 180.133 406.605 180.094 407.967 180.147C413.629 180.359 421.449 182.073 431.503 187.061C436.379 189.495 440.999 192.411 445.293 195.767C446.737 196.884 448.047 198.001 449.241 199.118C449.818 202.89 449.746 206.733 449.029 210.481V210.481Z" fill="#263238"/>
<path d="M407.197 212.253L407.216 225.735L399.319 223.309L407.197 212.253Z" fill="#703838"/>
<path d="M419.08 213.678C419.08 214.223 418.918 214.756 418.616 215.209C418.313 215.662 417.883 216.015 417.38 216.223C416.876 216.431 416.323 216.486 415.788 216.38C415.254 216.273 414.763 216.011 414.378 215.626C413.993 215.241 413.731 214.75 413.625 214.216C413.518 213.682 413.573 213.128 413.781 212.625C413.99 212.121 414.343 211.691 414.796 211.388C415.249 211.086 415.781 210.924 416.326 210.924C417.056 210.924 417.757 211.214 418.273 211.731C418.79 212.247 419.08 212.948 419.08 213.678V213.678Z" fill="#263238"/>
<path d="M400.995 211.772C400.999 212.317 400.84 212.852 400.54 213.307C400.24 213.763 399.811 214.119 399.308 214.33C398.805 214.541 398.251 214.599 397.715 214.495C397.18 214.391 396.687 214.13 396.3 213.745C395.913 213.361 395.649 212.87 395.541 212.335C395.433 211.801 395.486 211.246 395.694 210.742C395.902 210.237 396.255 209.806 396.709 209.502C397.162 209.199 397.695 209.037 398.241 209.037C398.968 209.037 399.665 209.324 400.181 209.837C400.697 210.349 400.99 211.045 400.995 211.772V211.772Z" fill="#263238"/>
<path d="M394.909 206.071L400.282 202.874C400.282 202.874 398.221 200.736 396.161 202.026C395.58 202.504 395.152 203.142 394.929 203.861C394.707 204.58 394.699 205.348 394.909 206.071Z" fill="#263238"/>
<path d="M407.909 230.184C411.038 230.409 414.152 229.574 416.75 227.815C416.75 227.815 417.347 232.476 413.456 233.362C412.307 233.555 411.126 233.343 410.115 232.764C409.104 232.184 408.325 231.273 407.909 230.184V230.184Z" fill="#703838"/>
<path d="M439.187 221.652C439.101 219.373 439.523 217.104 440.42 215.008C440.853 213.7 441.661 212.548 442.743 211.695C443.825 210.843 445.133 210.327 446.506 210.212C453.555 210.019 454.518 216.799 454.422 219.206C454.172 225.543 449.049 232.399 439.496 232.688L439.187 221.652Z" fill="#945959"/>
<path d="M414.477 255.261C414.477 255.261 407.004 271.073 419.793 271.747C432.581 272.421 439.515 255.473 439.515 255.473L414.477 255.261Z" fill="#945959"/>
<path d="M289.807 271.054L329.598 380.066L368.465 409.746L412.917 389.773L453.979 426.348L413.976 316.334L375.167 283.612L326.863 298.827L289.807 271.054Z" fill="#EBEBEB"/>
<path d="M375.167 283.612L412.917 389.773L368.465 409.745L326.863 298.827L375.167 283.612Z" fill="#E0E0E0"/>
<path d="M306.255 341.18C305.752 339.235 305.999 337.172 306.948 335.402C308.874 331.55 312.726 324.886 314.826 325.926C317.637 327.37 327.056 344.184 322.183 353.93C317.888 362.539 308.643 349.962 306.255 341.18Z" fill="#945959"/>
<path d="M465.188 327.91L471.66 340.987L447.411 364.6C444.857 363.436 442.014 363.06 439.245 363.521C435.319 364.114 431.326 364.114 427.4 363.521C425.031 363.117 421.276 365.736 426.534 368.741C429.004 370.38 431.83 371.403 434.777 371.726C429.397 373.63 423.812 374.89 418.136 375.482C410.991 375.867 406.58 377.735 412.108 384.091C417.635 390.447 425.705 396.706 433.14 394.896C440.574 393.086 451.148 388.405 455.982 384.284C455.982 384.284 501.532 358.071 499.182 345.513C496.833 332.956 491.979 315.603 491.979 315.603L465.188 327.91Z" fill="#945959"/>
<path d="M460.142 258.785C460.142 258.785 445.832 270.014 450.32 287.444C454.807 304.875 465.188 327.89 465.188 327.89C465.188 327.89 486.856 330.279 491.979 315.583L477.765 275.137C476.504 271.552 474.47 268.287 471.807 265.575C469.145 262.863 465.918 260.768 462.357 259.44L460.142 258.785Z" fill="#1F274F"/>
<path opacity="0.6" d="M460.142 258.785C460.142 258.785 445.832 270.014 450.32 287.444C454.807 304.875 465.188 327.89 465.188 327.89C465.188 327.89 486.856 330.279 491.979 315.583L477.765 275.137C476.504 271.552 474.47 268.287 471.807 265.575C469.145 262.863 465.918 260.768 462.357 259.44L460.142 258.785Z" fill="black"/>
<path d="M434.103 371.668L430.174 360.864L421.853 360.498L419.427 368.741L425.397 371.726L434.103 371.668Z" fill="#EBEBEB"/>
<path d="M306.236 203.086C316.328 186.541 322.684 167.512 322.684 150.429C322.853 143.062 321.31 135.757 318.177 129.089L321.644 125.622L308.162 117.918C298.917 112.294 286.147 112.949 271.953 121.134C243.949 137.313 221.241 176.642 221.241 208.979C221.241 225.504 227.173 236.983 236.649 242.126L250.516 250.099V245.13C258.097 244.601 265.434 242.234 271.895 238.235C279.725 233.571 286.787 227.724 292.831 220.901C302.75 229.395 320.719 210.019 320.719 210.019C310.473 215.99 307.141 210.077 306.236 203.086Z" fill="#1F274F"/>
<path opacity="0.2" d="M306.236 203.086C316.328 186.541 322.684 167.512 322.684 150.429C322.853 143.062 321.31 135.757 318.177 129.089L321.644 125.622L308.162 117.918C298.917 112.294 286.147 112.949 271.953 121.134C243.949 137.313 221.241 176.642 221.241 208.979C221.241 225.504 227.173 236.983 236.649 242.126L250.516 250.099V245.13C258.097 244.601 265.434 242.234 271.895 238.235C279.725 233.571 286.787 227.724 292.831 220.901C302.75 229.395 320.719 210.019 320.719 210.019C310.473 215.99 307.141 210.077 306.236 203.086Z" fill="black"/>
<g opacity="0.3">
<path opacity="0.3" d="M306.621 189.353C306.621 189.353 301.093 221.421 320.738 210.077C320.738 210.077 297.723 234.922 289.383 216.067L306.621 189.353Z" fill="black"/>
</g>
<path d="M321.328 208.2C341.134 173.895 341.135 136.815 321.329 125.381C301.524 113.946 269.412 132.486 249.606 166.791C229.8 201.096 229.799 238.176 249.605 249.611C269.411 261.046 301.522 242.505 321.328 208.2Z" fill="#1F274F"/>
<path d="M320.103 197.154C320.103 197.154 314.594 229.202 334.24 217.877C334.24 217.877 311.128 242.703 302.884 223.867L320.103 197.154Z" fill="#1F274F"/>
<path d="M286.051 157.42C275.343 163.583 266.676 178.606 266.676 190.952C266.676 203.298 286.051 224.06 286.051 224.06C286.051 224.06 305.407 180.937 305.407 168.591C305.407 156.245 296.74 151.238 286.051 157.42ZM286.051 189.218C281.487 191.857 277.808 189.719 277.808 184.461C277.959 181.601 278.785 178.817 280.217 176.337C281.65 173.856 283.649 171.75 286.051 170.19C290.596 167.551 294.294 169.689 294.294 174.947C294.139 177.806 293.311 180.588 291.879 183.068C290.446 185.548 288.45 187.655 286.051 189.218V189.218Z" fill="#1F274F"/>
<path opacity="0.5" d="M286.051 157.42C275.343 163.583 266.676 178.606 266.676 190.952C266.676 203.298 286.051 224.06 286.051 224.06C286.051 224.06 305.407 180.937 305.407 168.591C305.407 156.245 296.74 151.238 286.051 157.42ZM286.051 189.218C281.487 191.857 277.808 189.719 277.808 184.461C277.959 181.601 278.785 178.817 280.217 176.337C281.65 173.856 283.649 171.75 286.051 170.19C290.596 167.551 294.294 169.689 294.294 174.947C294.139 177.806 293.311 180.588 291.879 183.068C290.446 185.548 288.45 187.655 286.051 189.218V189.218Z" fill="black"/>
<path d="M662.931 598.994V527.039H606.865V599.572C606.865 603.732 609.619 607.873 615.089 611.128C626.067 617.465 643.844 617.465 654.822 611.128C660.581 607.777 663.297 603.366 662.931 598.994Z" fill="#263238"/>
<path d="M654.823 515.637C665.781 521.954 665.781 532.239 654.823 538.556C643.864 544.874 626.067 544.893 615.089 538.556C604.111 532.22 604.13 521.954 615.089 515.637C626.048 509.32 643.844 509.3 654.823 515.637Z" fill="#37474F"/>
<path d="M542.325 112.159L628.802 162.1V111.735L542.325 61.8135L518.673 73.331L542.325 112.159Z" fill="#1F274F"/>
<path opacity="0.3" d="M542.325 112.159L628.802 162.1V111.735L542.325 61.8135L518.673 73.331L542.325 112.159Z" fill="white"/>
<path d="M538.916 113.835L625.393 163.776V113.411L538.916 63.489L515.264 75.0065L538.916 113.835Z" fill="#1F274F"/>
<path opacity="0.7" d="M538.916 113.835L625.393 163.776V113.411L538.916 63.489L515.264 75.0065L538.916 113.835Z" fill="white"/>
<path d="M727.606 112.159L641.129 162.1V111.735L727.606 61.8135L751.257 73.331L727.606 112.159Z" fill="#1F274F"/>
<path opacity="0.3" d="M727.606 112.159L641.129 162.1V111.735L727.606 61.8135L751.257 73.331L727.606 112.159Z" fill="white"/>
<path d="M731.015 113.835L644.538 163.776V113.411L731.015 63.489L754.666 75.0065L731.015 113.835Z" fill="#1F274F"/>
<path opacity="0.5" d="M731.015 113.835L644.538 163.776V113.411L731.015 63.489L754.666 75.0065L731.015 113.835Z" fill="white"/>
<path d="M698.474 103.745C698.326 103.937 698.144 104.124 697.927 104.306C697.717 104.484 697.491 104.642 697.25 104.781C696.594 105.157 696.09 105.262 695.737 105.093C695.384 104.925 695.208 104.473 695.208 103.738V101.79L694.475 102.212V100.692L695.208 100.271V98.7616L696.971 97.7484V99.2574L698.122 98.5962V100.116L696.971 100.777V102.704C696.971 102.911 697.018 103.048 697.11 103.116C697.209 103.173 697.339 103.156 697.5 103.063C697.704 102.946 697.884 102.782 698.038 102.572L698.474 103.745ZM704.15 97.8287C704.15 97.843 704.141 98.016 704.122 98.3477L700.466 100.449C700.54 100.706 700.683 100.856 700.893 100.899C701.11 100.932 701.379 100.856 701.7 100.671C701.942 100.532 702.149 100.374 702.322 100.196C702.501 100.014 702.681 99.7826 702.86 99.5011L703.788 100.081C703.299 100.99 702.585 101.714 701.645 102.255C701.057 102.592 700.54 102.761 700.095 102.76C699.65 102.759 699.303 102.601 699.056 102.287C698.814 101.969 698.694 101.521 698.694 100.943C698.694 100.372 698.811 99.7946 699.046 99.2099C699.288 98.6147 699.619 98.0677 700.039 97.5691C700.46 97.0705 700.933 96.67 701.459 96.3678C701.96 96.0799 702.415 95.9399 702.823 95.9478C703.231 95.9486 703.553 96.1098 703.788 96.4313C704.029 96.7422 704.15 97.208 704.15 97.8287ZM701.468 97.8074C701.196 97.9638 700.967 98.1845 700.782 98.4696C700.602 98.751 700.488 99.0594 700.438 99.3946L702.498 98.2107C702.449 97.9324 702.331 97.7573 702.146 97.6856C701.966 97.6103 701.741 97.6509 701.468 97.8074ZM704.963 92.3099L706.726 91.2967V99.238L704.963 100.251V92.3099Z" fill="#455A64"/>
<path d="M557.918 90.2142V97.706L556.08 96.6501V93.7283L553.575 92.2884V95.2102L551.738 94.1543V86.6625L553.575 87.7184V90.5332L556.08 91.9731V89.1583L557.918 90.2142ZM559.13 92.6021L560.893 93.6153V99.4161L559.13 98.4028V92.6021ZM560.012 92.4665C559.69 92.2817 559.43 92.0289 559.232 91.7082C559.034 91.3875 558.935 91.0738 558.935 90.767C558.935 90.4602 559.034 90.2602 559.232 90.167C559.43 90.0739 559.69 90.1197 560.012 90.3046C560.333 90.4895 560.593 90.7387 560.791 91.0523C560.989 91.3587 561.088 91.6653 561.088 91.9721C561.088 92.2932 560.989 92.5038 560.791 92.6041C560.593 92.6973 560.333 92.6514 560.012 92.4665ZM562.039 92.1333L563.802 93.1465V101.088L562.039 100.075V92.1333ZM564.948 93.805L566.711 94.8183V102.76L564.948 101.746V93.805ZM569.685 104.565C569.264 104.323 568.849 104.032 568.441 103.69C568.033 103.341 567.705 103.006 567.458 102.686L567.986 101.598C568.215 101.894 568.488 102.182 568.803 102.464C569.119 102.738 569.431 102.964 569.74 103.141C570.025 103.305 570.226 103.388 570.343 103.392C570.467 103.392 570.529 103.327 570.529 103.199C570.529 103.07 570.455 102.938 570.306 102.803C570.164 102.664 569.935 102.479 569.62 102.248C569.218 101.96 568.874 101.688 568.59 101.431C568.311 101.179 568.07 100.869 567.866 100.502C567.662 100.135 567.56 99.7263 567.56 99.2768C567.56 98.9058 567.656 98.6326 567.847 98.4575C568.039 98.2751 568.317 98.2068 568.682 98.2525C569.054 98.2945 569.496 98.4631 570.009 98.7582C570.374 98.968 570.736 99.2188 571.095 99.5106C571.454 99.8024 571.754 100.096 571.995 100.392L571.466 101.468C571.021 100.927 570.538 100.507 570.019 100.208C569.74 100.048 569.536 99.9703 569.406 99.9741C569.276 99.9708 569.211 100.03 569.211 100.151C569.211 100.287 569.282 100.424 569.425 100.563C569.567 100.694 569.802 100.883 570.13 101.129C570.544 101.438 570.888 101.718 571.16 101.967C571.432 102.216 571.667 102.522 571.865 102.886C572.069 103.246 572.171 103.647 572.171 104.089C572.171 104.453 572.076 104.726 571.884 104.908C571.692 105.084 571.407 105.145 571.03 105.092C570.659 105.043 570.21 104.867 569.685 104.565Z" fill="#455A64"/>
<path d="M640.493 528.734C636.946 530.159 632.985 530.159 629.438 528.734V528.734C628.222 528.252 627.179 527.416 626.445 526.334C625.71 525.252 625.317 523.975 625.316 522.667V82.4795H644.576V522.667C644.581 523.971 644.195 525.246 643.467 526.328C642.739 527.41 641.703 528.248 640.493 528.734V528.734Z" fill="#455A64"/>
<path d="M649.853 73.9087C649.853 76.8533 648.98 79.7317 647.344 82.1801C645.708 84.6284 643.383 86.5366 640.663 87.6634C637.942 88.7903 634.949 89.0851 632.061 88.5107C629.173 87.9362 626.52 86.5183 624.438 84.4361C622.356 82.354 620.938 79.7012 620.363 76.8132C619.789 73.9253 620.084 70.9318 621.211 68.2114C622.338 65.4909 624.246 63.1657 626.694 61.5298C629.142 59.8939 632.021 59.0208 634.965 59.0208C638.914 59.0208 642.701 60.5893 645.493 63.3813C648.285 66.1734 649.853 69.9602 649.853 73.9087V73.9087Z" fill="#37474F"/>
<path d="M731.015 221.479L641.129 122.887L644.538 121.211L731.015 171.133L754.666 209.961L731.015 221.479Z" fill="#1F274F"/>
<path opacity="0.3" d="M731.015 221.479L641.129 122.887L644.538 121.211L731.015 171.133L754.666 209.961L731.015 221.479Z" fill="white"/>
<path d="M727.606 223.155L641.129 173.233V122.887L727.606 172.809L751.257 211.637L727.606 223.155Z" fill="#1F274F"/>
<path opacity="0.7" d="M727.606 223.155L641.129 173.233V122.887L727.606 172.809L751.257 211.637L727.606 223.155Z" fill="white"/>
<path d="M538.916 221.479L628.802 122.887L625.393 121.211L538.916 171.133L515.264 209.961L538.916 221.479Z" fill="#1F274F"/>
<path opacity="0.3" d="M538.916 221.479L628.802 122.887L625.393 121.211L538.916 171.133L515.264 209.961L538.916 221.479Z" fill="white"/>
<path d="M542.325 223.155L628.802 173.233V122.887L542.325 172.809L518.673 211.637L542.325 223.155Z" fill="#1F274F"/>
<path opacity="0.5" d="M542.325 223.155L628.802 173.233V122.887L542.325 172.809L518.673 211.637L542.325 223.155Z" fill="white"/>
<path d="M556.807 180.64C557.178 180.577 557.469 180.645 557.679 180.845C557.889 181.038 557.995 181.36 557.995 181.809C557.995 182.466 557.766 183.104 557.308 183.724C556.85 184.343 556.188 184.902 555.322 185.4L551.815 187.416V179.924L555.137 178.015C555.966 177.538 556.597 177.354 557.03 177.462C557.463 177.563 557.679 177.913 557.679 178.512C557.679 178.869 557.602 179.234 557.447 179.609C557.299 179.972 557.085 180.316 556.807 180.64ZM553.633 180.409V181.854L554.895 181.129C555.514 180.773 555.823 180.353 555.823 179.868C555.823 179.39 555.514 179.328 554.895 179.684L553.633 180.409ZM555.174 183.955C555.817 183.585 556.139 183.147 556.139 182.64C556.139 182.134 555.817 182.065 555.174 182.435L553.633 183.32V184.84L555.174 183.955ZM564.003 177.521C564.003 177.535 563.994 177.708 563.976 178.04L560.32 180.141C560.394 180.398 560.536 180.548 560.746 180.592C560.963 180.624 561.232 180.548 561.554 180.363C561.795 180.224 562.002 180.066 562.175 179.888C562.355 179.706 562.534 179.475 562.714 179.193L563.642 179.773C563.153 180.682 562.438 181.406 561.498 181.947C560.91 182.285 560.394 182.453 559.948 182.452C559.503 182.451 559.157 182.294 558.909 181.979C558.668 181.661 558.547 181.213 558.547 180.635C558.547 180.065 558.665 179.487 558.9 178.902C559.141 178.307 559.472 177.76 559.893 177.261C560.313 176.763 560.787 176.362 561.312 176.06C561.814 175.772 562.268 175.632 562.677 175.64C563.085 175.641 563.407 175.802 563.642 176.124C563.883 176.434 564.003 176.9 564.003 177.521ZM561.322 177.5C561.05 177.656 560.821 177.877 560.635 178.162C560.456 178.443 560.341 178.752 560.292 179.087L562.352 177.903C562.302 177.625 562.185 177.45 561.999 177.378C561.82 177.303 561.594 177.343 561.322 177.5ZM566.824 172.893C567.659 172.413 568.296 172.268 568.735 172.458C569.175 172.64 569.394 173.185 569.394 174.091V177.313L567.752 178.256V177.507C567.498 178.217 567.003 178.783 566.267 179.206C565.877 179.43 565.54 179.545 565.256 179.552C564.971 179.558 564.755 179.472 564.606 179.294C564.464 179.104 564.393 178.838 564.393 178.496C564.393 177.947 564.575 177.417 564.94 176.908C565.305 176.391 565.868 175.914 566.629 175.477L567.631 174.901C567.6 174.305 567.245 174.203 566.564 174.594C566.323 174.732 566.078 174.919 565.831 175.154C565.584 175.382 565.373 175.624 565.2 175.881L564.606 174.841C564.885 174.467 565.222 174.11 565.618 173.768C566.02 173.415 566.422 173.124 566.824 172.893ZM566.759 177.639C566.963 177.522 567.143 177.362 567.297 177.159C567.452 176.955 567.563 176.724 567.631 176.464V175.961L566.87 176.398C566.357 176.693 566.1 177.037 566.1 177.429C566.1 177.607 566.159 177.716 566.276 177.756C566.394 177.795 566.555 177.756 566.759 177.639ZM573.15 175.25C572.593 175.57 572.095 175.728 571.656 175.724C571.217 175.719 570.873 175.56 570.626 175.245C570.385 174.927 570.264 174.479 570.264 173.902C570.264 173.324 570.385 172.741 570.626 172.152C570.873 171.554 571.217 171.003 571.656 170.501C572.095 169.992 572.593 169.577 573.15 169.257C573.719 168.93 574.211 168.79 574.625 168.837C575.04 168.877 575.334 169.097 575.507 169.497L574.143 171.084C573.914 170.694 573.58 170.626 573.141 170.878C572.825 171.06 572.562 171.332 572.352 171.696C572.148 172.055 572.046 172.449 572.046 172.878C572.046 173.313 572.148 173.597 572.352 173.729C572.562 173.851 572.825 173.821 573.141 173.64C573.58 173.387 573.914 172.935 574.143 172.282L575.507 172.301C575.334 172.9 575.04 173.461 574.625 173.985C574.211 174.502 573.719 174.923 573.15 175.25ZM579.428 165.649C580.053 165.29 580.554 165.216 580.931 165.427C581.315 165.635 581.507 166.17 581.507 167.034V170.351L579.744 171.365V168.379C579.744 167.587 579.468 167.349 578.918 167.665C578.615 167.839 578.37 168.094 578.185 168.429C578.005 168.76 577.916 169.154 577.916 169.611V172.415L576.153 173.428V165.487L577.916 164.474V167.15C578.107 166.832 578.333 166.546 578.593 166.289C578.853 166.033 579.131 165.819 579.428 165.649Z" fill="#455A64"/>
<path d="M663.025 149.635C663.613 149.973 664.123 150.38 664.556 150.858C664.989 151.328 665.323 151.841 665.559 152.397C665.794 152.946 665.911 153.502 665.911 154.066C665.911 154.629 665.794 155.051 665.559 155.329C665.323 155.608 664.989 155.737 664.556 155.717C664.123 155.689 663.613 155.506 663.025 155.168L661.893 154.518V156.476L660.056 155.42V147.929L663.025 149.635ZM662.914 153.435C663.291 153.652 663.576 153.722 663.768 153.647C663.959 153.565 664.055 153.349 664.055 152.999C664.055 152.649 663.959 152.323 663.768 152.02C663.576 151.718 663.291 151.458 662.914 151.241L661.893 150.654V152.848L662.914 153.435ZM668.822 154.561C669.657 155.041 670.294 155.628 670.733 156.323C671.172 157.011 671.392 157.808 671.392 158.714V161.935L669.75 160.991V160.242C669.496 160.66 669.001 160.658 668.265 160.235C667.875 160.011 667.538 159.738 667.253 159.418C666.969 159.097 666.752 158.762 666.604 158.413C666.462 158.06 666.39 157.712 666.39 157.37C666.39 156.821 666.573 156.501 666.938 156.411C667.303 156.314 667.866 156.484 668.627 156.921L669.629 157.497C669.598 156.866 669.242 156.355 668.562 155.964C668.321 155.825 668.076 155.731 667.829 155.681C667.581 155.625 667.371 155.625 667.198 155.683L666.604 153.961C666.882 153.907 667.219 153.936 667.615 154.05C668.017 154.16 668.42 154.33 668.822 154.561ZM668.757 159.233C668.961 159.35 669.14 159.396 669.295 159.371C669.45 159.346 669.561 159.242 669.629 159.06V158.557L668.868 158.12C668.355 157.825 668.098 157.873 668.098 158.266C668.098 158.444 668.157 158.62 668.274 158.795C668.392 158.97 668.553 159.116 668.757 159.233ZM674.184 158.435C674.364 158.274 674.596 158.211 674.88 158.246C675.171 158.278 675.502 158.4 675.873 158.614V160.444C675.712 160.33 675.579 160.243 675.474 160.182C675.097 159.966 674.8 159.913 674.583 160.024C674.373 160.138 674.268 160.438 674.268 160.923V163.588L672.505 162.575V156.774L674.184 157.739V158.435ZM678.883 164.207L678.364 164.519V165.942L676.601 164.929V156.988L678.364 158.001V162.164L680.164 161.176L682.252 162.376L680.164 163.659L682.428 168.278L680.294 167.051L678.883 164.207Z" fill="#455A64"/>
<path d="M152.849 52.2026L141.293 58.8088V54.7064C141.293 54.4175 141.293 54.1093 141.293 53.8397C141.293 53.5701 141.293 53.2812 141.293 53.0115V52.9152C140.869 47.4646 136.748 45.3845 131.663 48.2928C129.367 49.6805 127.396 51.546 125.885 53.7627C124.749 46.3861 118.72 43.7089 111.44 47.9847C107.199 50.7667 103.672 54.5067 101.143 58.9028C98.6135 63.2989 97.1531 68.2279 96.8793 73.2923V82.1326C96.8815 82.8243 96.7055 83.505 96.3681 84.1088C96.0308 84.7127 95.5435 85.2194 94.9533 85.5802L88.1353 89.567C86.6486 90.4253 85.4117 91.6567 84.5469 93.1397C83.6822 94.6226 83.2195 96.3056 83.2047 98.0221C83.2043 98.7323 83.3908 99.4301 83.7456 100.045C84.1004 100.661 84.611 101.172 85.2259 101.527C85.8408 101.882 86.5385 102.069 87.2487 102.069C87.9589 102.069 88.6566 101.883 89.2716 101.527L152.656 64.9335C154.345 63.9584 155.746 62.554 156.717 60.8628C157.688 59.1715 158.194 57.2535 158.184 55.3035C158.18 54.6804 158.013 54.0691 157.701 53.5301C157.388 52.991 156.941 52.5428 156.402 52.2297C155.863 51.9166 155.252 51.7494 154.629 51.7446C154.006 51.7399 153.392 51.8977 152.849 52.2026V52.2026Z" fill="#E0E0E0"/>
<path d="M218.025 68.6507L210.051 73.1768V70.3648C210.051 70.153 210.051 69.9604 210.051 69.7485C210.061 69.5625 210.061 69.376 210.051 69.19V69.19C209.762 65.4535 206.931 64.009 203.484 66.0121C201.951 66.9808 200.639 68.2603 199.632 69.7678C198.861 64.7024 194.72 62.8727 189.732 65.7617C186.776 67.6441 184.309 70.1998 182.531 73.2194C180.754 76.239 179.717 79.6366 179.505 83.1342V89.1626C179.503 89.6401 179.378 90.1091 179.142 90.5241C178.906 90.9392 178.566 91.2862 178.157 91.5316L173.457 94.2665C172.452 94.8622 171.618 95.7068 171.034 96.7188C170.45 97.7309 170.137 98.8763 170.125 100.045C170.122 100.535 170.249 101.017 170.493 101.442C170.737 101.867 171.089 102.22 171.514 102.465C171.939 102.709 172.421 102.837 172.911 102.835C173.401 102.833 173.882 102.701 174.305 102.452L217.813 77.414C218.972 76.7451 219.936 75.7859 220.612 74.6309C221.287 73.476 221.65 72.165 221.665 70.8271C221.667 70.3992 221.557 69.9782 221.346 69.6056C221.136 69.2331 220.832 68.9217 220.465 68.7021C220.097 68.4825 219.679 68.3623 219.252 68.3533C218.824 68.3443 218.401 68.4468 218.025 68.6507V68.6507Z" fill="#E0E0E0"/>
</svg>
